<svg width="345" height="50" viewBox="0 0 345 50" fill="none" xmlns="http://www.w3.org/2000/svg">
<rect width="345" height="50" rx="20" fill="#33333F"/>
<rect x="0.35" y="0.35" width="344.3" height="49.3" rx="19.65" stroke="url(#paint0_linear_28_1582)" stroke-opacity="0.15" stroke-width="0.7"/>
<g opacity="0.35">
<path fill-rule="evenodd" clip-rule="evenodd" d="M21 18.125C20.2817 18.125 19.5928 18.4103 19.0849 18.9182C18.577 19.4261 18.2917 20.115 18.2917 20.8333V29.1667C18.2917 29.8849 18.577 30.5737 19.0849 31.0817C19.5928 31.5897 20.2817 31.875 21 31.875H23.7833C24.1285 31.875 24.4083 32.1548 24.4083 32.5C24.4083 32.8452 24.1285 33.125 23.7833 33.125H21C19.9501 33.125 18.9433 32.7079 18.201 31.9656C17.4587 31.2232 17.0417 30.2165 17.0417 29.1667V20.8333C17.0417 19.7835 17.4587 18.7767 18.201 18.0343C18.9434 17.292 19.9502 16.875 21 16.875H22.6704C23.3612 16.8792 24.0389 17.064 24.6361 17.4112C25.2324 17.758 25.7278 18.2545 26.0731 18.8516C26.3156 19.2626 26.6606 19.6037 27.0744 19.8415C27.4885 20.0795 27.9572 20.2059 28.4348 20.2083H31C32.0497 20.2083 33.0566 20.6253 33.799 21.3677C34.5413 22.11 34.9583 23.1169 34.9583 24.1667V25.4583C34.9583 25.8034 34.6785 26.0833 34.3333 26.0833C33.9882 26.0833 33.7083 25.8034 33.7083 25.4583V24.1667C33.7083 23.4483 33.423 22.7594 32.9151 22.2515C32.4072 21.7436 31.7183 21.4583 31 21.4583H28.4305C27.7357 21.4552 27.0538 21.2714 26.4515 20.9253C25.8492 20.5791 25.3472 20.0824 24.9947 19.4838L24.9921 19.4792C24.7557 19.0698 24.4164 18.7294 24.0078 18.4919C23.5997 18.2546 23.1367 18.1282 22.6647 18.125H21Z" fill="white"/>
<path fill-rule="evenodd" clip-rule="evenodd" d="M30.055 26.0829C30.7823 25.9582 31.5304 26.0947 32.1667 26.4687C32.6897 26.7761 33.1095 27.2276 33.3783 27.7652C33.9437 27.8877 34.4588 28.1886 34.8446 28.6288C35.3187 29.17 35.5585 29.8773 35.5112 30.5952C35.4637 31.3132 35.1332 31.9829 34.592 32.4571C34.0563 32.9264 33.3578 33.1661 32.6474 33.125H28.0833C27.4755 33.125 26.8927 32.8835 26.4629 32.4537C26.0331 32.024 25.7917 31.4411 25.7917 30.8333C25.7917 30.2255 26.0331 29.6427 26.4629 29.2129C26.7538 28.9219 27.1151 28.7172 27.5067 28.6154C27.6022 28.0785 27.8372 27.5725 28.1927 27.1504C28.6679 26.5857 29.3277 26.2077 30.055 26.0829ZM31.5333 27.5463C31.1517 27.322 30.7028 27.24 30.2663 27.3149C29.8299 27.3897 29.4341 27.6167 29.1489 27.9554C28.8637 28.2942 28.7077 28.7229 28.7083 29.1657C28.7086 29.3317 28.6428 29.4908 28.5256 29.6082C28.4083 29.7257 28.2492 29.7917 28.0833 29.7917C27.8071 29.7917 27.5422 29.9014 27.3467 30.0967C27.1514 30.2922 27.0417 30.5571 27.0417 30.8333C27.0417 31.1096 27.1514 31.3745 27.3467 31.5698C27.5422 31.7652 27.8071 31.875 28.0833 31.875H32.6667C32.6804 31.875 32.6942 31.8754 32.7078 31.8763C33.0949 31.9019 33.4764 31.7726 33.7682 31.5169C34.06 31.2612 34.2383 30.9001 34.2638 30.5129C34.2894 30.1258 34.1602 29.7444 33.9044 29.4526C33.6487 29.1608 33.2877 28.9825 32.9005 28.957C32.6508 28.9405 32.4351 28.7767 32.3521 28.5407C32.2051 28.123 31.9151 27.7707 31.5333 27.5463Z" fill="white"/>
</g>
<path d="M59.3438 27.9531H55.0469L54.0156 31H52.1953L56.2656 19.7266H58.1562L62.2266 31H60.375L59.3438 27.9531ZM55.4922 26.5469H58.8984L57.2188 21.6016H57.1719L55.4922 26.5469ZM66.2734 31.0859C65.2057 31.0859 64.3438 30.6901 63.6875 29.8984C63.026 29.1068 62.6953 28.0573 62.6953 26.75C62.6953 25.4531 63.026 24.4062 63.6875 23.6094C64.3438 22.8229 65.2005 22.4297 66.2578 22.4297C67.5234 22.4297 68.4141 22.9271 68.9297 23.9219H68.9688V19.2188H70.6562V31H69.0156V29.5625H68.9844C68.4583 30.5781 67.5547 31.0859 66.2734 31.0859ZM66.7031 23.8672C66.0208 23.8672 65.4714 24.1302 65.0547 24.6562C64.638 25.1823 64.4297 25.8828 64.4297 26.7578C64.4297 27.638 64.638 28.3385 65.0547 28.8594C65.4661 29.3854 66.0156 29.6484 66.7031 29.6484C67.3854 29.6484 67.9349 29.3828 68.3516 28.8516C68.7682 28.3203 68.9766 27.6224 68.9766 26.7578C68.9766 25.8932 68.7682 25.1953 68.3516 24.6641C67.9297 24.1328 67.3802 23.8672 66.7031 23.8672ZM75.6484 31.0859C74.5807 31.0859 73.7188 30.6901 73.0625 29.8984C72.401 29.1068 72.0703 28.0573 72.0703 26.75C72.0703 25.4531 72.401 24.4062 73.0625 23.6094C73.7188 22.8229 74.5755 22.4297 75.6328 22.4297C76.8984 22.4297 77.7891 22.9271 78.3047 23.9219H78.3438V19.2188H80.0312V31H78.3906V29.5625H78.3594C77.8333 30.5781 76.9297 31.0859 75.6484 31.0859ZM76.0781 23.8672C75.3958 23.8672 74.8464 24.1302 74.4297 24.6562C74.013 25.1823 73.8047 25.8828 73.8047 26.7578C73.8047 27.638 74.013 28.3385 74.4297 28.8594C74.8411 29.3854 75.3906 29.6484 76.0781 29.6484C76.7604 29.6484 77.3099 29.3828 77.7266 28.8516C78.1432 28.3203 78.3516 27.6224 78.3516 26.7578C78.3516 25.8932 78.1432 25.1953 77.7266 24.6641C77.3047 24.1328 76.7552 23.8672 76.0781 23.8672ZM86.0234 23.8516H84.8516V22.5156H86.0234V21.7344C86.0234 20.9375 86.2161 20.3594 86.6016 20C86.987 19.6354 87.6068 19.4531 88.4609 19.4531C88.7318 19.4531 89.0182 19.4792 89.3203 19.5312V20.8203C89.138 20.7786 88.9271 20.7578 88.6875 20.7578C88.3385 20.7578 88.0885 20.8385 87.9375 21C87.7812 21.1615 87.7005 21.4245 87.6953 21.7891V22.5156H89.3281V23.8516H87.7109V31H86.0234V23.8516ZM90.7344 22.5156H92.3516V23.9453H92.3828C92.513 23.4714 92.763 23.1016 93.1328 22.8359C93.4974 22.5651 93.9297 22.4297 94.4297 22.4297C94.6641 22.4297 94.8516 22.4505 94.9922 22.4922V24.0781C94.8047 24.0052 94.5573 23.9688 94.25 23.9688C93.6927 23.9688 93.25 24.1484 92.9219 24.5078C92.5938 24.862 92.4297 25.3385 92.4297 25.9375V31H90.7344V22.5156ZM99.3828 31.1016C98.1536 31.1016 97.1771 30.7109 96.4531 29.9297C95.7292 29.1484 95.3672 28.0911 95.3672 26.7578C95.3672 25.4297 95.7318 24.3724 96.4609 23.5859C97.1849 22.7995 98.1589 22.4062 99.3828 22.4062C100.607 22.4062 101.581 22.7969 102.305 23.5781C103.029 24.3646 103.391 25.4245 103.391 26.7578C103.391 28.0911 103.029 29.1484 102.305 29.9297C101.586 30.7109 100.612 31.1016 99.3828 31.1016ZM99.3828 29.6953C100.102 29.6953 100.664 29.4375 101.07 28.9219C101.471 28.4062 101.672 27.6849 101.672 26.7578C101.672 25.8307 101.471 25.1094 101.07 24.5938C100.664 24.0729 100.102 23.8125 99.3828 23.8125C98.6641 23.8125 98.1016 24.0729 97.6953 24.5938C97.2891 25.1146 97.0859 25.8359 97.0859 26.7578C97.0859 27.6797 97.2891 28.401 97.6953 28.9219C98.1016 29.4375 98.6641 29.6953 99.3828 29.6953ZM104.75 22.5156H106.367V23.9531H106.398C106.591 23.4792 106.904 23.1042 107.336 22.8281C107.763 22.5573 108.255 22.4219 108.812 22.4219C110.036 22.4219 110.828 22.9714 111.188 24.0703H111.227C111.451 23.5599 111.797 23.1562 112.266 22.8594C112.74 22.5677 113.279 22.4219 113.883 22.4219C114.721 22.4219 115.391 22.6771 115.891 23.1875C116.396 23.6927 116.648 24.3698 116.648 25.2188V31H114.961V25.625C114.961 25.0677 114.818 24.638 114.531 24.3359C114.24 24.0286 113.831 23.875 113.305 23.875C112.784 23.875 112.359 24.0495 112.031 24.3984C111.698 24.7474 111.531 25.1927 111.531 25.7344V31H109.867V25.4844C109.867 24.9948 109.721 24.6042 109.43 24.3125C109.133 24.0208 108.737 23.875 108.242 23.875C107.721 23.875 107.292 24.0573 106.953 24.4219C106.615 24.7812 106.445 25.2396 106.445 25.7969V31H104.75V22.5156ZM122.203 31V19.7266H129.242V21.2344H123.953V24.8047H128.797V26.2812H123.953V31H122.203ZM130.656 22.5156H132.352V31H130.656V22.5156ZM131.508 21.3047C131.232 21.3047 130.997 21.2083 130.805 21.0156C130.612 20.8281 130.516 20.599 130.516 20.3281C130.516 20.0521 130.612 19.8203 130.805 19.6328C130.997 19.4453 131.232 19.3516 131.508 19.3516C131.784 19.3516 132.018 19.4453 132.211 19.6328C132.404 19.8203 132.5 20.0521 132.5 20.3281C132.5 20.599 132.404 20.8281 132.211 21.0156C132.018 21.2083 131.784 21.3047 131.508 21.3047ZM134.227 19.2188H135.922V31H134.227V19.2188ZM141.266 23.7891C140.656 23.7891 140.151 23.9922 139.75 24.3984C139.344 24.8047 139.117 25.3333 139.07 25.9844H143.375C143.354 25.3229 143.151 24.7917 142.766 24.3906C142.38 23.9896 141.88 23.7891 141.266 23.7891ZM144.984 28.5156C144.865 29.276 144.466 29.8984 143.789 30.3828C143.112 30.862 142.297 31.1016 141.344 31.1016C140.115 31.1016 139.141 30.7135 138.422 29.9375C137.708 29.1667 137.352 28.1172 137.352 26.7891C137.352 25.4609 137.708 24.3984 138.422 23.6016C139.135 22.8047 140.086 22.4062 141.273 22.4062C142.44 22.4062 143.365 22.7839 144.047 23.5391C144.729 24.2891 145.07 25.3073 145.07 26.5938V27.1875H139.062V27.2891C139.062 28.0234 139.273 28.612 139.695 29.0547C140.117 29.5026 140.677 29.7266 141.375 29.7266C141.87 29.7266 142.297 29.6172 142.656 29.3984C143.016 29.1797 143.253 28.8854 143.367 28.5156H144.984ZM146.297 24.9297C146.297 24.1849 146.602 23.5781 147.211 23.1094C147.82 22.6458 148.612 22.4141 149.586 22.4141C150.513 22.4141 151.281 22.651 151.891 23.125C152.495 23.5938 152.807 24.1979 152.828 24.9375H151.234C151.198 24.5625 151.029 24.2656 150.727 24.0469C150.424 23.8281 150.031 23.7188 149.547 23.7188C149.068 23.7188 148.68 23.8203 148.383 24.0234C148.091 24.2318 147.945 24.5026 147.945 24.8359C147.945 25.3464 148.385 25.7083 149.266 25.9219L150.672 26.2578C151.526 26.4661 152.13 26.7422 152.484 27.0859C152.839 27.4297 153.016 27.9141 153.016 28.5391C153.016 29.2943 152.69 29.9115 152.039 30.3906C151.388 30.8646 150.549 31.1016 149.523 31.1016C148.539 31.1016 147.732 30.8672 147.102 30.3984C146.477 29.9349 146.133 29.3177 146.07 28.5469H147.742C147.878 29.3854 148.5 29.8047 149.609 29.8047C150.135 29.8047 150.555 29.7031 150.867 29.5C151.174 29.2969 151.328 29.0234 151.328 28.6797C151.328 28.4089 151.234 28.1953 151.047 28.0391C150.865 27.8828 150.549 27.7474 150.102 27.6328L148.586 27.2578C147.06 26.8828 146.297 26.1068 146.297 24.9297Z" fill="white"/>
<defs>
<linearGradient id="paint0_linear_28_1582" x1="-7.00002" y1="-9.589" x2="403.868" y2="179.773" gradientUnits="userSpaceOnUse">
<stop stop-color="white"/>
<stop offset="1" stop-color="white" stop-opacity="0"/>
</linearGradient>
</defs>
</svg>
