<svg width="46" height="46" viewBox="0 0 46 46" fill="none" xmlns="http://www.w3.org/2000/svg">
<rect width="46" height="46" rx="15" fill="url(#paint0_linear_28_1175)"/>
<path d="M20.2142 0H25.7857V23.2143C25.7857 24.7528 24.5385 26 22.9999 26C21.4614 26 20.2142 24.7528 20.2142 23.2143V0Z" fill="white"/>
<path d="M26.2076 19.5255C25.905 21.0195 24.5819 22.1477 23 22.1477C21.4181 22.1477 20.095 21.0195 19.7924 19.5255C19.1117 22.8735 17.4276 28.3416 17.0482 30.9296C16.5713 34.1819 19.7129 36.8814 23 36.8814C26.2871 36.8814 29.4287 34.1819 28.9518 30.9296C28.5724 28.3416 26.8883 22.8735 26.2076 19.5255ZM25.9221 33.1095C25.22 33.9221 24.1003 34.4269 23 34.4269C21.8997 34.4269 20.7801 33.9221 20.078 33.1095C19.4643 32.3993 19.4123 31.7258 19.4768 31.2858C19.5398 30.8557 19.6528 30.3193 19.8221 29.6456C19.9135 29.2819 20.2405 29.0269 20.6156 29.0269H25.3846C25.7596 29.0269 26.0867 29.2819 26.1781 29.6456C26.3474 30.3195 26.4604 30.8559 26.5234 31.2857C26.5878 31.7257 26.5359 32.3993 25.9221 33.1095Z" fill="white"/>
<path d="M24.7389 30.6632H21.2609C21.1854 30.999 21.1309 31.2832 21.0957 31.523C21.0877 31.5782 21.0629 31.7467 21.316 32.0396C21.7041 32.4887 22.3808 32.7904 22.9999 32.7904C23.6191 32.7904 24.2958 32.4887 24.6838 32.0396C24.9369 31.7467 24.9122 31.5783 24.9041 31.5229C24.869 31.2832 24.8144 30.999 24.7389 30.6632Z" fill="white"/>
<rect x="29" y="17" width="4" height="12" rx="2" transform="rotate(90 29 17)" fill="white"/>
<rect x="29" y="3" width="4" height="12" rx="2" transform="rotate(90 29 3)" fill="white"/>
<rect x="29" y="10" width="4" height="12" rx="2" transform="rotate(90 29 10)" fill="white"/>
<mask id="mask0_28_1175" style="mask-type:alpha" maskUnits="userSpaceOnUse" x="0" y="0" width="46" height="46">
<rect width="46" height="46" rx="15" fill="#3B91FC"/>
</mask>
<g mask="url(#mask0_28_1175)">
<rect x="-24.0289" y="1.79117" width="64.2727" height="64.2727" transform="rotate(-25.1088 -24.0289 1.79117)" fill="url(#paint1_radial_28_1175)" fill-opacity="0.55"/>
</g>
<defs>
<linearGradient id="paint0_linear_28_1175" x1="3.5" y1="5" x2="46" y2="50.5" gradientUnits="userSpaceOnUse">
<stop stop-color="#26DFC2"/>
<stop offset="1" stop-color="#08B99D"/>
</linearGradient>
<radialGradient id="paint1_radial_28_1175" cx="0" cy="0" r="1" gradientUnits="userSpaceOnUse" gradientTransform="translate(-1.22639 21.5424) rotate(74.7089) scale(30.8585 25.9429)">
<stop stop-color="#08B99D"/>
<stop offset="1" stop-color="#98FDAC" stop-opacity="0"/>
</radialGradient>
</defs>
</svg>
