<svg width="286" height="257" viewBox="0 0 286 257" fill="none" xmlns="http://www.w3.org/2000/svg">
<rect y="18.2312" width="168" height="168" rx="54.7826" transform="rotate(-6.22994 0 18.2312)" fill="url(#paint0_linear_6_188)"/>
<rect x="0.551307" y="18.674" width="167" height="167" rx="54.2826" transform="rotate(-6.22994 0.551307 18.674)" stroke="url(#paint1_linear_6_188)" stroke-opacity="0.15"/>
<path d="M73.3901 10.2197L93.6178 8.01153L102.818 92.2934C103.428 97.8792 99.3943 102.902 93.8085 103.511V103.511C88.2228 104.121 83.2004 100.087 82.5907 94.5016L73.3901 10.2197Z" fill="white"/>
<path d="M102.888 78.7338C102.382 84.2777 98.0248 88.8982 92.2817 89.5251C86.5385 90.1521 81.2875 86.5804 79.5969 81.2764C78.4526 93.7012 74.5055 114.221 74.1535 123.768C73.7113 135.765 86.1869 144.32 98.1211 143.018C110.055 141.715 120.391 130.669 117.371 119.05C114.968 109.804 106.686 90.6191 102.888 78.7338V78.7338ZM107.235 128.165C105.008 131.393 101.143 133.67 97.1483 134.106C93.1536 134.542 88.8885 133.153 86.0174 130.481C83.508 128.146 83.0522 125.721 83.1118 124.098C83.1703 122.512 83.368 120.52 83.7156 118.007C83.9033 116.65 84.9896 115.594 86.3513 115.446L103.666 113.556C105.027 113.407 106.316 114.203 106.792 115.488C107.673 117.867 108.296 119.77 108.695 121.305C109.104 122.877 109.182 125.343 107.235 128.165Z" fill="white"/>
<path d="M101.97 119.752L89.3428 121.131C89.2017 122.38 89.1163 123.433 89.0836 124.318C89.0763 124.522 89.0532 125.143 90.0884 126.106C91.6752 127.583 94.2515 128.41 96.4994 128.165C98.7475 127.919 101.085 126.556 102.315 124.771C103.118 123.608 102.962 123.006 102.911 122.808C102.688 121.952 102.377 120.942 101.97 119.752V119.752Z" fill="white"/>
<rect x="112.025" y="68.4579" width="14.6087" height="43.8261" rx="7.30435" transform="rotate(83.7701 112.025 68.4579)" fill="white"/>
<rect x="106.477" y="17.6295" width="14.6087" height="43.8261" rx="7.30435" transform="rotate(83.7701 106.477 17.6295)" fill="white"/>
<rect x="109.251" y="43.0437" width="14.6087" height="43.8261" rx="7.30435" transform="rotate(83.7701 109.251 43.0437)" fill="white"/>
<mask id="mask0_6_188" style="mask-type:alpha" maskUnits="userSpaceOnUse" x="5" y="5" width="175" height="175">
<rect y="18.2312" width="168" height="168" rx="54.7826" transform="rotate(-6.22994 0 18.2312)" fill="#3B91FC"/>
</mask>
<g mask="url(#mask0_6_188)">
<rect x="-86.5299" y="34.2575" width="234.735" height="234.735" transform="rotate(-31.3387 -86.5299 34.2575)" fill="url(#paint2_radial_6_188)" fill-opacity="0.55"/>
</g>
<g clip-path="url(#clip0_6_188)">
<g filter="url(#filter0_b_6_188)">
<path d="M251.066 147.839L229 153.534C227.558 153.902 226.037 153.799 224.659 153.239C223.281 152.679 222.118 151.692 221.342 150.423L205.683 125.155C204.767 123.659 203.319 122.565 201.629 122.095C199.938 121.625 198.133 121.813 196.576 122.622L170.117 136.171C168.797 136.857 167.292 137.102 165.823 136.869C164.353 136.637 162.997 135.94 161.953 134.881L145.999 118.607C145.081 117.676 143.92 117.022 142.648 116.719C141.376 116.415 140.045 116.474 138.806 116.889C137.566 117.305 136.468 118.059 135.635 119.067C134.803 120.076 134.27 121.297 134.097 122.593C131.074 145.361 129.651 162.38 126.143 186.669C125.906 188.345 126.286 190.051 127.21 191.469C128.135 192.888 129.542 193.923 131.171 194.384L224.627 220.385C226.26 220.832 228 220.672 229.524 219.935C231.049 219.198 232.254 217.933 232.917 216.375C242.458 193.765 250.029 178.456 259.199 157.399C259.72 156.2 259.895 154.879 259.703 153.585C259.511 152.292 258.96 151.079 258.113 150.083C257.266 149.087 256.156 148.349 254.911 147.952C253.665 147.556 252.333 147.516 251.066 147.839ZM199.725 195.06L165.575 185.559C164.066 185.139 162.785 184.137 162.014 182.772C161.244 181.408 161.047 179.793 161.467 178.284C161.887 176.774 162.889 175.493 164.254 174.723C165.618 173.953 167.233 173.756 168.742 174.176L202.892 183.677C204.401 184.097 205.682 185.099 206.452 186.464C207.223 187.828 207.42 189.442 207 190.952C206.58 192.461 205.577 193.742 204.213 194.513C202.849 195.283 201.234 195.48 199.725 195.06Z" fill="url(#paint3_linear_6_188)" fill-opacity="0.25"/>
<path d="M229.125 154.019L229.124 154.019C227.579 154.413 225.948 154.302 224.471 153.702C222.994 153.102 221.749 152.045 220.916 150.685C220.916 150.685 220.916 150.684 220.915 150.684L205.258 125.419L205.256 125.416C204.407 124.028 203.063 123.013 201.495 122.577C199.926 122.14 198.251 122.315 196.807 123.065L196.804 123.067L170.348 136.615C170.348 136.615 170.347 136.615 170.347 136.615C168.932 137.35 167.319 137.612 165.745 137.363C164.17 137.114 162.716 136.367 161.597 135.232L161.596 135.231L145.643 118.958C145.643 118.958 145.643 118.958 145.643 118.957C144.79 118.094 143.712 117.487 142.532 117.205C141.351 116.923 140.115 116.978 138.964 117.363C137.813 117.749 136.794 118.45 136.021 119.386C135.248 120.322 134.754 121.456 134.593 122.659C133.299 132.407 132.296 141.117 131.296 149.802C129.965 161.362 128.64 172.878 126.638 186.739C126.419 188.296 126.771 189.879 127.629 191.196C128.487 192.513 129.794 193.475 131.307 193.902L224.759 219.903C226.276 220.318 227.891 220.17 229.307 219.485C230.722 218.801 231.841 217.627 232.457 216.181C232.457 216.18 232.457 216.18 232.457 216.179L229.125 154.019ZM229.125 154.019L251.189 148.323C252.366 148.024 253.602 148.06 254.759 148.429C255.915 148.797 256.946 149.483 257.732 150.407C258.519 151.332 259.03 152.458 259.208 153.659C259.386 154.859 259.224 156.086 258.74 157.199L229.125 154.019ZM165.441 186.041L199.591 195.542C201.228 195.997 202.979 195.784 204.459 194.948C205.939 194.113 207.026 192.723 207.481 191.086C207.937 189.449 207.723 187.698 206.888 186.218C206.052 184.738 204.663 183.651 203.026 183.195L168.876 173.694C167.239 173.239 165.488 173.452 164.008 174.288C162.528 175.123 161.441 176.513 160.985 178.15C160.53 179.787 160.743 181.538 161.579 183.018C162.414 184.498 163.804 185.585 165.441 186.041Z" stroke="url(#paint4_linear_6_188)" stroke-opacity="0.15"/>
</g>
</g>
<defs>
<filter id="filter0_b_6_188" x="78.9364" y="69.3895" width="227.98" height="198.382" filterUnits="userSpaceOnUse" color-interpolation-filters="sRGB">
<feFlood flood-opacity="0" result="BackgroundImageFix"/>
<feGaussianBlur in="BackgroundImageFix" stdDeviation="23.569"/>
<feComposite in2="SourceAlpha" operator="in" result="effect1_backgroundBlur_6_188"/>
<feBlend mode="normal" in="SourceGraphic" in2="effect1_backgroundBlur_6_188" result="shape"/>
</filter>
<linearGradient id="paint0_linear_6_188" x1="14" y1="27.5645" x2="176.338" y2="147.386" gradientUnits="userSpaceOnUse">
<stop stop-color="#664AFF"/>
<stop offset="1" stop-color="#9380FD"/>
</linearGradient>
<linearGradient id="paint1_linear_6_188" x1="-3.40871" y1="-13.9879" x2="238.087" y2="2.14275" gradientUnits="userSpaceOnUse">
<stop stop-color="white"/>
<stop offset="1" stop-color="white" stop-opacity="0"/>
</linearGradient>
<radialGradient id="paint2_radial_6_188" cx="0" cy="0" r="1" gradientUnits="userSpaceOnUse" gradientTransform="translate(-2.38251 98.4456) rotate(74.5561) scale(106.932 89.898)">
<stop stop-color="#664AFF"/>
<stop offset="1" stop-color="#664AFF" stop-opacity="0.01"/>
</radialGradient>
<linearGradient id="paint3_linear_6_188" x1="142.085" y1="96.8393" x2="200.514" y2="265.039" gradientUnits="userSpaceOnUse">
<stop stop-color="#664AFF"/>
<stop offset="0.593749" stop-color="#8A79E8" stop-opacity="0.375782"/>
<stop offset="1" stop-color="#664AFF" stop-opacity="0.15"/>
</linearGradient>
<linearGradient id="paint4_linear_6_188" x1="102.881" y1="128.88" x2="226.592" y2="144.107" gradientUnits="userSpaceOnUse">
<stop stop-color="white"/>
<stop offset="1" stop-color="white" stop-opacity="0"/>
</linearGradient>
<clipPath id="clip0_6_188">
<rect width="141.787" height="141.787" fill="white" transform="translate(156.19 68) rotate(24.6741)"/>
</clipPath>
</defs>
</svg>
