<svg width="24" height="24" viewBox="0 0 24 24" fill="none" xmlns="http://www.w3.org/2000/svg">
<g clip-path="url(#clip0_200_1506)">
<path d="M17.1987 5.06325H10.5466C10.0288 5.06325 9.60901 5.48302 9.60901 6.00089C9.60901 6.51877 10.0288 6.93853 10.5466 6.93853H17.1987C17.7166 6.93853 18.1363 6.51877 18.1363 6.00089C18.1363 5.48302 17.7165 5.06325 17.1987 5.06325Z" fill="#664AFF"/>
<path d="M17.1987 8.81377H10.5466C10.0288 8.81377 9.60901 9.23353 9.60901 9.75141C9.60901 10.2693 10.0288 10.689 10.5466 10.689H17.1987C17.7165 10.689 18.1363 10.2693 18.1363 9.75141C18.1363 9.23353 17.7166 8.81377 17.1987 8.81377Z" fill="#664AFF"/>
<path d="M13.4064 12.5643H10.5466C10.0288 12.5643 9.60901 12.9841 9.60901 13.502C9.60901 14.0198 10.0288 14.4396 10.5466 14.4396H13.4064C13.9243 14.4396 14.3441 14.0198 14.3441 13.502C14.3441 12.9841 13.9243 12.5643 13.4064 12.5643Z" fill="#664AFF"/>
<path d="M21.0014 12.7518C21.5192 12.7518 21.939 12.3321 21.939 11.8142V3.75056C21.939 1.68248 20.2565 0 18.1884 0H9.56216C7.49525 0 5.81352 1.68061 5.8116 3.74709C3.74357 3.74709 2.06104 5.42958 2.06104 7.49766V20.2495C2.06104 22.3175 3.74352 24 5.8116 24H14.9067C16.9747 24 18.6572 22.3176 18.6572 20.2495V20.221C20.5048 19.9895 21.9389 18.4087 21.9389 16.4996C21.9389 15.9818 21.5192 15.562 21.0013 15.562C20.4834 15.562 20.0637 15.9818 20.0637 16.4996C20.0637 17.5334 19.2226 18.3747 18.1889 18.3749L9.56258 18.377H9.56216C9.0613 18.377 8.59044 18.182 8.2363 17.8279C7.88202 17.4737 7.68688 17.0027 7.68688 16.5017V3.75056C7.68688 2.71655 8.52815 1.87528 9.56216 1.87528H18.1885C19.2225 1.87528 20.0638 2.71655 20.0638 3.75056V11.8142C20.0637 12.3321 20.4835 12.7518 21.0014 12.7518ZM9.56216 20.2522H9.5631L16.7819 20.2504C16.7814 21.284 15.9404 22.1247 14.9067 22.1247H5.81165C4.77763 22.1247 3.93636 21.2834 3.93636 20.2494V7.49756C3.93636 6.46355 4.77763 5.62228 5.81165 5.62228V16.5017C5.81165 17.5036 6.20188 18.4456 6.91044 19.154C7.61886 19.8623 8.56044 20.2522 9.56216 20.2522Z" fill="#664AFF"/>
</g>
<defs>
<clipPath id="clip0_200_1506">
<rect width="24" height="24" fill="white"/>
</clipPath>
</defs>
</svg>
