<svg width="345" height="50" viewBox="0 0 345 50" fill="none" xmlns="http://www.w3.org/2000/svg">
<rect width="345" height="50" rx="20" fill="#33333F"/>
<rect x="0.35" y="0.35" width="344.3" height="49.3" rx="19.65" stroke="url(#paint0_linear_39_6692)" stroke-opacity="0.15" stroke-width="0.7"/>
<path d="M52.7344 29.8047L58.9062 21.2969V21.2344H52.9219V19.7266H61.0547V20.9219L54.9062 29.4297V29.4844H61.2031V31H52.7344V29.8047ZM62.9844 31V19.7266H64.7344V31H62.9844ZM71.2266 19.7266C72.3203 19.7266 73.2135 20.0703 73.9062 20.7578C74.599 21.4453 74.9453 22.3359 74.9453 23.4297C74.9453 24.5286 74.5938 25.4245 73.8906 26.1172C73.1875 26.8047 72.2812 27.1484 71.1719 27.1484H68.5625V31H66.8125V19.7266H71.2266ZM68.5625 25.6797H70.7656C71.526 25.6797 72.1146 25.4844 72.5312 25.0938C72.9479 24.6979 73.1562 24.1458 73.1562 23.4375C73.1562 22.724 72.9479 22.1745 72.5312 21.7891C72.1146 21.3984 71.526 21.2031 70.7656 21.2031H68.5625V25.6797ZM85.6328 25.4141C85.5495 24.9453 85.3385 24.5703 85 24.2891C84.6354 23.987 84.1719 23.8359 83.6094 23.8359C82.9219 23.8359 82.3724 24.099 81.9609 24.625C81.5443 25.1615 81.3359 25.8724 81.3359 26.7578C81.3359 27.6641 81.5469 28.3802 81.9688 28.9062C82.3802 29.4219 82.9297 29.6797 83.6172 29.6797C84.763 29.6797 85.4401 29.1693 85.6484 28.1484H87.2656C87.1667 29.0391 86.7891 29.7526 86.1328 30.2891C85.4661 30.8307 84.625 31.1016 83.6094 31.1016C82.401 31.1016 81.4349 30.7135 80.7109 29.9375C79.9818 29.151 79.6172 28.0911 79.6172 26.7578C79.6172 25.4401 79.9792 24.3854 80.7031 23.5938C81.4271 22.8021 82.3906 22.4062 83.5938 22.4062C84.6406 22.4062 85.5026 22.7031 86.1797 23.2969C86.8151 23.8542 87.1719 24.5599 87.25 25.4141H85.6328ZM92.1484 31.1016C90.9193 31.1016 89.9427 30.7109 89.2188 29.9297C88.4948 29.1484 88.1328 28.0911 88.1328 26.7578C88.1328 25.4297 88.4974 24.3724 89.2266 23.5859C89.9505 22.7995 90.9245 22.4062 92.1484 22.4062C93.3724 22.4062 94.3464 22.7969 95.0703 23.5781C95.7943 24.3646 96.1562 25.4245 96.1562 26.7578C96.1562 28.0911 95.7943 29.1484 95.0703 29.9297C94.3516 30.7109 93.3776 31.1016 92.1484 31.1016ZM92.1484 29.6953C92.8672 29.6953 93.4297 29.4375 93.8359 28.9219C94.237 28.4062 94.4375 27.6849 94.4375 26.7578C94.4375 25.8307 94.237 25.1094 93.8359 24.5938C93.4297 24.0729 92.8672 23.8125 92.1484 23.8125C91.4297 23.8125 90.8672 24.0729 90.4609 24.5938C90.0547 25.1146 89.8516 25.8359 89.8516 26.7578C89.8516 27.6797 90.0547 28.401 90.4609 28.9219C90.8672 29.4375 91.4297 29.6953 92.1484 29.6953ZM97.5156 22.5156H99.1328V23.9531H99.1641C99.3568 23.4792 99.6693 23.1042 100.102 22.8281C100.529 22.5573 101.021 22.4219 101.578 22.4219C102.802 22.4219 103.594 22.9714 103.953 24.0703H103.992C104.216 23.5599 104.562 23.1562 105.031 22.8594C105.505 22.5677 106.044 22.4219 106.648 22.4219C107.487 22.4219 108.156 22.6771 108.656 23.1875C109.161 23.6927 109.414 24.3698 109.414 25.2188V31H107.727V25.625C107.727 25.0677 107.583 24.638 107.297 24.3359C107.005 24.0286 106.596 23.875 106.07 23.875C105.549 23.875 105.125 24.0495 104.797 24.3984C104.464 24.7474 104.297 25.1927 104.297 25.7344V31H102.633V25.4844C102.633 24.9948 102.487 24.6042 102.195 24.3125C101.898 24.0208 101.503 23.875 101.008 23.875C100.487 23.875 100.057 24.0573 99.7188 24.4219C99.3802 24.7812 99.2109 25.2396 99.2109 25.7969V31H97.5156V22.5156ZM115.484 22.4297C116.568 22.4297 117.435 22.8229 118.086 23.6094C118.742 24.3958 119.07 25.4453 119.07 26.7578C119.07 28.0651 118.745 29.1146 118.094 29.9062C117.448 30.6927 116.591 31.0859 115.523 31.0859C114.263 31.0859 113.367 30.5938 112.836 29.6094H112.805V33.7734H111.109V22.5156H112.742V23.9219H112.781C113.021 23.4635 113.383 23.1016 113.867 22.8359C114.357 22.5651 114.896 22.4297 115.484 22.4297ZM115.055 29.6484C115.742 29.6484 116.294 29.3854 116.711 28.8594C117.128 28.3333 117.336 27.6328 117.336 26.7578C117.336 25.8828 117.128 25.1823 116.711 24.6562C116.294 24.1302 115.742 23.8672 115.055 23.8672C114.383 23.8672 113.839 24.1328 113.422 24.6641C113.005 25.1953 112.794 25.8932 112.789 26.7578C112.794 27.6224 113.005 28.3203 113.422 28.8516C113.833 29.3828 114.378 29.6484 115.055 29.6484ZM120.422 22.5156H122.039V23.9453H122.07C122.201 23.4714 122.451 23.1016 122.82 22.8359C123.185 22.5651 123.617 22.4297 124.117 22.4297C124.352 22.4297 124.539 22.4505 124.68 22.4922V24.0781C124.492 24.0052 124.245 23.9688 123.938 23.9688C123.38 23.9688 122.938 24.1484 122.609 24.5078C122.281 24.862 122.117 25.3385 122.117 25.9375V31H120.422V22.5156ZM128.969 23.7891C128.359 23.7891 127.854 23.9922 127.453 24.3984C127.047 24.8047 126.82 25.3333 126.773 25.9844H131.078C131.057 25.3229 130.854 24.7917 130.469 24.3906C130.083 23.9896 129.583 23.7891 128.969 23.7891ZM132.688 28.5156C132.568 29.276 132.169 29.8984 131.492 30.3828C130.815 30.862 130 31.1016 129.047 31.1016C127.818 31.1016 126.844 30.7135 126.125 29.9375C125.411 29.1667 125.055 28.1172 125.055 26.7891C125.055 25.4609 125.411 24.3984 126.125 23.6016C126.839 22.8047 127.789 22.4062 128.977 22.4062C130.143 22.4062 131.068 22.7839 131.75 23.5391C132.432 24.2891 132.773 25.3073 132.773 26.5938V27.1875H126.766V27.2891C126.766 28.0234 126.977 28.612 127.398 29.0547C127.82 29.5026 128.38 29.7266 129.078 29.7266C129.573 29.7266 130 29.6172 130.359 29.3984C130.719 29.1797 130.956 28.8854 131.07 28.5156H132.688ZM134 24.9297C134 24.1849 134.305 23.5781 134.914 23.1094C135.523 22.6458 136.315 22.4141 137.289 22.4141C138.216 22.4141 138.984 22.651 139.594 23.125C140.198 23.5938 140.51 24.1979 140.531 24.9375H138.938C138.901 24.5625 138.732 24.2656 138.43 24.0469C138.128 23.8281 137.734 23.7188 137.25 23.7188C136.771 23.7188 136.383 23.8203 136.086 24.0234C135.794 24.2318 135.648 24.5026 135.648 24.8359C135.648 25.3464 136.089 25.7083 136.969 25.9219L138.375 26.2578C139.229 26.4661 139.833 26.7422 140.188 27.0859C140.542 27.4297 140.719 27.9141 140.719 28.5391C140.719 29.2943 140.393 29.9115 139.742 30.3906C139.091 30.8646 138.253 31.1016 137.227 31.1016C136.242 31.1016 135.435 30.8672 134.805 30.3984C134.18 29.9349 133.836 29.3177 133.773 28.5469H135.445C135.581 29.3854 136.203 29.8047 137.312 29.8047C137.839 29.8047 138.258 29.7031 138.57 29.5C138.878 29.2969 139.031 29.0234 139.031 28.6797C139.031 28.4089 138.938 28.1953 138.75 28.0391C138.568 27.8828 138.253 27.7474 137.805 27.6328L136.289 27.2578C134.763 26.8828 134 26.1068 134 24.9297ZM141.953 24.9297C141.953 24.1849 142.258 23.5781 142.867 23.1094C143.477 22.6458 144.268 22.4141 145.242 22.4141C146.169 22.4141 146.938 22.651 147.547 23.125C148.151 23.5938 148.464 24.1979 148.484 24.9375H146.891C146.854 24.5625 146.685 24.2656 146.383 24.0469C146.081 23.8281 145.688 23.7188 145.203 23.7188C144.724 23.7188 144.336 23.8203 144.039 24.0234C143.747 24.2318 143.602 24.5026 143.602 24.8359C143.602 25.3464 144.042 25.7083 144.922 25.9219L146.328 26.2578C147.182 26.4661 147.786 26.7422 148.141 27.0859C148.495 27.4297 148.672 27.9141 148.672 28.5391C148.672 29.2943 148.346 29.9115 147.695 30.3906C147.044 30.8646 146.206 31.1016 145.18 31.1016C144.195 31.1016 143.388 30.8672 142.758 30.3984C142.133 29.9349 141.789 29.3177 141.727 28.5469H143.398C143.534 29.3854 144.156 29.8047 145.266 29.8047C145.792 29.8047 146.211 29.7031 146.523 29.5C146.831 29.2969 146.984 29.0234 146.984 28.6797C146.984 28.4089 146.891 28.1953 146.703 28.0391C146.521 27.8828 146.206 27.7474 145.758 27.6328L144.242 27.2578C142.716 26.8828 141.953 26.1068 141.953 24.9297ZM150.109 22.5156H151.805V31H150.109V22.5156ZM150.961 21.3047C150.685 21.3047 150.451 21.2083 150.258 21.0156C150.065 20.8281 149.969 20.599 149.969 20.3281C149.969 20.0521 150.065 19.8203 150.258 19.6328C150.451 19.4453 150.685 19.3516 150.961 19.3516C151.237 19.3516 151.471 19.4453 151.664 19.6328C151.857 19.8203 151.953 20.0521 151.953 20.3281C151.953 20.599 151.857 20.8281 151.664 21.0156C151.471 21.2083 151.237 21.3047 150.961 21.3047ZM157.242 31.1016C156.013 31.1016 155.036 30.7109 154.312 29.9297C153.589 29.1484 153.227 28.0911 153.227 26.7578C153.227 25.4297 153.591 24.3724 154.32 23.5859C155.044 22.7995 156.018 22.4062 157.242 22.4062C158.466 22.4062 159.44 22.7969 160.164 23.5781C160.888 24.3646 161.25 25.4245 161.25 26.7578C161.25 28.0911 160.888 29.1484 160.164 29.9297C159.445 30.7109 158.471 31.1016 157.242 31.1016ZM157.242 29.6953C157.961 29.6953 158.523 29.4375 158.93 28.9219C159.331 28.4062 159.531 27.6849 159.531 26.7578C159.531 25.8307 159.331 25.1094 158.93 24.5938C158.523 24.0729 157.961 23.8125 157.242 23.8125C156.523 23.8125 155.961 24.0729 155.555 24.5938C155.148 25.1146 154.945 25.8359 154.945 26.7578C154.945 27.6797 155.148 28.401 155.555 28.9219C155.961 29.4375 156.523 29.6953 157.242 29.6953ZM162.609 22.5156H164.227V23.9453H164.258C164.784 22.9297 165.703 22.4219 167.016 22.4219C167.953 22.4219 168.693 22.7005 169.234 23.2578C169.771 23.8203 170.039 24.5885 170.039 25.5625V31H168.344V25.8828C168.344 25.237 168.18 24.7422 167.852 24.3984C167.523 24.0495 167.049 23.875 166.43 23.875C165.789 23.875 165.276 24.0781 164.891 24.4844C164.5 24.8958 164.305 25.4349 164.305 26.1016V31H162.609V22.5156Z" fill="white"/>
<defs>
<linearGradient id="paint0_linear_39_6692" x1="-7.00002" y1="-9.589" x2="403.868" y2="179.773" gradientUnits="userSpaceOnUse">
<stop stop-color="white"/>
<stop offset="1" stop-color="white" stop-opacity="0"/>
</linearGradient>
</defs>
</svg>
