<svg width="138" height="189" viewBox="0 0 138 189" fill="none" xmlns="http://www.w3.org/2000/svg">
<rect x="3" width="132" height="132" rx="43.0435" fill="url(#paint0_linear_1_18)"/>
<rect x="3.5" y="0.5" width="131" height="131" rx="42.5435" stroke="url(#paint1_linear_1_18)" stroke-opacity="0.15"/>
<path d="M61.0062 0H76.9938V66.6149C76.9938 71.0298 73.4149 74.6087 69 74.6087V74.6087C64.5852 74.6087 61.0062 71.0298 61.0062 66.6149V0Z" fill="white"/>
<path d="M78.2044 56.0297C77.3362 60.3167 73.5393 63.5542 69 63.5542C64.4607 63.5542 60.6638 60.3167 59.7956 56.0297C57.8424 65.6369 53.0098 81.3281 51.9208 88.7545C50.5525 98.0872 59.5674 105.834 69 105.834C78.4326 105.834 87.4475 98.0872 86.0792 88.7545C84.9902 81.3281 80.1576 65.6369 78.2044 56.0297V56.0297ZM77.385 95.01C75.3704 97.3416 72.1575 98.7902 69 98.7902C65.8426 98.7902 62.6297 97.3415 60.615 95.0098C58.8541 92.9719 58.7048 91.0392 58.8898 89.7766C59.0707 88.5424 59.3951 87.0031 59.8807 85.0701C60.1431 84.0263 61.0816 83.2945 62.1578 83.2945H75.8427C76.9189 83.2945 77.8574 84.0263 78.1197 85.0701C78.6056 87.0038 78.9297 88.543 79.1105 89.7764C79.2954 91.0389 79.1464 92.9718 77.385 95.01Z" fill="white"/>
<path d="M73.99 87.99H64.0097C63.7929 88.9537 63.6364 89.7692 63.5355 90.4574C63.5125 90.6158 63.4414 91.0993 64.1678 91.9397C65.2813 93.2285 67.2231 94.0943 68.9998 94.0943C70.7766 94.0943 72.7184 93.2285 73.8318 91.9397C74.5582 91.0991 74.4873 90.6159 74.4641 90.4571C74.3633 89.7693 74.2066 88.9537 73.99 87.99V87.99Z" fill="white"/>
<rect x="86.2174" y="48.7826" width="11.4783" height="34.4348" rx="5.73913" transform="rotate(90 86.2174 48.7826)" fill="white"/>
<rect x="86.2174" y="8.60872" width="11.4783" height="34.4348" rx="5.73913" transform="rotate(90 86.2174 8.60872)" fill="white"/>
<rect x="86.2174" y="28.6956" width="11.4783" height="34.4348" rx="5.73913" transform="rotate(90 86.2174 28.6956)" fill="white"/>
<mask id="mask0_1_18" style="mask-type:alpha" maskUnits="userSpaceOnUse" x="3" y="0" width="132" height="132">
<rect x="3" width="132" height="132" rx="43.0435" fill="#3B91FC"/>
</mask>
<g mask="url(#mask0_1_18)">
<rect x="-65.9527" y="5.13982" width="184.435" height="184.435" transform="rotate(-25.1088 -65.9527 5.13982)" fill="url(#paint2_radial_1_18)" fill-opacity="0.55"/>
</g>
<path d="M7.30469 184.234C5.28646 184.234 3.69141 183.587 2.51953 182.291C1.34115 180.982 0.751953 179.202 0.751953 176.949C0.751953 174.71 1.3444 172.936 2.5293 171.627C3.70768 170.325 5.29948 169.674 7.30469 169.674C8.94531 169.674 10.3288 170.139 11.4551 171.07C12.5814 172.008 13.2227 173.232 13.3789 174.742H10.8984C10.7357 173.857 10.3223 173.147 9.6582 172.613C9.00065 172.079 8.21615 171.812 7.30469 171.812C6.09375 171.812 5.13021 172.275 4.41406 173.199C3.69141 174.13 3.33008 175.38 3.33008 176.949C3.33008 178.531 3.68815 179.785 4.4043 180.709C5.12044 181.633 6.09049 182.096 7.31445 182.096C8.24544 182.096 9.02995 181.858 9.66797 181.383C10.2995 180.901 10.7129 180.237 10.9082 179.391H13.3789C13.1576 180.901 12.5065 182.086 11.4258 182.945C10.3451 183.805 8.97135 184.234 7.30469 184.234ZM19.7754 184.156C18.1999 184.156 16.9499 183.665 16.0254 182.682C15.1009 181.699 14.6387 180.357 14.6387 178.658C14.6387 176.979 15.1042 175.644 16.0352 174.654C16.9596 173.671 18.2064 173.18 19.7754 173.18C21.3509 173.18 22.6009 173.671 23.5254 174.654C24.4564 175.637 24.9219 176.972 24.9219 178.658C24.9219 180.357 24.4596 181.699 23.5352 182.682C22.6107 183.665 21.3574 184.156 19.7754 184.156ZM19.7754 182.213C20.6152 182.213 21.2728 181.9 21.748 181.275C22.2168 180.657 22.4512 179.788 22.4512 178.668C22.4512 177.555 22.2135 176.686 21.7383 176.061C21.2695 175.436 20.6152 175.123 19.7754 175.123C18.9421 175.123 18.291 175.436 17.8223 176.061C17.347 176.686 17.1094 177.555 17.1094 178.668C17.1094 179.781 17.347 180.65 17.8223 181.275C18.291 181.9 18.9421 182.213 19.7754 182.213ZM26.5527 173.326H28.8867V175.201H28.9355C29.1699 174.583 29.5605 174.094 30.1074 173.736C30.6478 173.378 31.2695 173.199 31.9727 173.199C32.7279 173.199 33.3626 173.382 33.877 173.746C34.3978 174.117 34.7591 174.641 34.9609 175.318H35.0098C35.2702 174.667 35.6999 174.15 36.2988 173.766C36.8913 173.388 37.5716 173.199 38.3398 173.199C39.388 173.199 40.2311 173.521 40.8691 174.166C41.5072 174.811 41.8262 175.667 41.8262 176.734V184H39.3945V177.33C39.3945 176.666 39.2253 176.152 38.8867 175.787C38.5482 175.429 38.0664 175.25 37.4414 175.25C36.8294 175.25 36.3314 175.455 35.9473 175.865C35.5632 176.275 35.3711 176.806 35.3711 177.457V184H33.0078V177.193C33.0078 176.594 32.8353 176.119 32.4902 175.768C32.1452 175.423 31.6764 175.25 31.084 175.25C30.472 175.25 29.9674 175.462 29.5703 175.885C29.1797 176.314 28.9844 176.858 28.9844 177.516V184H26.5527V173.326ZM49.6484 173.209C51.0091 173.209 52.0898 173.701 52.8906 174.684C53.6914 175.667 54.0918 176.995 54.0918 178.668C54.0918 180.335 53.6947 181.66 52.9004 182.643C52.1061 183.626 51.0352 184.117 49.6875 184.117C48.1055 184.117 46.9889 183.489 46.3379 182.232H46.2891V187.428H43.8574V173.326H46.2305V175.123H46.2793C46.5723 174.537 47.0215 174.072 47.627 173.727C48.2324 173.382 48.9062 173.209 49.6484 173.209ZM48.9355 182.096C49.7428 182.096 50.3874 181.786 50.8691 181.168C51.3574 180.543 51.6016 179.71 51.6016 178.668C51.6016 177.626 51.3574 176.793 50.8691 176.168C50.3874 175.543 49.7428 175.23 48.9355 175.23C48.1413 175.23 47.5 175.546 47.0117 176.178C46.5234 176.809 46.2793 177.639 46.2793 178.668C46.2793 179.697 46.5234 180.527 47.0117 181.158C47.5 181.783 48.1413 182.096 48.9355 182.096ZM55.7324 173.326H58.0664V175.182H58.1152C58.2845 174.557 58.597 174.072 59.0527 173.727C59.502 173.382 60.0423 173.209 60.6738 173.209C60.9733 173.209 61.2207 173.242 61.416 173.307V175.523C61.2012 175.426 60.8789 175.377 60.4492 175.377C59.7396 175.377 59.1797 175.595 58.7695 176.031C58.3659 176.461 58.1641 177.053 58.1641 177.809V184H55.7324V173.326ZM66.9434 175.074C66.2337 175.074 65.6413 175.309 65.166 175.777C64.6908 176.253 64.4271 176.871 64.375 177.633H69.4336C69.4076 176.865 69.1667 176.246 68.7109 175.777C68.2552 175.309 67.666 175.074 66.9434 175.074ZM71.7285 180.826C71.5723 181.816 71.0612 182.617 70.1953 183.229C69.3294 183.847 68.2747 184.156 67.0312 184.156C65.4557 184.156 64.209 183.668 63.291 182.691C62.3796 181.715 61.9238 180.387 61.9238 178.707C61.9238 177.027 62.3796 175.686 63.291 174.684C64.196 173.681 65.4134 173.18 66.9434 173.18C68.4408 173.18 69.6289 173.655 70.5078 174.605C71.3867 175.556 71.8262 176.839 71.8262 178.453V179.254H64.3555V179.4C64.3555 180.26 64.6061 180.95 65.1074 181.471C65.6087 181.998 66.2663 182.262 67.0801 182.262C67.666 182.262 68.1706 182.132 68.5938 181.871C69.0169 181.617 69.3001 181.269 69.4434 180.826H71.7285ZM73.2812 176.412C73.2812 175.442 73.6751 174.661 74.4629 174.068C75.2507 173.476 76.2858 173.18 77.5684 173.18C78.7988 173.18 79.8047 173.482 80.5859 174.088C81.3672 174.687 81.7708 175.471 81.7969 176.441H79.5312C79.4922 175.992 79.2936 175.634 78.9355 175.367C78.571 175.107 78.099 174.977 77.5195 174.977C76.9531 174.977 76.5007 175.094 76.1621 175.328C75.8171 175.569 75.6445 175.885 75.6445 176.275C75.6445 176.868 76.1621 177.285 77.1973 177.525L79.0723 177.955C80.1465 178.202 80.9115 178.548 81.3672 178.99C81.8164 179.433 82.041 180.048 82.041 180.836C82.041 181.826 81.6211 182.626 80.7812 183.238C79.9414 183.85 78.8509 184.156 77.5098 184.156C76.2077 184.156 75.1497 183.854 74.3359 183.248C73.5286 182.649 73.0859 181.852 73.0078 180.855H75.4004C75.5501 181.858 76.2858 182.359 77.6074 182.359C78.2259 182.359 78.7174 182.242 79.082 182.008C79.4401 181.78 79.6191 181.467 79.6191 181.07C79.6191 180.758 79.5085 180.51 79.2871 180.328C79.0723 180.139 78.6979 179.983 78.1641 179.859L76.2305 179.391C74.2643 178.928 73.2812 177.936 73.2812 176.412ZM83.4766 176.412C83.4766 175.442 83.8704 174.661 84.6582 174.068C85.446 173.476 86.4811 173.18 87.7637 173.18C88.9941 173.18 90 173.482 90.7812 174.088C91.5625 174.687 91.9661 175.471 91.9922 176.441H89.7266C89.6875 175.992 89.4889 175.634 89.1309 175.367C88.7663 175.107 88.2943 174.977 87.7148 174.977C87.1484 174.977 86.696 175.094 86.3574 175.328C86.0124 175.569 85.8398 175.885 85.8398 176.275C85.8398 176.868 86.3574 177.285 87.3926 177.525L89.2676 177.955C90.3418 178.202 91.1068 178.548 91.5625 178.99C92.0117 179.433 92.2363 180.048 92.2363 180.836C92.2363 181.826 91.8164 182.626 90.9766 183.238C90.1367 183.85 89.0462 184.156 87.7051 184.156C86.403 184.156 85.3451 183.854 84.5312 183.248C83.724 182.649 83.2812 181.852 83.2031 180.855H85.5957C85.7454 181.858 86.4811 182.359 87.8027 182.359C88.4212 182.359 88.9128 182.242 89.2773 182.008C89.6354 181.78 89.8145 181.467 89.8145 181.07C89.8145 180.758 89.7038 180.51 89.4824 180.328C89.2676 180.139 88.8932 179.983 88.3594 179.859L86.4258 179.391C84.4596 178.928 83.4766 177.936 83.4766 176.412ZM93.9258 173.326H96.3574V184H93.9258V173.326ZM95.1367 171.969C94.7591 171.969 94.4368 171.839 94.1699 171.578C93.903 171.318 93.7695 171.002 93.7695 170.631C93.7695 170.253 93.903 169.934 94.1699 169.674C94.4368 169.42 94.7591 169.293 95.1367 169.293C95.5208 169.293 95.8431 169.42 96.1035 169.674C96.3704 169.934 96.5039 170.253 96.5039 170.631C96.5039 171.008 96.3704 171.324 96.1035 171.578C95.8431 171.839 95.5208 171.969 95.1367 171.969ZM98.5059 173.326H100.84V175.182H100.889C101.533 173.86 102.682 173.199 104.336 173.199C105.521 173.199 106.452 173.551 107.129 174.254C107.806 174.957 108.145 175.927 108.145 177.164V184H105.713V177.643C105.713 176.881 105.514 176.292 105.117 175.875C104.72 175.465 104.157 175.26 103.428 175.26C102.679 175.26 102.077 175.501 101.621 175.982C101.165 176.464 100.938 177.096 100.938 177.877V184H98.5059V173.326ZM114.844 181.998C115.658 181.998 116.309 181.695 116.797 181.09C117.285 180.478 117.529 179.661 117.529 178.639C117.529 177.61 117.285 176.786 116.797 176.168C116.302 175.543 115.651 175.23 114.844 175.23C114.043 175.23 113.405 175.54 112.93 176.158C112.448 176.77 112.207 177.597 112.207 178.639C112.207 179.667 112.448 180.484 112.93 181.09C113.405 181.695 114.043 181.998 114.844 181.998ZM114.844 187.867C113.509 187.867 112.409 187.59 111.543 187.037C110.677 186.477 110.199 185.732 110.107 184.801H112.539C112.643 185.185 112.913 185.491 113.35 185.719C113.779 185.94 114.303 186.051 114.922 186.051C115.716 186.051 116.348 185.862 116.816 185.484C117.292 185.1 117.529 184.579 117.529 183.922V182.105H117.471C117.184 182.678 116.748 183.131 116.162 183.463C115.563 183.795 114.883 183.961 114.121 183.961C112.793 183.961 111.729 183.479 110.928 182.516C110.12 181.546 109.717 180.25 109.717 178.629C109.717 176.975 110.12 175.657 110.928 174.674C111.729 173.697 112.809 173.209 114.17 173.209C115.745 173.209 116.865 173.847 117.529 175.123H117.578V173.326H119.961V183.736C119.961 185.006 119.499 186.012 118.574 186.754C117.656 187.496 116.413 187.867 114.844 187.867ZM123.701 184.107C123.304 184.107 122.972 183.971 122.705 183.697C122.432 183.43 122.295 183.098 122.295 182.701C122.295 182.304 122.432 181.972 122.705 181.705C122.972 181.432 123.304 181.295 123.701 181.295C124.092 181.295 124.424 181.432 124.697 181.705C124.964 181.972 125.098 182.304 125.098 182.701C125.098 183.098 124.964 183.43 124.697 183.697C124.424 183.971 124.092 184.107 123.701 184.107ZM129.092 184.107C128.695 184.107 128.363 183.971 128.096 183.697C127.822 183.43 127.686 183.098 127.686 182.701C127.686 182.304 127.822 181.972 128.096 181.705C128.363 181.432 128.695 181.295 129.092 181.295C129.482 181.295 129.814 181.432 130.088 181.705C130.355 181.972 130.488 182.304 130.488 182.701C130.488 183.098 130.355 183.43 130.088 183.697C129.814 183.971 129.482 184.107 129.092 184.107ZM134.482 184.107C134.085 184.107 133.753 183.971 133.486 183.697C133.213 183.43 133.076 183.098 133.076 182.701C133.076 182.304 133.213 181.972 133.486 181.705C133.753 181.432 134.085 181.295 134.482 181.295C134.873 181.295 135.205 181.432 135.479 181.705C135.745 181.972 135.879 182.304 135.879 182.701C135.879 183.098 135.745 183.43 135.479 183.697C135.205 183.971 134.873 184.107 134.482 184.107Z" fill="white"/>
<defs>
<linearGradient id="paint0_linear_1_18" x1="14" y1="7.33334" x2="141.552" y2="101.479" gradientUnits="userSpaceOnUse">
<stop stop-color="#664AFF"/>
<stop offset="1" stop-color="#9380FD"/>
</linearGradient>
<linearGradient id="paint1_linear_1_18" x1="0.321732" y1="-25.315" x2="190.068" y2="-12.6409" gradientUnits="userSpaceOnUse">
<stop stop-color="white"/>
<stop offset="1" stop-color="white" stop-opacity="0"/>
</linearGradient>
<radialGradient id="paint2_radial_1_18" cx="0" cy="0" r="1" gradientUnits="userSpaceOnUse" gradientTransform="translate(0.163062 55.5733) rotate(74.5561) scale(84.0179 70.6341)">
<stop stop-color="#664AFF"/>
<stop offset="1" stop-color="#664AFF" stop-opacity="0.01"/>
</radialGradient>
</defs>
</svg>
