<svg width="279" height="70" viewBox="0 0 279 70" fill="none" xmlns="http://www.w3.org/2000/svg">
<rect width="279" height="70" rx="20" fill="#664AFF"/>
<path d="M100.624 43.2686C98.361 43.2686 96.5742 42.556 95.2637 41.1309C93.946 39.6986 93.2871 37.7363 93.2871 35.2441C93.2871 32.7591 93.9495 30.8005 95.2744 29.3682C96.585 27.943 98.3682 27.2305 100.624 27.2305C102.5 27.2305 104.072 27.7676 105.34 28.8418C106.615 29.9303 107.313 31.3376 107.435 33.0635H104.276C104.126 32.111 103.718 31.3483 103.052 30.7754C102.379 30.2025 101.569 29.916 100.624 29.916C99.3994 29.916 98.4219 30.3923 97.6914 31.3447C96.9609 32.3115 96.5957 33.6077 96.5957 35.2334C96.5957 36.8877 96.9574 38.1911 97.6807 39.1436C98.404 40.1032 99.3887 40.583 100.635 40.583C101.594 40.583 102.4 40.318 103.052 39.7881C103.703 39.2581 104.115 38.5348 104.287 37.6182H107.445C107.266 39.3441 106.561 40.7191 105.329 41.7432C104.097 42.7601 102.529 43.2686 100.624 43.2686ZM114.621 43.2041C112.824 43.2041 111.402 42.6598 110.356 41.5713C109.311 40.4827 108.788 38.986 108.788 37.0811C108.788 35.1976 109.314 33.7044 110.367 32.6016C111.42 31.513 112.838 30.9688 114.621 30.9688C116.411 30.9688 117.829 31.513 118.875 32.6016C119.928 33.6973 120.454 35.1904 120.454 37.0811C120.454 38.9932 119.931 40.4935 118.886 41.582C117.847 42.6634 116.426 43.2041 114.621 43.2041ZM114.621 40.7871C115.452 40.7871 116.1 40.4648 116.565 39.8203C117.031 39.1686 117.264 38.2555 117.264 37.0811C117.264 35.9209 117.027 35.0114 116.555 34.3525C116.089 33.7008 115.445 33.375 114.621 33.375C113.79 33.375 113.142 33.7008 112.677 34.3525C112.204 35.0114 111.968 35.9209 111.968 37.0811C111.968 38.2555 112.204 39.1686 112.677 39.8203C113.142 40.4648 113.79 40.7871 114.621 40.7871ZM122.141 31.1729H125.17V33.2891H125.234C125.929 31.7637 127.197 31.001 129.037 31.001C130.348 31.001 131.379 31.3913 132.131 32.1719C132.876 32.9525 133.248 34.0339 133.248 35.416V43H130.111V36.0713C130.111 35.2835 129.911 34.6784 129.51 34.2559C129.102 33.8262 128.529 33.6113 127.791 33.6113C127.039 33.6113 126.434 33.8548 125.976 34.3418C125.51 34.8288 125.277 35.4661 125.277 36.2539V43H122.141V31.1729ZM139.307 28.541V31.1729H141.498V33.5469H139.307V39.2939C139.307 40.1963 139.776 40.6475 140.714 40.6475C141.022 40.6475 141.283 40.6296 141.498 40.5938V42.9141C141.068 43 140.563 43.043 139.983 43.043C138.616 43.043 137.638 42.7923 137.051 42.291C136.464 41.7897 136.17 40.9626 136.17 39.8096V33.5469H134.569V31.1729H136.17V28.541H139.307ZM143.356 31.1729H146.493V43H143.356V31.1729ZM144.925 29.8838C144.459 29.8838 144.062 29.7262 143.732 29.4111C143.403 29.096 143.238 28.7057 143.238 28.2402C143.238 27.7747 143.403 27.3844 143.732 27.0693C144.062 26.7614 144.459 26.6074 144.925 26.6074C145.397 26.6074 145.799 26.7614 146.128 27.0693C146.457 27.3844 146.622 27.7747 146.622 28.2402C146.622 28.7057 146.457 29.096 146.128 29.4111C145.799 29.7262 145.397 29.8838 144.925 29.8838ZM148.674 31.1729H151.703V33.2891H151.768C152.462 31.7637 153.73 31.001 155.57 31.001C156.881 31.001 157.912 31.3913 158.664 32.1719C159.409 32.9525 159.781 34.0339 159.781 35.416V43H156.645V36.0713C156.645 35.2835 156.444 34.6784 156.043 34.2559C155.635 33.8262 155.062 33.6113 154.324 33.6113C153.572 33.6113 152.967 33.8548 152.509 34.3418C152.043 34.8288 151.811 35.4661 151.811 36.2539V43H148.674V31.1729ZM172.919 43H169.89V40.8623H169.825C169.202 42.402 167.963 43.1719 166.108 43.1719C164.812 43.1719 163.777 42.778 163.004 41.9902C162.209 41.1953 161.812 40.1175 161.812 38.7568V31.1729H164.948V38.1016C164.948 38.8893 165.16 39.498 165.582 39.9277C165.99 40.3503 166.563 40.5615 167.301 40.5615C168.038 40.5615 168.636 40.318 169.095 39.8311C169.553 39.3441 169.782 38.7031 169.782 37.9082V31.1729H172.919V43ZM180.331 33.3105C179.615 33.3105 179.017 33.5469 178.537 34.0195C178.064 34.4922 177.799 35.1081 177.742 35.8672H182.845C182.816 35.0938 182.573 34.4743 182.114 34.0088C181.656 33.5433 181.062 33.3105 180.331 33.3105ZM185.777 39.3906C185.605 40.5365 185.029 41.4567 184.048 42.1514C183.067 42.8532 181.856 43.2041 180.417 43.2041C178.619 43.2041 177.201 42.6634 176.163 41.582C175.132 40.5007 174.616 39.0182 174.616 37.1348C174.616 35.2513 175.128 33.7546 176.152 32.6445C177.184 31.5273 178.566 30.9688 180.299 30.9688C182.003 30.9688 183.357 31.4987 184.359 32.5586C185.369 33.6185 185.874 35.0472 185.874 36.8447V37.8115H177.71V38.0049C177.71 38.8571 177.964 39.5482 178.473 40.0781C178.981 40.6009 179.647 40.8623 180.471 40.8623C181.065 40.8623 181.577 40.7298 182.007 40.4648C182.444 40.207 182.737 39.849 182.888 39.3906H185.777Z" fill="white"/>
<rect x="0.5" y="0.5" width="278" height="69" rx="19.5" stroke="url(#paint0_linear_26_519)" stroke-opacity="0.15"/>
<defs>
<linearGradient id="paint0_linear_26_519" x1="-5.66089" y1="-13.4246" x2="370.522" y2="86.7244" gradientUnits="userSpaceOnUse">
<stop stop-color="white"/>
<stop offset="1" stop-color="white" stop-opacity="0"/>
</linearGradient>
</defs>
</svg>
