<svg width="345" height="50" viewBox="0 0 345 50" fill="none" xmlns="http://www.w3.org/2000/svg">
<rect width="345" height="50" rx="20" fill="#33333F"/>
<rect width="345" height="50" rx="20" fill="#664AFF"/>
<rect x="0.35" y="0.35" width="344.3" height="49.3" rx="19.65" stroke="url(#paint0_linear_26_816)" stroke-opacity="0.15" stroke-width="0.7"/>
<g opacity="0.35" clip-path="url(#clip0_26_816)">
<g clip-path="url(#clip1_26_816)">
<path d="M36.1099 22.6173H31.7533L29.3094 17.0214C29.1735 16.7101 28.8108 16.5678 28.4994 16.7038C28.188 16.8398 28.0458 17.2025 28.1818 17.5139L30.4106 22.6173H22.5894L24.8182 17.5139C24.9542 17.2025 24.812 16.8398 24.5006 16.7038C24.1893 16.5678 23.8265 16.71 23.6906 17.0214L21.2467 22.6173H16.8901C16.3202 22.6173 15.8972 23.1332 16.0219 23.6763L18.3161 33.669C18.4072 34.0657 18.7679 34.3478 19.1843 34.3478H33.8157C34.2321 34.3478 34.5928 34.0657 34.6839 33.669L36.9781 23.6763C37.1028 23.1333 36.6798 22.6173 36.1099 22.6173ZM21.3625 24.5042C21.2803 24.5042 21.1967 24.4876 21.1166 24.4526C20.8052 24.3166 20.663 23.954 20.799 23.6425L21.2611 22.5842H22.6038L21.9266 24.135C21.8256 24.3662 21.5996 24.5042 21.3625 24.5042ZM23.4238 31.0665C23.4238 31.4063 23.1484 31.6818 22.8086 31.6818C22.4688 31.6818 22.1934 31.4063 22.1934 31.0665V26.5548C22.1934 26.215 22.4688 25.9396 22.8086 25.9396C23.1484 25.9396 23.4238 26.215 23.4238 26.5548V31.0665ZM27.1153 31.0665C27.1153 31.4063 26.8398 31.6818 26.5 31.6818C26.1602 31.6818 25.8848 31.4063 25.8848 31.0665V26.5548C25.8848 26.215 26.1602 25.9396 26.5 25.9396C26.8398 25.9396 27.1153 26.215 27.1153 26.5548V31.0665ZM30.8067 31.0665C30.8067 31.4063 30.5312 31.6818 30.1914 31.6818C29.8517 31.6818 29.5762 31.4063 29.5762 31.0665V26.5548C29.5762 26.215 29.8517 25.9396 30.1914 25.9396C30.5312 25.9396 30.8067 26.215 30.8067 26.5548V31.0665ZM31.8834 24.4526C31.8033 24.4876 31.7198 24.5042 31.6376 24.5042C31.4004 24.5042 31.1744 24.3663 31.0734 24.135L30.3962 22.5843H31.7389L32.201 23.6426C32.337 23.954 32.1948 24.3166 31.8834 24.4526Z" fill="white"/>
</g>
</g>
<path d="M54.2578 27.8594C54.3203 28.4167 54.599 28.8646 55.0938 29.2031C55.5885 29.5417 56.2083 29.7109 56.9531 29.7109C57.6615 29.7109 58.2474 29.5469 58.7109 29.2188C59.1693 28.8906 59.3984 28.474 59.3984 27.9688C59.3984 27.5312 59.2344 27.1745 58.9062 26.8984C58.5781 26.6172 58.0495 26.388 57.3203 26.2109L55.8594 25.8594C53.8385 25.3698 52.8281 24.3568 52.8281 22.8203C52.8281 21.8516 53.2109 21.0625 53.9766 20.4531C54.737 19.8438 55.7214 19.5391 56.9297 19.5391C58.1172 19.5391 59.0859 19.8438 59.8359 20.4531C60.5859 21.0573 60.974 21.8464 61 22.8203H59.2969C59.2448 22.263 59.0026 21.8203 58.5703 21.4922C58.1432 21.1745 57.5885 21.0156 56.9062 21.0156C56.2292 21.0156 55.6771 21.1719 55.25 21.4844C54.8281 21.7969 54.6172 22.2031 54.6172 22.7031C54.6172 23.099 54.776 23.4245 55.0938 23.6797C55.4115 23.9297 55.9349 24.1458 56.6641 24.3281L57.9062 24.6328C59.0625 24.9036 59.8984 25.2865 60.4141 25.7812C60.9245 26.2708 61.1797 26.9297 61.1797 27.7578C61.1797 28.8099 60.7891 29.6458 60.0078 30.2656C59.2266 30.8802 58.1667 31.1875 56.8281 31.1875C55.5729 31.1875 54.5573 30.888 53.7812 30.2891C53 29.6849 52.5833 28.875 52.5312 27.8594H54.2578ZM69.9688 31H68.3516V29.5469H68.3203C67.8151 30.5781 66.901 31.0938 65.5781 31.0938C64.651 31.0938 63.9141 30.8125 63.3672 30.25C62.8151 29.6875 62.5391 28.9219 62.5391 27.9531V22.5156H64.2344V27.6328C64.2344 28.2839 64.401 28.7812 64.7344 29.125C65.0677 29.4635 65.5417 29.6328 66.1562 29.6328C66.7917 29.6328 67.3021 29.4297 67.6875 29.0234C68.0781 28.6172 68.2734 28.0781 68.2734 27.4062V22.5156H69.9688V31ZM76.1719 31.0859C74.901 31.0859 73.9922 30.5781 73.4453 29.5625H73.4062V31H71.7734V19.2188H73.4688V23.9219H73.5C74.0365 22.9271 74.9323 22.4297 76.1875 22.4297C77.2604 22.4297 78.1198 22.8229 78.7656 23.6094C79.4115 24.3958 79.7344 25.4453 79.7344 26.7578C79.7344 28.0703 79.4115 29.1198 78.7656 29.9062C78.1146 30.6927 77.25 31.0859 76.1719 31.0859ZM75.7422 23.8672C75.0599 23.8672 74.5078 24.1328 74.0859 24.6641C73.6693 25.2005 73.4609 25.8984 73.4609 26.7578C73.4609 27.6224 73.6693 28.3203 74.0859 28.8516C74.5078 29.3828 75.0599 29.6484 75.7422 29.6484C76.4245 29.6484 76.9714 29.3854 77.3828 28.8594C77.7943 28.3385 78 27.638 78 26.7578C78 25.8776 77.7943 25.1771 77.3828 24.6562C76.9714 24.1302 76.4245 23.8672 75.7422 23.8672ZM80.9531 24.9297C80.9531 24.1849 81.2578 23.5781 81.8672 23.1094C82.4766 22.6458 83.2682 22.4141 84.2422 22.4141C85.1693 22.4141 85.9375 22.651 86.5469 23.125C87.151 23.5938 87.4635 24.1979 87.4844 24.9375H85.8906C85.8542 24.5625 85.6849 24.2656 85.3828 24.0469C85.0807 23.8281 84.6875 23.7188 84.2031 23.7188C83.724 23.7188 83.3359 23.8203 83.0391 24.0234C82.7474 24.2318 82.6016 24.5026 82.6016 24.8359C82.6016 25.3464 83.0417 25.7083 83.9219 25.9219L85.3281 26.2578C86.1823 26.4661 86.7865 26.7422 87.1406 27.0859C87.4948 27.4297 87.6719 27.9141 87.6719 28.5391C87.6719 29.2943 87.3464 29.9115 86.6953 30.3906C86.0443 30.8646 85.2057 31.1016 84.1797 31.1016C83.1953 31.1016 82.388 30.8672 81.7578 30.3984C81.1328 29.9349 80.7891 29.3177 80.7266 28.5469H82.3984C82.5339 29.3854 83.1562 29.8047 84.2656 29.8047C84.7917 29.8047 85.2109 29.7031 85.5234 29.5C85.8307 29.2969 85.9844 29.0234 85.9844 28.6797C85.9844 28.4089 85.8906 28.1953 85.7031 28.0391C85.5208 27.8828 85.2057 27.7474 84.7578 27.6328L83.2422 27.2578C81.7161 26.8828 80.9531 26.1068 80.9531 24.9297ZM94.6797 25.4141C94.5964 24.9453 94.3854 24.5703 94.0469 24.2891C93.6823 23.987 93.2188 23.8359 92.6562 23.8359C91.9688 23.8359 91.4193 24.099 91.0078 24.625C90.5911 25.1615 90.3828 25.8724 90.3828 26.7578C90.3828 27.6641 90.5938 28.3802 91.0156 28.9062C91.4271 29.4219 91.9766 29.6797 92.6641 29.6797C93.8099 29.6797 94.487 29.1693 94.6953 28.1484H96.3125C96.2135 29.0391 95.8359 29.7526 95.1797 30.2891C94.513 30.8307 93.6719 31.1016 92.6562 31.1016C91.4479 31.1016 90.4818 30.7135 89.7578 29.9375C89.0286 29.151 88.6641 28.0911 88.6641 26.7578C88.6641 25.4401 89.026 24.3854 89.75 23.5938C90.474 22.8021 91.4375 22.4062 92.6406 22.4062C93.6875 22.4062 94.5495 22.7031 95.2266 23.2969C95.862 23.8542 96.2188 24.5599 96.2969 25.4141H94.6797ZM97.5625 22.5156H99.1797V23.9453H99.2109C99.3411 23.4714 99.5911 23.1016 99.9609 22.8359C100.326 22.5651 100.758 22.4297 101.258 22.4297C101.492 22.4297 101.68 22.4505 101.82 22.4922V24.0781C101.633 24.0052 101.385 23.9688 101.078 23.9688C100.521 23.9688 100.078 24.1484 99.75 24.5078C99.4219 24.862 99.2578 25.3385 99.2578 25.9375V31H97.5625V22.5156ZM103 22.5156H104.695V31H103V22.5156ZM103.852 21.3047C103.576 21.3047 103.341 21.2083 103.148 21.0156C102.956 20.8281 102.859 20.599 102.859 20.3281C102.859 20.0521 102.956 19.8203 103.148 19.6328C103.341 19.4453 103.576 19.3516 103.852 19.3516C104.128 19.3516 104.362 19.4453 104.555 19.6328C104.747 19.8203 104.844 20.0521 104.844 20.3281C104.844 20.599 104.747 20.8281 104.555 21.0156C104.362 21.2083 104.128 21.3047 103.852 21.3047ZM110.969 31.0859C109.698 31.0859 108.789 30.5781 108.242 29.5625H108.203V31H106.57V19.2188H108.266V23.9219H108.297C108.833 22.9271 109.729 22.4297 110.984 22.4297C112.057 22.4297 112.917 22.8229 113.562 23.6094C114.208 24.3958 114.531 25.4453 114.531 26.7578C114.531 28.0703 114.208 29.1198 113.562 29.9062C112.911 30.6927 112.047 31.0859 110.969 31.0859ZM110.539 23.8672C109.857 23.8672 109.305 24.1328 108.883 24.6641C108.466 25.2005 108.258 25.8984 108.258 26.7578C108.258 27.6224 108.466 28.3203 108.883 28.8516C109.305 29.3828 109.857 29.6484 110.539 29.6484C111.221 29.6484 111.768 29.3854 112.18 28.8594C112.591 28.3385 112.797 27.638 112.797 26.7578C112.797 25.8776 112.591 25.1771 112.18 24.6562C111.768 24.1302 111.221 23.8672 110.539 23.8672ZM119.422 23.7891C118.812 23.7891 118.307 23.9922 117.906 24.3984C117.5 24.8047 117.273 25.3333 117.227 25.9844H121.531C121.51 25.3229 121.307 24.7917 120.922 24.3906C120.536 23.9896 120.036 23.7891 119.422 23.7891ZM123.141 28.5156C123.021 29.276 122.622 29.8984 121.945 30.3828C121.268 30.862 120.453 31.1016 119.5 31.1016C118.271 31.1016 117.297 30.7135 116.578 29.9375C115.865 29.1667 115.508 28.1172 115.508 26.7891C115.508 25.4609 115.865 24.3984 116.578 23.6016C117.292 22.8047 118.242 22.4062 119.43 22.4062C120.596 22.4062 121.521 22.7839 122.203 23.5391C122.885 24.2891 123.227 25.3073 123.227 26.5938V27.1875H117.219V27.2891C117.219 28.0234 117.43 28.612 117.852 29.0547C118.273 29.5026 118.833 29.7266 119.531 29.7266C120.026 29.7266 120.453 29.6172 120.812 29.3984C121.172 29.1797 121.409 28.8854 121.523 28.5156H123.141Z" fill="white"/>
<defs>
<linearGradient id="paint0_linear_26_816" x1="-7.00002" y1="-9.589" x2="403.868" y2="179.773" gradientUnits="userSpaceOnUse">
<stop stop-color="white"/>
<stop offset="1" stop-color="white" stop-opacity="0"/>
</linearGradient>
<clipPath id="clip0_26_816">
<rect width="21" height="21" fill="white" transform="translate(16 15)"/>
</clipPath>
<clipPath id="clip1_26_816">
<rect width="21" height="21" fill="white" transform="translate(16 15)"/>
</clipPath>
</defs>
</svg>
