<svg width="19" height="20" viewBox="0 0 19 20" fill="none" xmlns="http://www.w3.org/2000/svg">
<path d="M7.70833 7.70825C7.28206 7.70825 6.9375 8.05281 6.9375 8.47908V14.6458C6.9375 15.072 7.28206 15.4166 7.70833 15.4166C8.1346 15.4166 8.47917 15.072 8.47917 14.6458V8.47908C8.47917 8.05281 8.1346 7.70825 7.70833 7.70825Z" fill="white"/>
<path d="M10.7916 7.70825C10.3653 7.70825 10.0208 8.05281 10.0208 8.47908V14.6458C10.0208 15.072 10.3653 15.4166 10.7916 15.4166C11.2179 15.4166 11.5624 15.072 11.5624 14.6458V8.47908C11.5624 8.05281 11.2179 7.70825 10.7916 7.70825Z" fill="white"/>
<path d="M11.5625 -4.1008e-05H6.9375C6.08727 -4.1008e-05 5.39583 0.691396 5.39583 1.54163V3.08329H3.08333H0.770833C0.344563 3.08329 0 3.42785 0 3.85413C0 4.2804 0.344563 4.62496 0.770833 4.62496H2.3125V17.7291C2.3125 19.0041 3.35004 20.0416 4.625 20.0416H13.875C15.15 20.0416 16.1875 19.0041 16.1875 17.7291V4.62496H17.7292C18.1554 4.62496 18.5 4.2804 18.5 3.85413C18.5 3.42785 18.1554 3.08329 17.7292 3.08329H15.4167H13.1042V1.54163C13.1042 0.691396 12.4127 -4.1008e-05 11.5625 -4.1008e-05ZM14.6458 17.7291C14.6458 18.1546 14.3005 18.5 13.875 18.5H4.625C4.1995 18.5 3.85417 18.1546 3.85417 17.7291V4.62496H14.6458V17.7291ZM6.9375 3.08329V1.54163H11.5625V3.08329H6.9375Z" fill="white"/>
</svg>
