<svg width="345" height="50" viewBox="0 0 345 50" fill="none" xmlns="http://www.w3.org/2000/svg">
<rect width="345" height="50" rx="20" fill="#33333F"/>
<rect x="0.35" y="0.35" width="344.3" height="49.3" rx="19.65" stroke="url(#paint0_linear_28_1568)" stroke-opacity="0.15" stroke-width="0.7"/>
<g opacity="0.35">
<path fill-rule="evenodd" clip-rule="evenodd" d="M21 18.125C20.2817 18.125 19.5928 18.4103 19.0849 18.9182C18.577 19.4261 18.2917 20.115 18.2917 20.8333V29.1667C18.2917 29.8849 18.577 30.5737 19.0849 31.0817C19.5928 31.5897 20.2817 31.875 21 31.875H24.8167C25.1618 31.875 25.4417 32.1548 25.4417 32.5C25.4417 32.8452 25.1618 33.125 24.8167 33.125H21C19.9501 33.125 18.9433 32.7079 18.201 31.9656C17.4587 31.2232 17.0417 30.2165 17.0417 29.1667V20.8333C17.0417 19.7835 17.4587 18.7767 18.201 18.0343C18.9434 17.292 19.9502 16.875 21 16.875C21.3452 16.875 21.625 17.1548 21.625 17.5C21.625 17.8452 21.3452 18.125 21 18.125Z" fill="white"/>
<path fill-rule="evenodd" clip-rule="evenodd" d="M31 26.0417C31.3452 26.0417 31.625 26.3215 31.625 26.6667V33.3333C31.625 33.6785 31.3452 33.9583 31 33.9583C30.6548 33.9583 30.375 33.6785 30.375 33.3333V26.6667C30.375 26.3215 30.6548 26.0417 31 26.0417Z" fill="white"/>
<path fill-rule="evenodd" clip-rule="evenodd" d="M27.0417 30C27.0417 29.6548 27.3215 29.375 27.6667 29.375H34.3333C34.6785 29.375 34.9583 29.6548 34.9583 30C34.9583 30.3452 34.6785 30.625 34.3333 30.625H27.6667C27.3215 30.625 27.0417 30.3452 27.0417 30Z" fill="white"/>
<path fill-rule="evenodd" clip-rule="evenodd" d="M20.375 17.5C20.375 17.1548 20.6548 16.875 21 16.875H22.6704C23.3612 16.8792 24.0389 17.064 24.6361 17.4112C25.2324 17.758 25.7278 18.2545 26.0732 18.8517C26.3157 19.2627 26.6606 19.6037 27.0744 19.8415C27.4885 20.0795 27.9572 20.2059 28.4348 20.2083H31C32.0497 20.2083 33.0566 20.6253 33.799 21.3677C34.5413 22.11 34.9583 23.1169 34.9583 24.1667C34.9583 24.5118 34.6785 24.7917 34.3333 24.7917C33.9882 24.7917 33.7083 24.5118 33.7083 24.1667C33.7083 23.4483 33.423 22.7594 32.9151 22.2515C32.4072 21.7436 31.7183 21.4583 31 21.4583H28.4305C27.7358 21.4552 27.0538 21.2714 26.4515 20.9253C25.8492 20.5791 25.3472 20.0824 24.9948 19.4838L24.9921 19.4792C24.7557 19.0698 24.4164 18.7294 24.0078 18.4919C23.5997 18.2546 23.1367 18.1282 22.6647 18.125H21C20.6548 18.125 20.375 17.8452 20.375 17.5Z" fill="white"/>
</g>
<path d="M53.0312 31V19.7266H54.6172L60.4609 28.0391H60.5234V19.7266H62.2266V31H60.6484L54.8047 22.6953H54.7344V31H53.0312ZM67.6719 23.7891C67.0625 23.7891 66.5573 23.9922 66.1562 24.3984C65.75 24.8047 65.5234 25.3333 65.4766 25.9844H69.7812C69.7604 25.3229 69.5573 24.7917 69.1719 24.3906C68.7865 23.9896 68.2865 23.7891 67.6719 23.7891ZM71.3906 28.5156C71.2708 29.276 70.8724 29.8984 70.1953 30.3828C69.5182 30.862 68.7031 31.1016 67.75 31.1016C66.5208 31.1016 65.5469 30.7135 64.8281 29.9375C64.1146 29.1667 63.7578 28.1172 63.7578 26.7891C63.7578 25.4609 64.1146 24.3984 64.8281 23.6016C65.5417 22.8047 66.4922 22.4062 67.6797 22.4062C68.8464 22.4062 69.7708 22.7839 70.4531 23.5391C71.1354 24.2891 71.4766 25.3073 71.4766 26.5938V27.1875H65.4688V27.2891C65.4688 28.0234 65.6797 28.612 66.1016 29.0547C66.5234 29.5026 67.0833 29.7266 67.7812 29.7266C68.276 29.7266 68.7031 29.6172 69.0625 29.3984C69.4219 29.1797 69.6589 28.8854 69.7734 28.5156H71.3906ZM81.6484 31H79.8984L78.0938 24.6094H78.0547L76.2656 31H74.5234L72.1797 22.5156H73.8672L75.4453 29.2344H75.4766L77.2734 22.5156H78.8984L80.7031 29.2344H80.7344L82.3125 22.5156H83.9844L81.6484 31ZM89.2578 23.8516H88.0859V22.5156H89.2578V21.7344C89.2578 20.9375 89.4505 20.3594 89.8359 20C90.2214 19.6354 90.8411 19.4531 91.6953 19.4531C91.9661 19.4531 92.2526 19.4792 92.5547 19.5312V20.8203C92.3724 20.7786 92.1615 20.7578 91.9219 20.7578C91.5729 20.7578 91.3229 20.8385 91.1719 21C91.0156 21.1615 90.9349 21.4245 90.9297 21.7891V22.5156H92.5625V23.8516H90.9453V31H89.2578V23.8516ZM97.2578 31.1016C96.0286 31.1016 95.0521 30.7109 94.3281 29.9297C93.6042 29.1484 93.2422 28.0911 93.2422 26.7578C93.2422 25.4297 93.6068 24.3724 94.3359 23.5859C95.0599 22.7995 96.0339 22.4062 97.2578 22.4062C98.4818 22.4062 99.4557 22.7969 100.18 23.5781C100.904 24.3646 101.266 25.4245 101.266 26.7578C101.266 28.0911 100.904 29.1484 100.18 29.9297C99.4609 30.7109 98.487 31.1016 97.2578 31.1016ZM97.2578 29.6953C97.9766 29.6953 98.5391 29.4375 98.9453 28.9219C99.3464 28.4062 99.5469 27.6849 99.5469 26.7578C99.5469 25.8307 99.3464 25.1094 98.9453 24.5938C98.5391 24.0729 97.9766 23.8125 97.2578 23.8125C96.5391 23.8125 95.9766 24.0729 95.5703 24.5938C95.1641 25.1146 94.9609 25.8359 94.9609 26.7578C94.9609 27.6797 95.1641 28.401 95.5703 28.9219C95.9766 29.4375 96.5391 29.6953 97.2578 29.6953ZM102.695 19.2188H104.391V31H102.695V19.2188ZM109.398 31.0859C108.331 31.0859 107.469 30.6901 106.812 29.8984C106.151 29.1068 105.82 28.0573 105.82 26.75C105.82 25.4531 106.151 24.4062 106.812 23.6094C107.469 22.8229 108.326 22.4297 109.383 22.4297C110.648 22.4297 111.539 22.9271 112.055 23.9219H112.094V19.2188H113.781V31H112.141V29.5625H112.109C111.583 30.5781 110.68 31.0859 109.398 31.0859ZM109.828 23.8672C109.146 23.8672 108.596 24.1302 108.18 24.6562C107.763 25.1823 107.555 25.8828 107.555 26.7578C107.555 27.638 107.763 28.3385 108.18 28.8594C108.591 29.3854 109.141 29.6484 109.828 29.6484C110.51 29.6484 111.06 29.3828 111.477 28.8516C111.893 28.3203 112.102 27.6224 112.102 26.7578C112.102 25.8932 111.893 25.1953 111.477 24.6641C111.055 24.1328 110.505 23.8672 109.828 23.8672ZM119.109 23.7891C118.5 23.7891 117.995 23.9922 117.594 24.3984C117.188 24.8047 116.961 25.3333 116.914 25.9844H121.219C121.198 25.3229 120.995 24.7917 120.609 24.3906C120.224 23.9896 119.724 23.7891 119.109 23.7891ZM122.828 28.5156C122.708 29.276 122.31 29.8984 121.633 30.3828C120.956 30.862 120.141 31.1016 119.188 31.1016C117.958 31.1016 116.984 30.7135 116.266 29.9375C115.552 29.1667 115.195 28.1172 115.195 26.7891C115.195 25.4609 115.552 24.3984 116.266 23.6016C116.979 22.8047 117.93 22.4062 119.117 22.4062C120.284 22.4062 121.208 22.7839 121.891 23.5391C122.573 24.2891 122.914 25.3073 122.914 26.5938V27.1875H116.906V27.2891C116.906 28.0234 117.117 28.612 117.539 29.0547C117.961 29.5026 118.521 29.7266 119.219 29.7266C119.714 29.7266 120.141 29.6172 120.5 29.3984C120.859 29.1797 121.096 28.8854 121.211 28.5156H122.828ZM124.281 22.5156H125.898V23.9453H125.93C126.06 23.4714 126.31 23.1016 126.68 22.8359C127.044 22.5651 127.477 22.4297 127.977 22.4297C128.211 22.4297 128.398 22.4505 128.539 22.4922V24.0781C128.352 24.0052 128.104 23.9688 127.797 23.9688C127.24 23.9688 126.797 24.1484 126.469 24.5078C126.141 24.862 125.977 25.3385 125.977 25.9375V31H124.281V22.5156Z" fill="white"/>
<defs>
<linearGradient id="paint0_linear_28_1568" x1="-7.00002" y1="-9.589" x2="403.868" y2="179.773" gradientUnits="userSpaceOnUse">
<stop stop-color="white"/>
<stop offset="1" stop-color="white" stop-opacity="0"/>
</linearGradient>
</defs>
</svg>
