<svg width="345" height="50" viewBox="0 0 345 50" fill="none" xmlns="http://www.w3.org/2000/svg">
<rect width="345" height="50" rx="20" fill="#33333F"/>
<rect x="0.35" y="0.35" width="344.3" height="49.3" rx="19.65" stroke="url(#paint0_linear_1_57)" stroke-opacity="0.15" stroke-width="0.7"/>
<path d="M52.2614 32H50.3977L54.5852 20.3636H56.6136L60.8011 32H58.9375L55.6477 22.4773H55.5568L52.2614 32ZM52.5739 27.4432H58.6193V28.9205H52.5739V27.4432ZM65.4716 32.1705C64.767 32.1705 64.1383 31.9905 63.5852 31.6307C63.036 31.267 62.6042 30.75 62.2898 30.0795C61.9792 29.4053 61.8239 28.5966 61.8239 27.6534C61.8239 26.7102 61.9811 25.9034 62.2955 25.233C62.6136 24.5625 63.0492 24.0492 63.6023 23.6932C64.1553 23.3371 64.7822 23.1591 65.483 23.1591C66.0246 23.1591 66.4602 23.25 66.7898 23.4318C67.1231 23.6098 67.3807 23.8182 67.5625 24.0568C67.7481 24.2955 67.892 24.5057 67.9943 24.6875H68.0966V20.3636H69.7955V32H68.1364V30.642H67.9943C67.892 30.8277 67.7443 31.0398 67.5511 31.2784C67.3617 31.517 67.1004 31.7254 66.767 31.9034C66.4337 32.0814 66.0019 32.1705 65.4716 32.1705ZM65.8466 30.7216C66.3352 30.7216 66.7481 30.5928 67.0852 30.3352C67.4261 30.0739 67.6837 29.7121 67.858 29.25C68.036 28.7879 68.125 28.25 68.125 27.6364C68.125 27.0303 68.0379 26.5 67.8636 26.0455C67.6894 25.5909 67.4337 25.2367 67.0966 24.983C66.7595 24.7292 66.3428 24.6023 65.8466 24.6023C65.3352 24.6023 64.9091 24.7348 64.5682 25C64.2273 25.2652 63.9697 25.6269 63.7955 26.0852C63.625 26.5436 63.5398 27.0606 63.5398 27.6364C63.5398 28.2197 63.6269 28.7443 63.8011 29.2102C63.9754 29.6761 64.233 30.0455 64.5739 30.3182C64.9186 30.5871 65.3428 30.7216 65.8466 30.7216ZM75.4872 32.1705C74.7827 32.1705 74.1539 31.9905 73.6009 31.6307C73.0516 31.267 72.6198 30.75 72.3054 30.0795C71.9948 29.4053 71.8395 28.5966 71.8395 27.6534C71.8395 26.7102 71.9967 25.9034 72.3111 25.233C72.6293 24.5625 73.0649 24.0492 73.6179 23.6932C74.1709 23.3371 74.7978 23.1591 75.4986 23.1591C76.0402 23.1591 76.4759 23.25 76.8054 23.4318C77.1387 23.6098 77.3963 23.8182 77.5781 24.0568C77.7637 24.2955 77.9077 24.5057 78.0099 24.6875H78.1122V20.3636H79.8111V32H78.152V30.642H78.0099C77.9077 30.8277 77.7599 31.0398 77.5668 31.2784C77.3774 31.517 77.116 31.7254 76.7827 31.9034C76.4493 32.0814 76.0175 32.1705 75.4872 32.1705ZM75.8622 30.7216C76.3509 30.7216 76.7637 30.5928 77.1009 30.3352C77.4418 30.0739 77.6993 29.7121 77.8736 29.25C78.0516 28.7879 78.1406 28.25 78.1406 27.6364C78.1406 27.0303 78.0535 26.5 77.8793 26.0455C77.705 25.5909 77.4493 25.2367 77.1122 24.983C76.7751 24.7292 76.3584 24.6023 75.8622 24.6023C75.3509 24.6023 74.9247 24.7348 74.5838 25C74.2429 25.2652 73.9853 25.6269 73.8111 26.0852C73.6406 26.5436 73.5554 27.0606 73.5554 27.6364C73.5554 28.2197 73.6425 28.7443 73.8168 29.2102C73.991 29.6761 74.2486 30.0455 74.5895 30.3182C74.9342 30.5871 75.3584 30.7216 75.8622 30.7216ZM90.6236 23.2727V24.6364H85.6918V23.2727H90.6236ZM87.044 32V22.2614C87.044 21.7159 87.1634 21.2633 87.402 20.9034C87.6406 20.5398 87.9569 20.2689 88.3509 20.0909C88.7448 19.9091 89.1728 19.8182 89.6349 19.8182C89.9759 19.8182 90.2675 19.8466 90.5099 19.9034C90.7524 19.9564 90.9323 20.0057 91.0497 20.0511L90.652 21.4261C90.5724 21.4034 90.4702 21.3769 90.3452 21.3466C90.2202 21.3125 90.0687 21.2955 89.8906 21.2955C89.4777 21.2955 89.1823 21.3977 89.0043 21.6023C88.83 21.8068 88.7429 22.1023 88.7429 22.4886V32H87.044ZM92.3764 32V23.2727H94.0185V24.6591H94.1094C94.2685 24.1894 94.5488 23.8201 94.9503 23.5511C95.3556 23.2784 95.8139 23.142 96.3253 23.142C96.4313 23.142 96.5563 23.1458 96.7003 23.1534C96.848 23.161 96.9635 23.1705 97.0469 23.1818V24.8068C96.9787 24.7879 96.8575 24.767 96.6832 24.7443C96.509 24.7178 96.3348 24.7045 96.1605 24.7045C95.759 24.7045 95.401 24.7898 95.0866 24.9602C94.776 25.1269 94.5298 25.3598 94.348 25.6591C94.1662 25.9545 94.0753 26.2917 94.0753 26.6705V32H92.3764ZM101.881 32.1761C101.063 32.1761 100.348 31.9886 99.7386 31.6136C99.1288 31.2386 98.6553 30.714 98.3182 30.0398C97.9811 29.3655 97.8125 28.5777 97.8125 27.6761C97.8125 26.7708 97.9811 25.9792 98.3182 25.3011C98.6553 24.6231 99.1288 24.0966 99.7386 23.7216C100.348 23.3466 101.063 23.1591 101.881 23.1591C102.699 23.1591 103.413 23.3466 104.023 23.7216C104.633 24.0966 105.106 24.6231 105.443 25.3011C105.78 25.9792 105.949 26.7708 105.949 27.6761C105.949 28.5777 105.78 29.3655 105.443 30.0398C105.106 30.714 104.633 31.2386 104.023 31.6136C103.413 31.9886 102.699 32.1761 101.881 32.1761ZM101.886 30.75C102.417 30.75 102.856 30.6098 103.205 30.3295C103.553 30.0492 103.811 29.6761 103.977 29.2102C104.148 28.7443 104.233 28.2311 104.233 27.6705C104.233 27.1136 104.148 26.6023 103.977 26.1364C103.811 25.6667 103.553 25.2898 103.205 25.0057C102.856 24.7216 102.417 24.5795 101.886 24.5795C101.352 24.5795 100.909 24.7216 100.557 25.0057C100.208 25.2898 99.9489 25.6667 99.7784 26.1364C99.6117 26.6023 99.5284 27.1136 99.5284 27.6705C99.5284 28.2311 99.6117 28.7443 99.7784 29.2102C99.9489 29.6761 100.208 30.0492 100.557 30.3295C100.909 30.6098 101.352 30.75 101.886 30.75ZM107.845 32V23.2727H109.476V24.6932H109.584C109.766 24.2121 110.063 23.8371 110.476 23.5682C110.889 23.2955 111.383 23.1591 111.959 23.1591C112.542 23.1591 113.031 23.2955 113.425 23.5682C113.822 23.8409 114.116 24.2159 114.305 24.6932H114.396C114.605 24.2273 114.936 23.8561 115.391 23.5795C115.845 23.2992 116.387 23.1591 117.016 23.1591C117.807 23.1591 118.453 23.4072 118.953 23.9034C119.457 24.3996 119.709 25.1477 119.709 26.1477V32H118.01V26.3068C118.01 25.7159 117.849 25.2879 117.527 25.0227C117.205 24.7576 116.821 24.625 116.374 24.625C115.821 24.625 115.391 24.7955 115.084 25.1364C114.777 25.4735 114.624 25.9072 114.624 26.4375V32H112.93V26.1989C112.93 25.7254 112.783 25.3447 112.487 25.0568C112.192 24.7689 111.807 24.625 111.334 24.625C111.012 24.625 110.714 24.7102 110.442 24.8807C110.173 25.0473 109.955 25.2803 109.788 25.5795C109.625 25.8788 109.544 26.2254 109.544 26.6193V32H107.845ZM127.374 20.3636L130.612 29.8409H130.743L133.982 20.3636H135.879L131.692 32H129.663L125.476 20.3636H127.374ZM137.423 32V23.2727H139.122V32H137.423ZM138.281 21.9261C137.986 21.9261 137.732 21.8277 137.52 21.6307C137.312 21.4299 137.207 21.1913 137.207 20.9148C137.207 20.6345 137.312 20.3958 137.52 20.1989C137.732 19.9981 137.986 19.8977 138.281 19.8977C138.577 19.8977 138.829 19.9981 139.037 20.1989C139.249 20.3958 139.355 20.6345 139.355 20.9148C139.355 21.1913 139.249 21.4299 139.037 21.6307C138.829 21.8277 138.577 21.9261 138.281 21.9261ZM144.675 32.1705C143.97 32.1705 143.341 31.9905 142.788 31.6307C142.239 31.267 141.807 30.75 141.493 30.0795C141.182 29.4053 141.027 28.5966 141.027 27.6534C141.027 26.7102 141.184 25.9034 141.499 25.233C141.817 24.5625 142.252 24.0492 142.805 23.6932C143.358 23.3371 143.985 23.1591 144.686 23.1591C145.228 23.1591 145.663 23.25 145.993 23.4318C146.326 23.6098 146.584 23.8182 146.766 24.0568C146.951 24.2955 147.095 24.5057 147.197 24.6875H147.3V20.3636H148.999V32H147.339V30.642H147.197C147.095 30.8277 146.947 31.0398 146.754 31.2784C146.565 31.517 146.304 31.7254 145.97 31.9034C145.637 32.0814 145.205 32.1705 144.675 32.1705ZM145.05 30.7216C145.538 30.7216 145.951 30.5928 146.288 30.3352C146.629 30.0739 146.887 29.7121 147.061 29.25C147.239 28.7879 147.328 28.25 147.328 27.6364C147.328 27.0303 147.241 26.5 147.067 26.0455C146.893 25.5909 146.637 25.2367 146.3 24.983C145.963 24.7292 145.546 24.6023 145.05 24.6023C144.538 24.6023 144.112 24.7348 143.771 25C143.43 25.2652 143.173 25.6269 142.999 26.0852C142.828 26.5436 142.743 27.0606 142.743 27.6364C142.743 28.2197 142.83 28.7443 143.004 29.2102C143.179 29.6761 143.436 30.0455 143.777 30.3182C144.122 30.5871 144.546 30.7216 145.05 30.7216ZM155.185 32.1761C154.325 32.1761 153.584 31.9924 152.963 31.625C152.346 31.2538 151.868 30.733 151.531 30.0625C151.198 29.3883 151.031 28.5985 151.031 27.6932C151.031 26.7992 151.198 26.0114 151.531 25.3295C151.868 24.6477 152.338 24.1155 152.94 23.733C153.546 23.3504 154.255 23.1591 155.065 23.1591C155.558 23.1591 156.035 23.2405 156.497 23.4034C156.959 23.5663 157.374 23.822 157.741 24.1705C158.109 24.5189 158.399 24.9716 158.611 25.5284C158.823 26.0814 158.929 26.7538 158.929 27.5455V28.1477H151.991V26.875H157.264C157.264 26.428 157.173 26.0322 156.991 25.6875C156.81 25.339 156.554 25.0644 156.224 24.8636C155.899 24.6629 155.516 24.5625 155.077 24.5625C154.599 24.5625 154.183 24.6799 153.827 24.9148C153.474 25.1458 153.202 25.4489 153.009 25.8239C152.819 26.1951 152.724 26.5985 152.724 27.0341V28.0284C152.724 28.6117 152.827 29.108 153.031 29.517C153.24 29.9261 153.529 30.2386 153.901 30.4545C154.272 30.6667 154.705 30.7727 155.202 30.7727C155.524 30.7727 155.817 30.7273 156.082 30.6364C156.348 30.5417 156.577 30.4015 156.77 30.2159C156.963 30.0303 157.111 29.8011 157.213 29.5284L158.821 29.8182C158.692 30.2917 158.461 30.7064 158.128 31.0625C157.798 31.4148 157.384 31.6894 156.884 31.8864C156.387 32.0795 155.821 32.1761 155.185 32.1761ZM164.49 32.1761C163.672 32.1761 162.958 31.9886 162.348 31.6136C161.738 31.2386 161.265 30.714 160.928 30.0398C160.59 29.3655 160.422 28.5777 160.422 27.6761C160.422 26.7708 160.59 25.9792 160.928 25.3011C161.265 24.6231 161.738 24.0966 162.348 23.7216C162.958 23.3466 163.672 23.1591 164.49 23.1591C165.308 23.1591 166.022 23.3466 166.632 23.7216C167.242 24.0966 167.715 24.6231 168.053 25.3011C168.39 25.9792 168.558 26.7708 168.558 27.6761C168.558 28.5777 168.39 29.3655 168.053 30.0398C167.715 30.714 167.242 31.2386 166.632 31.6136C166.022 31.9886 165.308 32.1761 164.49 32.1761ZM164.496 30.75C165.026 30.75 165.465 30.6098 165.814 30.3295C166.162 30.0492 166.42 29.6761 166.587 29.2102C166.757 28.7443 166.842 28.2311 166.842 27.6705C166.842 27.1136 166.757 26.6023 166.587 26.1364C166.42 25.6667 166.162 25.2898 165.814 25.0057C165.465 24.7216 165.026 24.5795 164.496 24.5795C163.962 24.5795 163.518 24.7216 163.166 25.0057C162.818 25.2898 162.558 25.6667 162.388 26.1364C162.221 26.6023 162.138 27.1136 162.138 27.6705C162.138 28.2311 162.221 28.7443 162.388 29.2102C162.558 29.6761 162.818 30.0492 163.166 30.3295C163.518 30.6098 163.962 30.75 164.496 30.75ZM176.994 25.4034L175.455 25.6761C175.39 25.4792 175.288 25.2917 175.148 25.1136C175.011 24.9356 174.826 24.7898 174.591 24.6761C174.356 24.5625 174.063 24.5057 173.71 24.5057C173.229 24.5057 172.828 24.6136 172.506 24.8295C172.184 25.0417 172.023 25.3163 172.023 25.6534C172.023 25.9451 172.131 26.1799 172.347 26.358C172.563 26.536 172.911 26.6818 173.392 26.7955L174.778 27.1136C175.581 27.2992 176.18 27.5852 176.574 27.9716C176.968 28.358 177.165 28.8598 177.165 29.4773C177.165 30 177.013 30.4659 176.71 30.875C176.411 31.2803 175.992 31.5985 175.455 31.8295C174.92 32.0606 174.301 32.1761 173.597 32.1761C172.619 32.1761 171.822 31.9678 171.205 31.5511C170.587 31.1307 170.208 30.5341 170.068 29.7614L171.71 29.5114C171.813 29.9394 172.023 30.2633 172.341 30.483C172.659 30.6989 173.074 30.8068 173.585 30.8068C174.142 30.8068 174.587 30.6913 174.92 30.4602C175.254 30.2254 175.42 29.9394 175.42 29.6023C175.42 29.3295 175.318 29.1004 175.114 28.9148C174.913 28.7292 174.604 28.589 174.188 28.4943L172.71 28.1705C171.896 27.9848 171.294 27.6894 170.903 27.2841C170.517 26.8788 170.324 26.3655 170.324 25.7443C170.324 25.2292 170.468 24.7784 170.756 24.392C171.044 24.0057 171.441 23.7045 171.949 23.4886C172.456 23.2689 173.038 23.1591 173.693 23.1591C174.636 23.1591 175.379 23.3636 175.92 23.7727C176.462 24.178 176.82 24.7216 176.994 25.4034Z" fill="white"/>
<path d="M33.3636 19H18.6364C17.7282 19 17 19.6922 17 20.5556V29.8889C17 30.7444 17.7282 31.4444 18.6364 31.4444H22.7273V33H29.2727V31.4444H33.3636C34.2636 31.4444 34.9918 30.7444 34.9918 29.8889L35 20.5556C35 19.6922 34.2636 19 33.3636 19ZM33.3636 29.8889H18.6364V20.5556H33.3636V29.8889Z" fill="#9B9B9B" fill-opacity="0.56"/>
<defs>
<linearGradient id="paint0_linear_1_57" x1="-7.00002" y1="-9.589" x2="403.868" y2="179.773" gradientUnits="userSpaceOnUse">
<stop stop-color="white"/>
<stop offset="1" stop-color="white" stop-opacity="0"/>
</linearGradient>
</defs>
</svg>
