<svg width="20" height="20" viewBox="0 0 20 20" fill="none" xmlns="http://www.w3.org/2000/svg">
<g opacity="0.5">
<g clip-path="url(#clip0_26_1463)">
<path d="M17.6992 2.29688C14.6367 -0.765625 9.65234 -0.765625 6.58984 2.29688C5.10547 3.78125 4.28906 5.75391 4.28906 7.85156C4.28906 9.62109 4.87109 11.3008 5.94141 12.6758L0.285156 18.332C-0.0976562 18.7148 -0.0976562 19.332 0.285156 19.7148C0.476563 19.9063 0.726562 20 0.976562 20C1.22656 20 1.47656 19.9063 1.66797 19.7148L7.32422 14.0586C8.73438 15.1562 10.4414 15.707 12.1445 15.707C14.1562 15.707 16.168 14.9414 17.6992 13.4102C19.1836 11.9258 20 9.95313 20 7.85547C20 5.75391 19.1836 3.78125 17.6992 2.29688V2.29688ZM16.3164 12.0273C14.0156 14.3281 10.2734 14.3281 7.96875 12.0273C6.85547 10.9141 6.23828 9.42969 6.23828 7.85547C6.23828 6.28125 6.85156 4.79688 7.96875 3.68359C9.12109 2.52734 10.6328 1.95312 12.1445 1.95312C13.6562 1.95312 15.168 2.52734 16.3164 3.67969C17.4336 4.79297 18.0469 6.27734 18.0469 7.85156C18.0469 9.42578 17.4336 10.9102 16.3164 12.0273V12.0273Z" fill="white"/>
<path d="M15.9792 9C15.632 9.7124 14.5969 11.1775 13.235 11.3386" stroke="white" stroke-width="2" stroke-linecap="round"/>
</g>
</g>
<defs>
<clipPath id="clip0_26_1463">
<rect width="20" height="20" fill="white"/>
</clipPath>
</defs>
</svg>
