<svg width="345" height="50" viewBox="0 0 345 50" fill="none" xmlns="http://www.w3.org/2000/svg">
<rect width="345" height="50" rx="20" fill="#33333F"/>
<rect x="0.35" y="0.35" width="344.3" height="49.3" rx="19.65" stroke="url(#paint0_linear_26_837)" stroke-opacity="0.15" stroke-width="0.7"/>
<g opacity="0.35">
<g clip-path="url(#clip0_26_837)">
<path d="M31 25C29.5002 25 28.1583 25.6632 27.242 26.709L24.0683 24.7557C24.2308 24.3097 24.3335 23.8352 24.3335 23.3332C24.3335 23.0052 24.2865 22.6897 24.2147 22.3827L28.4335 20.436C29.0445 21.1815 29.9607 21.6665 31.0002 21.6665C32.8402 21.6665 34.3335 20.174 34.3335 18.3333C34.3335 16.4925 32.84 15 31 15C29.1585 15 27.6667 16.4925 27.6667 18.3333C27.6667 18.5365 27.692 18.7328 27.726 18.9265L23.5122 20.8715C22.753 19.842 21.5428 19.1665 20.1667 19.1665C17.8652 19.1667 16 21.0317 16 23.3333C16 25.6348 17.8652 27.5 20.1667 27.5C21.3645 27.5 22.4373 26.9873 23.1973 26.1768L26.3663 28.1268C26.1317 28.706 26 29.3368 26 30C26 32.762 28.238 35 31 35C33.7605 35 36 32.762 36 30C36 27.238 33.7605 25 31 25Z" fill="white"/>
</g>
</g>
<path d="M54.2578 27.8594C54.3203 28.4167 54.599 28.8646 55.0938 29.2031C55.5885 29.5417 56.2083 29.7109 56.9531 29.7109C57.6615 29.7109 58.2474 29.5469 58.7109 29.2188C59.1693 28.8906 59.3984 28.474 59.3984 27.9688C59.3984 27.5312 59.2344 27.1745 58.9062 26.8984C58.5781 26.6172 58.0495 26.388 57.3203 26.2109L55.8594 25.8594C53.8385 25.3698 52.8281 24.3568 52.8281 22.8203C52.8281 21.8516 53.2109 21.0625 53.9766 20.4531C54.737 19.8438 55.7214 19.5391 56.9297 19.5391C58.1172 19.5391 59.0859 19.8438 59.8359 20.4531C60.5859 21.0573 60.974 21.8464 61 22.8203H59.2969C59.2448 22.263 59.0026 21.8203 58.5703 21.4922C58.1432 21.1745 57.5885 21.0156 56.9062 21.0156C56.2292 21.0156 55.6771 21.1719 55.25 21.4844C54.8281 21.7969 54.6172 22.2031 54.6172 22.7031C54.6172 23.099 54.776 23.4245 55.0938 23.6797C55.4115 23.9297 55.9349 24.1458 56.6641 24.3281L57.9062 24.6328C59.0625 24.9036 59.8984 25.2865 60.4141 25.7812C60.9245 26.2708 61.1797 26.9297 61.1797 27.7578C61.1797 28.8099 60.7891 29.6458 60.0078 30.2656C59.2266 30.8802 58.1667 31.1875 56.8281 31.1875C55.5729 31.1875 54.5573 30.888 53.7812 30.2891C53 29.6849 52.5833 28.875 52.5312 27.8594H54.2578ZM62.6484 19.2188H64.3281V23.9453H64.3672C64.8828 22.9297 65.8021 22.4219 67.125 22.4219C68.0573 22.4219 68.8073 22.7083 69.375 23.2812C69.9375 23.8542 70.2188 24.6198 70.2188 25.5781V31H68.5312V25.9062C68.5312 25.2708 68.3542 24.7734 68 24.4141C67.6458 24.0547 67.1589 23.875 66.5391 23.875C65.8828 23.875 65.3542 24.0833 64.9531 24.5C64.5469 24.9167 64.3438 25.4635 64.3438 26.1406V31H62.6484V19.2188ZM74.8672 29.7344C75.4974 29.7344 76.0234 29.5547 76.4453 29.1953C76.8672 28.8307 77.0781 28.3698 77.0781 27.8125V27.1484L75.0156 27.2891C73.8438 27.362 73.2578 27.7786 73.2578 28.5391C73.2578 28.9036 73.4036 29.1927 73.6953 29.4062C73.987 29.625 74.3776 29.7344 74.8672 29.7344ZM74.4141 31.0859C73.5651 31.0859 72.875 30.8568 72.3438 30.3984C71.8125 29.9349 71.5469 29.3255 71.5469 28.5703C71.5469 27.8307 71.8255 27.25 72.3828 26.8281C72.9349 26.4062 73.737 26.1615 74.7891 26.0938L77.0781 25.9609V25.3047C77.0781 24.8203 76.9219 24.4479 76.6094 24.1875C76.3021 23.9323 75.8646 23.8047 75.2969 23.8047C74.8385 23.8047 74.4505 23.9141 74.1328 24.1328C73.8203 24.3516 73.6276 24.6458 73.5547 25.0156H71.9688C71.9948 24.2656 72.3255 23.6432 72.9609 23.1484C73.5964 22.6536 74.3906 22.4062 75.3438 22.4062C76.3802 22.4062 77.2057 22.6589 77.8203 23.1641C78.4401 23.6693 78.75 24.3411 78.75 25.1797V31H77.1328V29.5859H77.0938C76.8594 30.0443 76.5 30.4089 76.0156 30.6797C75.5312 30.9505 74.9974 31.0859 74.4141 31.0859ZM80.4531 22.5156H82.0703V23.9453H82.1016C82.2318 23.4714 82.4818 23.1016 82.8516 22.8359C83.2161 22.5651 83.6484 22.4297 84.1484 22.4297C84.3828 22.4297 84.5703 22.4505 84.7109 22.4922V24.0781C84.5234 24.0052 84.276 23.9688 83.9688 23.9688C83.4115 23.9688 82.9688 24.1484 82.6406 24.5078C82.3125 24.862 82.1484 25.3385 82.1484 25.9375V31H80.4531V22.5156ZM89 23.7891C88.3906 23.7891 87.8854 23.9922 87.4844 24.3984C87.0781 24.8047 86.8516 25.3333 86.8047 25.9844H91.1094C91.0885 25.3229 90.8854 24.7917 90.5 24.3906C90.1146 23.9896 89.6146 23.7891 89 23.7891ZM92.7188 28.5156C92.599 29.276 92.2005 29.8984 91.5234 30.3828C90.8464 30.862 90.0312 31.1016 89.0781 31.1016C87.849 31.1016 86.875 30.7135 86.1562 29.9375C85.4427 29.1667 85.0859 28.1172 85.0859 26.7891C85.0859 25.4609 85.4427 24.3984 86.1562 23.6016C86.8698 22.8047 87.8203 22.4062 89.0078 22.4062C90.1745 22.4062 91.099 22.7839 91.7812 23.5391C92.4635 24.2891 92.8047 25.3073 92.8047 26.5938V27.1875H86.7969V27.2891C86.7969 28.0234 87.0078 28.612 87.4297 29.0547C87.8516 29.5026 88.4115 29.7266 89.1094 29.7266C89.6042 29.7266 90.0312 29.6172 90.3906 29.3984C90.75 29.1797 90.987 28.8854 91.1016 28.5156H92.7188ZM104.344 27.9531H100.047L99.0156 31H97.1953L101.266 19.7266H103.156L107.227 31H105.375L104.344 27.9531ZM100.492 26.5469H103.898L102.219 21.6016H102.172L100.492 26.5469ZM112.672 22.4297C113.755 22.4297 114.622 22.8229 115.273 23.6094C115.93 24.3958 116.258 25.4453 116.258 26.7578C116.258 28.0651 115.932 29.1146 115.281 29.9062C114.635 30.6927 113.779 31.0859 112.711 31.0859C111.451 31.0859 110.555 30.5938 110.023 29.6094H109.992V33.7734H108.297V22.5156H109.93V23.9219H109.969C110.208 23.4635 110.57 23.1016 111.055 22.8359C111.544 22.5651 112.083 22.4297 112.672 22.4297ZM112.242 29.6484C112.93 29.6484 113.482 29.3854 113.898 28.8594C114.315 28.3333 114.523 27.6328 114.523 26.7578C114.523 25.8828 114.315 25.1823 113.898 24.6562C113.482 24.1302 112.93 23.8672 112.242 23.8672C111.57 23.8672 111.026 24.1328 110.609 24.6641C110.193 25.1953 109.982 25.8932 109.977 26.7578C109.982 27.6224 110.193 28.3203 110.609 28.8516C111.021 29.3828 111.565 29.6484 112.242 29.6484ZM121.984 22.4297C123.068 22.4297 123.935 22.8229 124.586 23.6094C125.242 24.3958 125.57 25.4453 125.57 26.7578C125.57 28.0651 125.245 29.1146 124.594 29.9062C123.948 30.6927 123.091 31.0859 122.023 31.0859C120.763 31.0859 119.867 30.5938 119.336 29.6094H119.305V33.7734H117.609V22.5156H119.242V23.9219H119.281C119.521 23.4635 119.883 23.1016 120.367 22.8359C120.857 22.5651 121.396 22.4297 121.984 22.4297ZM121.555 29.6484C122.242 29.6484 122.794 29.3854 123.211 28.8594C123.628 28.3333 123.836 27.6328 123.836 26.7578C123.836 25.8828 123.628 25.1823 123.211 24.6562C122.794 24.1302 122.242 23.8672 121.555 23.8672C120.883 23.8672 120.339 24.1328 119.922 24.6641C119.505 25.1953 119.294 25.8932 119.289 26.7578C119.294 27.6224 119.505 28.3203 119.922 28.8516C120.333 29.3828 120.878 29.6484 121.555 29.6484Z" fill="white"/>
<defs>
<linearGradient id="paint0_linear_26_837" x1="-7.00002" y1="-9.589" x2="403.868" y2="179.773" gradientUnits="userSpaceOnUse">
<stop stop-color="white"/>
<stop offset="1" stop-color="white" stop-opacity="0"/>
</linearGradient>
<clipPath id="clip0_26_837">
<rect width="20" height="20" fill="white" transform="translate(16 15)"/>
</clipPath>
</defs>
</svg>
