<svg width="345" height="50" viewBox="0 0 345 50" fill="none" xmlns="http://www.w3.org/2000/svg">
<rect width="345" height="50" rx="20" fill="#33333F"/>
<rect x="0.35" y="0.35" width="344.3" height="49.3" rx="19.65" stroke="url(#paint0_linear_39_6743)" stroke-opacity="0.15" stroke-width="0.7"/>
<path d="M52.7344 29.8047L58.9062 21.2969V21.2344H52.9219V19.7266H61.0547V20.9219L54.9062 29.4297V29.4844H61.2031V31H52.7344V29.8047ZM62.9844 31V19.7266H64.7344V31H62.9844ZM71.2266 19.7266C72.3203 19.7266 73.2135 20.0703 73.9062 20.7578C74.599 21.4453 74.9453 22.3359 74.9453 23.4297C74.9453 24.5286 74.5938 25.4245 73.8906 26.1172C73.1875 26.8047 72.2812 27.1484 71.1719 27.1484H68.5625V31H66.8125V19.7266H71.2266ZM68.5625 25.6797H70.7656C71.526 25.6797 72.1146 25.4844 72.5312 25.0938C72.9479 24.6979 73.1562 24.1458 73.1562 23.4375C73.1562 22.724 72.9479 22.1745 72.5312 21.7891C72.1146 21.3984 71.526 21.2031 70.7656 21.2031H68.5625V25.6797ZM83.5312 23.7891C82.9219 23.7891 82.4167 23.9922 82.0156 24.3984C81.6094 24.8047 81.3828 25.3333 81.3359 25.9844H85.6406C85.6198 25.3229 85.4167 24.7917 85.0312 24.3906C84.6458 23.9896 84.1458 23.7891 83.5312 23.7891ZM87.25 28.5156C87.1302 29.276 86.7318 29.8984 86.0547 30.3828C85.3776 30.862 84.5625 31.1016 83.6094 31.1016C82.3802 31.1016 81.4062 30.7135 80.6875 29.9375C79.974 29.1667 79.6172 28.1172 79.6172 26.7891C79.6172 25.4609 79.974 24.3984 80.6875 23.6016C81.401 22.8047 82.3516 22.4062 83.5391 22.4062C84.7057 22.4062 85.6302 22.7839 86.3125 23.5391C86.9948 24.2891 87.3359 25.3073 87.3359 26.5938V27.1875H81.3281V27.2891C81.3281 28.0234 81.5391 28.612 81.9609 29.0547C82.3828 29.5026 82.9427 29.7266 83.6406 29.7266C84.1354 29.7266 84.5625 29.6172 84.9219 29.3984C85.2812 29.1797 85.5182 28.8854 85.6328 28.5156H87.25ZM88.7031 22.5156H90.3203V23.9453H90.3516C90.8776 22.9297 91.7969 22.4219 93.1094 22.4219C94.0469 22.4219 94.7865 22.7005 95.3281 23.2578C95.8646 23.8203 96.1328 24.5885 96.1328 25.5625V31H94.4375V25.8828C94.4375 25.237 94.2734 24.7422 93.9453 24.3984C93.6172 24.0495 93.1432 23.875 92.5234 23.875C91.8828 23.875 91.3698 24.0781 90.9844 24.4844C90.5938 24.8958 90.3984 25.4349 90.3984 26.1016V31H88.7031V22.5156ZM103.461 25.4141C103.378 24.9453 103.167 24.5703 102.828 24.2891C102.464 23.987 102 23.8359 101.438 23.8359C100.75 23.8359 100.201 24.099 99.7891 24.625C99.3724 25.1615 99.1641 25.8724 99.1641 26.7578C99.1641 27.6641 99.375 28.3802 99.7969 28.9062C100.208 29.4219 100.758 29.6797 101.445 29.6797C102.591 29.6797 103.268 29.1693 103.477 28.1484H105.094C104.995 29.0391 104.617 29.7526 103.961 30.2891C103.294 30.8307 102.453 31.1016 101.438 31.1016C100.229 31.1016 99.263 30.7135 98.5391 29.9375C97.8099 29.151 97.4453 28.0911 97.4453 26.7578C97.4453 25.4401 97.8073 24.3854 98.5312 23.5938C99.2552 22.8021 100.219 22.4062 101.422 22.4062C102.469 22.4062 103.331 22.7031 104.008 23.2969C104.643 23.8542 105 24.5599 105.078 25.4141H103.461ZM106.344 22.5156H107.961V23.9453H107.992C108.122 23.4714 108.372 23.1016 108.742 22.8359C109.107 22.5651 109.539 22.4297 110.039 22.4297C110.273 22.4297 110.461 22.4505 110.602 22.4922V24.0781C110.414 24.0052 110.167 23.9688 109.859 23.9688C109.302 23.9688 108.859 24.1484 108.531 24.5078C108.203 24.862 108.039 25.3385 108.039 25.9375V31H106.344V22.5156ZM112.57 34.0859C112.289 34.0859 112.06 34.0703 111.883 34.0391V32.6641C111.987 32.6901 112.167 32.7031 112.422 32.7031C112.828 32.7031 113.148 32.6094 113.383 32.4219C113.622 32.2292 113.815 31.9089 113.961 31.4609L114.094 31.0234L111.016 22.5156H112.836L115.016 29.4531H115.055L117.234 22.5156H119.016L115.836 31.3906C115.471 32.4062 115.052 33.1094 114.578 33.5C114.109 33.8906 113.44 34.0859 112.57 34.0859ZM124.422 22.4297C125.505 22.4297 126.372 22.8229 127.023 23.6094C127.68 24.3958 128.008 25.4453 128.008 26.7578C128.008 28.0651 127.682 29.1146 127.031 29.9062C126.385 30.6927 125.529 31.0859 124.461 31.0859C123.201 31.0859 122.305 30.5938 121.773 29.6094H121.742V33.7734H120.047V22.5156H121.68V23.9219H121.719C121.958 23.4635 122.32 23.1016 122.805 22.8359C123.294 22.5651 123.833 22.4297 124.422 22.4297ZM123.992 29.6484C124.68 29.6484 125.232 29.3854 125.648 28.8594C126.065 28.3333 126.273 27.6328 126.273 26.7578C126.273 25.8828 126.065 25.1823 125.648 24.6562C125.232 24.1302 124.68 23.8672 123.992 23.8672C123.32 23.8672 122.776 24.1328 122.359 24.6641C121.943 25.1953 121.732 25.8932 121.727 26.7578C121.732 27.6224 121.943 28.3203 122.359 28.8516C122.771 29.3828 123.315 29.6484 123.992 29.6484ZM131.555 20.6094V22.5156H133.18V23.8516H131.555V28.5938C131.555 29.3125 131.901 29.6719 132.594 29.6719C132.797 29.6719 132.99 29.6589 133.172 29.6328V30.9688C132.943 31.026 132.625 31.0547 132.219 31.0547C131.37 31.0547 130.766 30.8776 130.406 30.5234C130.047 30.1745 129.867 29.5885 129.867 28.7656V23.8516H128.695V22.5156H129.867V20.6094H131.555ZM134.672 22.5156H136.367V31H134.672V22.5156ZM135.523 21.3047C135.247 21.3047 135.013 21.2083 134.82 21.0156C134.628 20.8281 134.531 20.599 134.531 20.3281C134.531 20.0521 134.628 19.8203 134.82 19.6328C135.013 19.4453 135.247 19.3516 135.523 19.3516C135.799 19.3516 136.034 19.4453 136.227 19.6328C136.419 19.8203 136.516 20.0521 136.516 20.3281C136.516 20.599 136.419 20.8281 136.227 21.0156C136.034 21.2083 135.799 21.3047 135.523 21.3047ZM141.805 31.1016C140.576 31.1016 139.599 30.7109 138.875 29.9297C138.151 29.1484 137.789 28.0911 137.789 26.7578C137.789 25.4297 138.154 24.3724 138.883 23.5859C139.607 22.7995 140.581 22.4062 141.805 22.4062C143.029 22.4062 144.003 22.7969 144.727 23.5781C145.451 24.3646 145.812 25.4245 145.812 26.7578C145.812 28.0911 145.451 29.1484 144.727 29.9297C144.008 30.7109 143.034 31.1016 141.805 31.1016ZM141.805 29.6953C142.523 29.6953 143.086 29.4375 143.492 28.9219C143.893 28.4062 144.094 27.6849 144.094 26.7578C144.094 25.8307 143.893 25.1094 143.492 24.5938C143.086 24.0729 142.523 23.8125 141.805 23.8125C141.086 23.8125 140.523 24.0729 140.117 24.5938C139.711 25.1146 139.508 25.8359 139.508 26.7578C139.508 27.6797 139.711 28.401 140.117 28.9219C140.523 29.4375 141.086 29.6953 141.805 29.6953ZM147.172 22.5156H148.789V23.9453H148.82C149.346 22.9297 150.266 22.4219 151.578 22.4219C152.516 22.4219 153.255 22.7005 153.797 23.2578C154.333 23.8203 154.602 24.5885 154.602 25.5625V31H152.906V25.8828C152.906 25.237 152.742 24.7422 152.414 24.3984C152.086 24.0495 151.612 23.875 150.992 23.875C150.352 23.875 149.839 24.0781 149.453 24.4844C149.062 24.8958 148.867 25.4349 148.867 26.1016V31H147.172V22.5156ZM160.492 23.8516H159.32V22.5156H160.492V21.7344C160.492 20.9375 160.685 20.3594 161.07 20C161.456 19.6354 162.076 19.4531 162.93 19.4531C163.201 19.4531 163.487 19.4792 163.789 19.5312V20.8203C163.607 20.7786 163.396 20.7578 163.156 20.7578C162.807 20.7578 162.557 20.8385 162.406 21C162.25 21.1615 162.169 21.4245 162.164 21.7891V22.5156H163.797V23.8516H162.18V31H160.492V23.8516ZM168.492 31.1016C167.263 31.1016 166.286 30.7109 165.562 29.9297C164.839 29.1484 164.477 28.0911 164.477 26.7578C164.477 25.4297 164.841 24.3724 165.57 23.5859C166.294 22.7995 167.268 22.4062 168.492 22.4062C169.716 22.4062 170.69 22.7969 171.414 23.5781C172.138 24.3646 172.5 25.4245 172.5 26.7578C172.5 28.0911 172.138 29.1484 171.414 29.9297C170.695 30.7109 169.721 31.1016 168.492 31.1016ZM168.492 29.6953C169.211 29.6953 169.773 29.4375 170.18 28.9219C170.581 28.4062 170.781 27.6849 170.781 26.7578C170.781 25.8307 170.581 25.1094 170.18 24.5938C169.773 24.0729 169.211 23.8125 168.492 23.8125C167.773 23.8125 167.211 24.0729 166.805 24.5938C166.398 25.1146 166.195 25.8359 166.195 26.7578C166.195 27.6797 166.398 28.401 166.805 28.9219C167.211 29.4375 167.773 29.6953 168.492 29.6953ZM173.859 22.5156H175.477V23.9453H175.508C175.638 23.4714 175.888 23.1016 176.258 22.8359C176.622 22.5651 177.055 22.4297 177.555 22.4297C177.789 22.4297 177.977 22.4505 178.117 22.4922V24.0781C177.93 24.0052 177.682 23.9688 177.375 23.9688C176.818 23.9688 176.375 24.1484 176.047 24.5078C175.719 24.862 175.555 25.3385 175.555 25.9375V31H173.859V22.5156ZM188.555 25.4141C188.471 24.9453 188.26 24.5703 187.922 24.2891C187.557 23.987 187.094 23.8359 186.531 23.8359C185.844 23.8359 185.294 24.099 184.883 24.625C184.466 25.1615 184.258 25.8724 184.258 26.7578C184.258 27.6641 184.469 28.3802 184.891 28.9062C185.302 29.4219 185.852 29.6797 186.539 29.6797C187.685 29.6797 188.362 29.1693 188.57 28.1484H190.188C190.089 29.0391 189.711 29.7526 189.055 30.2891C188.388 30.8307 187.547 31.1016 186.531 31.1016C185.323 31.1016 184.357 30.7135 183.633 29.9375C182.904 29.151 182.539 28.0911 182.539 26.7578C182.539 25.4401 182.901 24.3854 183.625 23.5938C184.349 22.8021 185.312 22.4062 186.516 22.4062C187.562 22.4062 188.424 22.7031 189.102 23.2969C189.737 23.8542 190.094 24.5599 190.172 25.4141H188.555ZM195.07 31.1016C193.841 31.1016 192.865 30.7109 192.141 29.9297C191.417 29.1484 191.055 28.0911 191.055 26.7578C191.055 25.4297 191.419 24.3724 192.148 23.5859C192.872 22.7995 193.846 22.4062 195.07 22.4062C196.294 22.4062 197.268 22.7969 197.992 23.5781C198.716 24.3646 199.078 25.4245 199.078 26.7578C199.078 28.0911 198.716 29.1484 197.992 29.9297C197.273 30.7109 196.299 31.1016 195.07 31.1016ZM195.07 29.6953C195.789 29.6953 196.352 29.4375 196.758 28.9219C197.159 28.4062 197.359 27.6849 197.359 26.7578C197.359 25.8307 197.159 25.1094 196.758 24.5938C196.352 24.0729 195.789 23.8125 195.07 23.8125C194.352 23.8125 193.789 24.0729 193.383 24.5938C192.977 25.1146 192.773 25.8359 192.773 26.7578C192.773 27.6797 192.977 28.401 193.383 28.9219C193.789 29.4375 194.352 29.6953 195.07 29.6953ZM200.438 22.5156H202.055V23.9531H202.086C202.279 23.4792 202.591 23.1042 203.023 22.8281C203.451 22.5573 203.943 22.4219 204.5 22.4219C205.724 22.4219 206.516 22.9714 206.875 24.0703H206.914C207.138 23.5599 207.484 23.1562 207.953 22.8594C208.427 22.5677 208.966 22.4219 209.57 22.4219C210.409 22.4219 211.078 22.6771 211.578 23.1875C212.083 23.6927 212.336 24.3698 212.336 25.2188V31H210.648V25.625C210.648 25.0677 210.505 24.638 210.219 24.3359C209.927 24.0286 209.518 23.875 208.992 23.875C208.471 23.875 208.047 24.0495 207.719 24.3984C207.385 24.7474 207.219 25.1927 207.219 25.7344V31H205.555V25.4844C205.555 24.9948 205.409 24.6042 205.117 24.3125C204.82 24.0208 204.424 23.875 203.93 23.875C203.409 23.875 202.979 24.0573 202.641 24.4219C202.302 24.7812 202.133 25.2396 202.133 25.7969V31H200.438V22.5156ZM218.406 22.4297C219.49 22.4297 220.357 22.8229 221.008 23.6094C221.664 24.3958 221.992 25.4453 221.992 26.7578C221.992 28.0651 221.667 29.1146 221.016 29.9062C220.37 30.6927 219.513 31.0859 218.445 31.0859C217.185 31.0859 216.289 30.5938 215.758 29.6094H215.727V33.7734H214.031V22.5156H215.664V23.9219H215.703C215.943 23.4635 216.305 23.1016 216.789 22.8359C217.279 22.5651 217.818 22.4297 218.406 22.4297ZM217.977 29.6484C218.664 29.6484 219.216 29.3854 219.633 28.8594C220.049 28.3333 220.258 27.6328 220.258 26.7578C220.258 25.8828 220.049 25.1823 219.633 24.6562C219.216 24.1302 218.664 23.8672 217.977 23.8672C217.305 23.8672 216.76 24.1328 216.344 24.6641C215.927 25.1953 215.716 25.8932 215.711 26.7578C215.716 27.6224 215.927 28.3203 216.344 28.8516C216.755 29.3828 217.299 29.6484 217.977 29.6484ZM223.344 22.5156H224.961V23.9453H224.992C225.122 23.4714 225.372 23.1016 225.742 22.8359C226.107 22.5651 226.539 22.4297 227.039 22.4297C227.273 22.4297 227.461 22.4505 227.602 22.4922V24.0781C227.414 24.0052 227.167 23.9688 226.859 23.9688C226.302 23.9688 225.859 24.1484 225.531 24.5078C225.203 24.862 225.039 25.3385 225.039 25.9375V31H223.344V22.5156ZM231.891 23.7891C231.281 23.7891 230.776 23.9922 230.375 24.3984C229.969 24.8047 229.742 25.3333 229.695 25.9844H234C233.979 25.3229 233.776 24.7917 233.391 24.3906C233.005 23.9896 232.505 23.7891 231.891 23.7891ZM235.609 28.5156C235.49 29.276 235.091 29.8984 234.414 30.3828C233.737 30.862 232.922 31.1016 231.969 31.1016C230.74 31.1016 229.766 30.7135 229.047 29.9375C228.333 29.1667 227.977 28.1172 227.977 26.7891C227.977 25.4609 228.333 24.3984 229.047 23.6016C229.76 22.8047 230.711 22.4062 231.898 22.4062C233.065 22.4062 233.99 22.7839 234.672 23.5391C235.354 24.2891 235.695 25.3073 235.695 26.5938V27.1875H229.688V27.2891C229.688 28.0234 229.898 28.612 230.32 29.0547C230.742 29.5026 231.302 29.7266 232 29.7266C232.495 29.7266 232.922 29.6172 233.281 29.3984C233.641 29.1797 233.878 28.8854 233.992 28.5156H235.609ZM236.922 24.9297C236.922 24.1849 237.227 23.5781 237.836 23.1094C238.445 22.6458 239.237 22.4141 240.211 22.4141C241.138 22.4141 241.906 22.651 242.516 23.125C243.12 23.5938 243.432 24.1979 243.453 24.9375H241.859C241.823 24.5625 241.654 24.2656 241.352 24.0469C241.049 23.8281 240.656 23.7188 240.172 23.7188C239.693 23.7188 239.305 23.8203 239.008 24.0234C238.716 24.2318 238.57 24.5026 238.57 24.8359C238.57 25.3464 239.01 25.7083 239.891 25.9219L241.297 26.2578C242.151 26.4661 242.755 26.7422 243.109 27.0859C243.464 27.4297 243.641 27.9141 243.641 28.5391C243.641 29.2943 243.315 29.9115 242.664 30.3906C242.013 30.8646 241.174 31.1016 240.148 31.1016C239.164 31.1016 238.357 30.8672 237.727 30.3984C237.102 29.9349 236.758 29.3177 236.695 28.5469H238.367C238.503 29.3854 239.125 29.8047 240.234 29.8047C240.76 29.8047 241.18 29.7031 241.492 29.5C241.799 29.2969 241.953 29.0234 241.953 28.6797C241.953 28.4089 241.859 28.1953 241.672 28.0391C241.49 27.8828 241.174 27.7474 240.727 27.6328L239.211 27.2578C237.685 26.8828 236.922 26.1068 236.922 24.9297ZM244.875 24.9297C244.875 24.1849 245.18 23.5781 245.789 23.1094C246.398 22.6458 247.19 22.4141 248.164 22.4141C249.091 22.4141 249.859 22.651 250.469 23.125C251.073 23.5938 251.385 24.1979 251.406 24.9375H249.812C249.776 24.5625 249.607 24.2656 249.305 24.0469C249.003 23.8281 248.609 23.7188 248.125 23.7188C247.646 23.7188 247.258 23.8203 246.961 24.0234C246.669 24.2318 246.523 24.5026 246.523 24.8359C246.523 25.3464 246.964 25.7083 247.844 25.9219L249.25 26.2578C250.104 26.4661 250.708 26.7422 251.062 27.0859C251.417 27.4297 251.594 27.9141 251.594 28.5391C251.594 29.2943 251.268 29.9115 250.617 30.3906C249.966 30.8646 249.128 31.1016 248.102 31.1016C247.117 31.1016 246.31 30.8672 245.68 30.3984C245.055 29.9349 244.711 29.3177 244.648 28.5469H246.32C246.456 29.3854 247.078 29.8047 248.188 29.8047C248.714 29.8047 249.133 29.7031 249.445 29.5C249.753 29.2969 249.906 29.0234 249.906 28.6797C249.906 28.4089 249.812 28.1953 249.625 28.0391C249.443 27.8828 249.128 27.7474 248.68 27.6328L247.164 27.2578C245.638 26.8828 244.875 26.1068 244.875 24.9297ZM253.031 22.5156H254.727V31H253.031V22.5156ZM253.883 21.3047C253.607 21.3047 253.372 21.2083 253.18 21.0156C252.987 20.8281 252.891 20.599 252.891 20.3281C252.891 20.0521 252.987 19.8203 253.18 19.6328C253.372 19.4453 253.607 19.3516 253.883 19.3516C254.159 19.3516 254.393 19.4453 254.586 19.6328C254.779 19.8203 254.875 20.0521 254.875 20.3281C254.875 20.599 254.779 20.8281 254.586 21.0156C254.393 21.2083 254.159 21.3047 253.883 21.3047ZM260.164 31.1016C258.935 31.1016 257.958 30.7109 257.234 29.9297C256.51 29.1484 256.148 28.0911 256.148 26.7578C256.148 25.4297 256.513 24.3724 257.242 23.5859C257.966 22.7995 258.94 22.4062 260.164 22.4062C261.388 22.4062 262.362 22.7969 263.086 23.5781C263.81 24.3646 264.172 25.4245 264.172 26.7578C264.172 28.0911 263.81 29.1484 263.086 29.9297C262.367 30.7109 261.393 31.1016 260.164 31.1016ZM260.164 29.6953C260.883 29.6953 261.445 29.4375 261.852 28.9219C262.253 28.4062 262.453 27.6849 262.453 26.7578C262.453 25.8307 262.253 25.1094 261.852 24.5938C261.445 24.0729 260.883 23.8125 260.164 23.8125C259.445 23.8125 258.883 24.0729 258.477 24.5938C258.07 25.1146 257.867 25.8359 257.867 26.7578C257.867 27.6797 258.07 28.401 258.477 28.9219C258.883 29.4375 259.445 29.6953 260.164 29.6953ZM265.531 22.5156H267.148V23.9453H267.18C267.706 22.9297 268.625 22.4219 269.938 22.4219C270.875 22.4219 271.615 22.7005 272.156 23.2578C272.693 23.8203 272.961 24.5885 272.961 25.5625V31H271.266V25.8828C271.266 25.237 271.102 24.7422 270.773 24.3984C270.445 24.0495 269.971 23.875 269.352 23.875C268.711 23.875 268.198 24.0781 267.812 24.4844C267.422 24.8958 267.227 25.4349 267.227 26.1016V31H265.531V22.5156Z" fill="white"/>
<defs>
<linearGradient id="paint0_linear_39_6743" x1="-7.00002" y1="-9.589" x2="403.868" y2="179.773" gradientUnits="userSpaceOnUse">
<stop stop-color="white"/>
<stop offset="1" stop-color="white" stop-opacity="0"/>
</linearGradient>
</defs>
</svg>
