<svg width="24" height="24" viewBox="0 0 24 24" fill="none" xmlns="http://www.w3.org/2000/svg">
<g opacity="0.25">
<g clip-path="url(#clip0_93_1007)">
<path d="M17.1986 5.06323H10.5466C10.0287 5.06323 9.60895 5.483 9.60895 6.00087C9.60895 6.51875 10.0287 6.93851 10.5466 6.93851H17.1986C17.7165 6.93851 18.1363 6.51875 18.1363 6.00087C18.1363 5.483 17.7164 5.06323 17.1986 5.06323Z" fill="white"/>
<path d="M17.1986 8.81378H10.5466C10.0287 8.81378 9.60895 9.23355 9.60895 9.75142C9.60895 10.2693 10.0287 10.6891 10.5466 10.6891H17.1986C17.7164 10.6891 18.1363 10.2693 18.1363 9.75142C18.1363 9.23355 17.7165 8.81378 17.1986 8.81378Z" fill="white"/>
<path d="M13.4064 12.5643H10.5466C10.0287 12.5643 9.60895 12.9841 9.60895 13.502C9.60895 14.0198 10.0287 14.4396 10.5466 14.4396H13.4064C13.9243 14.4396 14.344 14.0198 14.344 13.502C14.344 12.9841 13.9243 12.5643 13.4064 12.5643Z" fill="white"/>
<path d="M21.0013 12.7518C21.5192 12.7518 21.9389 12.3321 21.9389 11.8142V3.75056C21.9389 1.68248 20.2564 0 18.1884 0H9.5621C7.49519 0 5.81346 1.68061 5.81154 3.74709C3.74351 3.74709 2.06097 5.42958 2.06097 7.49766V20.2495C2.06097 22.3175 3.74346 24 5.81154 24H14.9066C16.9746 24 18.6572 22.3176 18.6572 20.2495V20.221C20.5047 19.9895 21.9389 18.4087 21.9389 16.4996C21.9389 15.9818 21.5191 15.562 21.0012 15.562C20.4834 15.562 20.0636 15.9818 20.0636 16.4996C20.0636 17.5334 19.2226 18.3747 18.1888 18.3749L9.56252 18.377H9.5621C9.06124 18.377 8.59038 18.182 8.23624 17.8279C7.88196 17.4737 7.68682 17.0027 7.68682 16.5017V3.75056C7.68682 2.71655 8.52808 1.87528 9.5621 1.87528H18.1884C19.2224 1.87528 20.0637 2.71655 20.0637 3.75056V11.8142C20.0636 12.3321 20.4834 12.7518 21.0013 12.7518ZM9.5621 20.2522H9.56304L16.7819 20.2504C16.7813 21.284 15.9403 22.1247 14.9066 22.1247H5.81158C4.77757 22.1247 3.9363 21.2834 3.9363 20.2494V7.49756C3.9363 6.46355 4.77757 5.62228 5.81158 5.62228V16.5017C5.81158 17.5036 6.20182 18.4456 6.91038 19.154C7.6188 19.8623 8.56038 20.2522 9.5621 20.2522Z" fill="white"/>
</g>
</g>
<defs>
<clipPath id="clip0_93_1007">
<rect width="24" height="24" fill="white"/>
</clipPath>
</defs>
</svg>
