<svg width="345" height="50" viewBox="0 0 345 50" fill="none" xmlns="http://www.w3.org/2000/svg">
<rect width="345" height="50" rx="20" fill="#33333F"/>
<rect x="0.35" y="0.35" width="344.3" height="49.3" rx="19.65" stroke="url(#paint0_linear_39_6747)" stroke-opacity="0.15" stroke-width="0.7"/>
<path d="M58.5 21.2422V21.2031H52.5547V19.7266H60.2266V21.2422L55.3281 31H53.4922L58.5 21.2422ZM61.4688 29.8984L66.0312 23.8906V23.8672H61.4922V22.5156H67.9609V23.6797L63.5078 29.6172V29.6484H68.0078V31H61.4688V29.8984ZM76.7969 23.7891C76.1875 23.7891 75.6823 23.9922 75.2812 24.3984C74.875 24.8047 74.6484 25.3333 74.6016 25.9844H78.9062C78.8854 25.3229 78.6823 24.7917 78.2969 24.3906C77.9115 23.9896 77.4115 23.7891 76.7969 23.7891ZM80.5156 28.5156C80.3958 29.276 79.9974 29.8984 79.3203 30.3828C78.6432 30.862 77.8281 31.1016 76.875 31.1016C75.6458 31.1016 74.6719 30.7135 73.9531 29.9375C73.2396 29.1667 72.8828 28.1172 72.8828 26.7891C72.8828 25.4609 73.2396 24.3984 73.9531 23.6016C74.6667 22.8047 75.6172 22.4062 76.8047 22.4062C77.9714 22.4062 78.8958 22.7839 79.5781 23.5391C80.2604 24.2891 80.6016 25.3073 80.6016 26.5938V27.1875H74.5938V27.2891C74.5938 28.0234 74.8047 28.612 75.2266 29.0547C75.6484 29.5026 76.2083 29.7266 76.9062 29.7266C77.401 29.7266 77.8281 29.6172 78.1875 29.3984C78.5469 29.1797 78.7839 28.8854 78.8984 28.5156H80.5156ZM81.9688 22.5156H83.5859V23.9453H83.6172C84.1432 22.9297 85.0625 22.4219 86.375 22.4219C87.3125 22.4219 88.0521 22.7005 88.5938 23.2578C89.1302 23.8203 89.3984 24.5885 89.3984 25.5625V31H87.7031V25.8828C87.7031 25.237 87.5391 24.7422 87.2109 24.3984C86.8828 24.0495 86.4089 23.875 85.7891 23.875C85.1484 23.875 84.6354 24.0781 84.25 24.4844C83.8594 24.8958 83.6641 25.4349 83.6641 26.1016V31H81.9688V22.5156ZM96.7266 25.4141C96.6432 24.9453 96.4323 24.5703 96.0938 24.2891C95.7292 23.987 95.2656 23.8359 94.7031 23.8359C94.0156 23.8359 93.4661 24.099 93.0547 24.625C92.638 25.1615 92.4297 25.8724 92.4297 26.7578C92.4297 27.6641 92.6406 28.3802 93.0625 28.9062C93.474 29.4219 94.0234 29.6797 94.7109 29.6797C95.8568 29.6797 96.5339 29.1693 96.7422 28.1484H98.3594C98.2604 29.0391 97.8828 29.7526 97.2266 30.2891C96.5599 30.8307 95.7188 31.1016 94.7031 31.1016C93.4948 31.1016 92.5286 30.7135 91.8047 29.9375C91.0755 29.151 90.7109 28.0911 90.7109 26.7578C90.7109 25.4401 91.0729 24.3854 91.7969 23.5938C92.5208 22.8021 93.4844 22.4062 94.6875 22.4062C95.7344 22.4062 96.5964 22.7031 97.2734 23.2969C97.9089 23.8542 98.2656 24.5599 98.3438 25.4141H96.7266ZM99.6094 22.5156H101.227V23.9453H101.258C101.388 23.4714 101.638 23.1016 102.008 22.8359C102.372 22.5651 102.805 22.4297 103.305 22.4297C103.539 22.4297 103.727 22.4505 103.867 22.4922V24.0781C103.68 24.0052 103.432 23.9688 103.125 23.9688C102.568 23.9688 102.125 24.1484 101.797 24.5078C101.469 24.862 101.305 25.3385 101.305 25.9375V31H99.6094V22.5156ZM105.836 34.0859C105.555 34.0859 105.326 34.0703 105.148 34.0391V32.6641C105.253 32.6901 105.432 32.7031 105.688 32.7031C106.094 32.7031 106.414 32.6094 106.648 32.4219C106.888 32.2292 107.081 31.9089 107.227 31.4609L107.359 31.0234L104.281 22.5156H106.102L108.281 29.4531H108.32L110.5 22.5156H112.281L109.102 31.3906C108.737 32.4062 108.318 33.1094 107.844 33.5C107.375 33.8906 106.706 34.0859 105.836 34.0859ZM117.688 22.4297C118.771 22.4297 119.638 22.8229 120.289 23.6094C120.945 24.3958 121.273 25.4453 121.273 26.7578C121.273 28.0651 120.948 29.1146 120.297 29.9062C119.651 30.6927 118.794 31.0859 117.727 31.0859C116.466 31.0859 115.57 30.5938 115.039 29.6094H115.008V33.7734H113.312V22.5156H114.945V23.9219H114.984C115.224 23.4635 115.586 23.1016 116.07 22.8359C116.56 22.5651 117.099 22.4297 117.688 22.4297ZM117.258 29.6484C117.945 29.6484 118.497 29.3854 118.914 28.8594C119.331 28.3333 119.539 27.6328 119.539 26.7578C119.539 25.8828 119.331 25.1823 118.914 24.6562C118.497 24.1302 117.945 23.8672 117.258 23.8672C116.586 23.8672 116.042 24.1328 115.625 24.6641C115.208 25.1953 114.997 25.8932 114.992 26.7578C114.997 27.6224 115.208 28.3203 115.625 28.8516C116.036 29.3828 116.581 29.6484 117.258 29.6484ZM124.82 20.6094V22.5156H126.445V23.8516H124.82V28.5938C124.82 29.3125 125.167 29.6719 125.859 29.6719C126.062 29.6719 126.255 29.6589 126.438 29.6328V30.9688C126.208 31.026 125.891 31.0547 125.484 31.0547C124.635 31.0547 124.031 30.8776 123.672 30.5234C123.312 30.1745 123.133 29.5885 123.133 28.7656V23.8516H121.961V22.5156H123.133V20.6094H124.82ZM127.938 22.5156H129.633V31H127.938V22.5156ZM128.789 21.3047C128.513 21.3047 128.279 21.2083 128.086 21.0156C127.893 20.8281 127.797 20.599 127.797 20.3281C127.797 20.0521 127.893 19.8203 128.086 19.6328C128.279 19.4453 128.513 19.3516 128.789 19.3516C129.065 19.3516 129.299 19.4453 129.492 19.6328C129.685 19.8203 129.781 20.0521 129.781 20.3281C129.781 20.599 129.685 20.8281 129.492 21.0156C129.299 21.2083 129.065 21.3047 128.789 21.3047ZM135.07 31.1016C133.841 31.1016 132.865 30.7109 132.141 29.9297C131.417 29.1484 131.055 28.0911 131.055 26.7578C131.055 25.4297 131.419 24.3724 132.148 23.5859C132.872 22.7995 133.846 22.4062 135.07 22.4062C136.294 22.4062 137.268 22.7969 137.992 23.5781C138.716 24.3646 139.078 25.4245 139.078 26.7578C139.078 28.0911 138.716 29.1484 137.992 29.9297C137.273 30.7109 136.299 31.1016 135.07 31.1016ZM135.07 29.6953C135.789 29.6953 136.352 29.4375 136.758 28.9219C137.159 28.4062 137.359 27.6849 137.359 26.7578C137.359 25.8307 137.159 25.1094 136.758 24.5938C136.352 24.0729 135.789 23.8125 135.07 23.8125C134.352 23.8125 133.789 24.0729 133.383 24.5938C132.977 25.1146 132.773 25.8359 132.773 26.7578C132.773 27.6797 132.977 28.401 133.383 28.9219C133.789 29.4375 134.352 29.6953 135.07 29.6953ZM140.438 22.5156H142.055V23.9453H142.086C142.612 22.9297 143.531 22.4219 144.844 22.4219C145.781 22.4219 146.521 22.7005 147.062 23.2578C147.599 23.8203 147.867 24.5885 147.867 25.5625V31H146.172V25.8828C146.172 25.237 146.008 24.7422 145.68 24.3984C145.352 24.0495 144.878 23.875 144.258 23.875C143.617 23.875 143.104 24.0781 142.719 24.4844C142.328 24.8958 142.133 25.4349 142.133 26.1016V31H140.438V22.5156ZM153.758 23.8516H152.586V22.5156H153.758V21.7344C153.758 20.9375 153.951 20.3594 154.336 20C154.721 19.6354 155.341 19.4531 156.195 19.4531C156.466 19.4531 156.753 19.4792 157.055 19.5312V20.8203C156.872 20.7786 156.661 20.7578 156.422 20.7578C156.073 20.7578 155.823 20.8385 155.672 21C155.516 21.1615 155.435 21.4245 155.43 21.7891V22.5156H157.062V23.8516H155.445V31H153.758V23.8516ZM161.758 31.1016C160.529 31.1016 159.552 30.7109 158.828 29.9297C158.104 29.1484 157.742 28.0911 157.742 26.7578C157.742 25.4297 158.107 24.3724 158.836 23.5859C159.56 22.7995 160.534 22.4062 161.758 22.4062C162.982 22.4062 163.956 22.7969 164.68 23.5781C165.404 24.3646 165.766 25.4245 165.766 26.7578C165.766 28.0911 165.404 29.1484 164.68 29.9297C163.961 30.7109 162.987 31.1016 161.758 31.1016ZM161.758 29.6953C162.477 29.6953 163.039 29.4375 163.445 28.9219C163.846 28.4062 164.047 27.6849 164.047 26.7578C164.047 25.8307 163.846 25.1094 163.445 24.5938C163.039 24.0729 162.477 23.8125 161.758 23.8125C161.039 23.8125 160.477 24.0729 160.07 24.5938C159.664 25.1146 159.461 25.8359 159.461 26.7578C159.461 27.6797 159.664 28.401 160.07 28.9219C160.477 29.4375 161.039 29.6953 161.758 29.6953ZM167.125 22.5156H168.742V23.9453H168.773C168.904 23.4714 169.154 23.1016 169.523 22.8359C169.888 22.5651 170.32 22.4297 170.82 22.4297C171.055 22.4297 171.242 22.4505 171.383 22.4922V24.0781C171.195 24.0052 170.948 23.9688 170.641 23.9688C170.083 23.9688 169.641 24.1484 169.312 24.5078C168.984 24.862 168.82 25.3385 168.82 25.9375V31H167.125V22.5156ZM181.82 25.4141C181.737 24.9453 181.526 24.5703 181.188 24.2891C180.823 23.987 180.359 23.8359 179.797 23.8359C179.109 23.8359 178.56 24.099 178.148 24.625C177.732 25.1615 177.523 25.8724 177.523 26.7578C177.523 27.6641 177.734 28.3802 178.156 28.9062C178.568 29.4219 179.117 29.6797 179.805 29.6797C180.951 29.6797 181.628 29.1693 181.836 28.1484H183.453C183.354 29.0391 182.977 29.7526 182.32 30.2891C181.654 30.8307 180.812 31.1016 179.797 31.1016C178.589 31.1016 177.622 30.7135 176.898 29.9375C176.169 29.151 175.805 28.0911 175.805 26.7578C175.805 25.4401 176.167 24.3854 176.891 23.5938C177.615 22.8021 178.578 22.4062 179.781 22.4062C180.828 22.4062 181.69 22.7031 182.367 23.2969C183.003 23.8542 183.359 24.5599 183.438 25.4141H181.82ZM188.336 31.1016C187.107 31.1016 186.13 30.7109 185.406 29.9297C184.682 29.1484 184.32 28.0911 184.32 26.7578C184.32 25.4297 184.685 24.3724 185.414 23.5859C186.138 22.7995 187.112 22.4062 188.336 22.4062C189.56 22.4062 190.534 22.7969 191.258 23.5781C191.982 24.3646 192.344 25.4245 192.344 26.7578C192.344 28.0911 191.982 29.1484 191.258 29.9297C190.539 30.7109 189.565 31.1016 188.336 31.1016ZM188.336 29.6953C189.055 29.6953 189.617 29.4375 190.023 28.9219C190.424 28.4062 190.625 27.6849 190.625 26.7578C190.625 25.8307 190.424 25.1094 190.023 24.5938C189.617 24.0729 189.055 23.8125 188.336 23.8125C187.617 23.8125 187.055 24.0729 186.648 24.5938C186.242 25.1146 186.039 25.8359 186.039 26.7578C186.039 27.6797 186.242 28.401 186.648 28.9219C187.055 29.4375 187.617 29.6953 188.336 29.6953ZM193.703 22.5156H195.32V23.9531H195.352C195.544 23.4792 195.857 23.1042 196.289 22.8281C196.716 22.5573 197.208 22.4219 197.766 22.4219C198.99 22.4219 199.781 22.9714 200.141 24.0703H200.18C200.404 23.5599 200.75 23.1562 201.219 22.8594C201.693 22.5677 202.232 22.4219 202.836 22.4219C203.674 22.4219 204.344 22.6771 204.844 23.1875C205.349 23.6927 205.602 24.3698 205.602 25.2188V31H203.914V25.625C203.914 25.0677 203.771 24.638 203.484 24.3359C203.193 24.0286 202.784 23.875 202.258 23.875C201.737 23.875 201.312 24.0495 200.984 24.3984C200.651 24.7474 200.484 25.1927 200.484 25.7344V31H198.82V25.4844C198.82 24.9948 198.674 24.6042 198.383 24.3125C198.086 24.0208 197.69 23.875 197.195 23.875C196.674 23.875 196.245 24.0573 195.906 24.4219C195.568 24.7812 195.398 25.2396 195.398 25.7969V31H193.703V22.5156ZM211.672 22.4297C212.755 22.4297 213.622 22.8229 214.273 23.6094C214.93 24.3958 215.258 25.4453 215.258 26.7578C215.258 28.0651 214.932 29.1146 214.281 29.9062C213.635 30.6927 212.779 31.0859 211.711 31.0859C210.451 31.0859 209.555 30.5938 209.023 29.6094H208.992V33.7734H207.297V22.5156H208.93V23.9219H208.969C209.208 23.4635 209.57 23.1016 210.055 22.8359C210.544 22.5651 211.083 22.4297 211.672 22.4297ZM211.242 29.6484C211.93 29.6484 212.482 29.3854 212.898 28.8594C213.315 28.3333 213.523 27.6328 213.523 26.7578C213.523 25.8828 213.315 25.1823 212.898 24.6562C212.482 24.1302 211.93 23.8672 211.242 23.8672C210.57 23.8672 210.026 24.1328 209.609 24.6641C209.193 25.1953 208.982 25.8932 208.977 26.7578C208.982 27.6224 209.193 28.3203 209.609 28.8516C210.021 29.3828 210.565 29.6484 211.242 29.6484ZM216.609 22.5156H218.227V23.9453H218.258C218.388 23.4714 218.638 23.1016 219.008 22.8359C219.372 22.5651 219.805 22.4297 220.305 22.4297C220.539 22.4297 220.727 22.4505 220.867 22.4922V24.0781C220.68 24.0052 220.432 23.9688 220.125 23.9688C219.568 23.9688 219.125 24.1484 218.797 24.5078C218.469 24.862 218.305 25.3385 218.305 25.9375V31H216.609V22.5156ZM225.156 23.7891C224.547 23.7891 224.042 23.9922 223.641 24.3984C223.234 24.8047 223.008 25.3333 222.961 25.9844H227.266C227.245 25.3229 227.042 24.7917 226.656 24.3906C226.271 23.9896 225.771 23.7891 225.156 23.7891ZM228.875 28.5156C228.755 29.276 228.357 29.8984 227.68 30.3828C227.003 30.862 226.188 31.1016 225.234 31.1016C224.005 31.1016 223.031 30.7135 222.312 29.9375C221.599 29.1667 221.242 28.1172 221.242 26.7891C221.242 25.4609 221.599 24.3984 222.312 23.6016C223.026 22.8047 223.977 22.4062 225.164 22.4062C226.331 22.4062 227.255 22.7839 227.938 23.5391C228.62 24.2891 228.961 25.3073 228.961 26.5938V27.1875H222.953V27.2891C222.953 28.0234 223.164 28.612 223.586 29.0547C224.008 29.5026 224.568 29.7266 225.266 29.7266C225.76 29.7266 226.188 29.6172 226.547 29.3984C226.906 29.1797 227.143 28.8854 227.258 28.5156H228.875ZM230.188 24.9297C230.188 24.1849 230.492 23.5781 231.102 23.1094C231.711 22.6458 232.503 22.4141 233.477 22.4141C234.404 22.4141 235.172 22.651 235.781 23.125C236.385 23.5938 236.698 24.1979 236.719 24.9375H235.125C235.089 24.5625 234.919 24.2656 234.617 24.0469C234.315 23.8281 233.922 23.7188 233.438 23.7188C232.958 23.7188 232.57 23.8203 232.273 24.0234C231.982 24.2318 231.836 24.5026 231.836 24.8359C231.836 25.3464 232.276 25.7083 233.156 25.9219L234.562 26.2578C235.417 26.4661 236.021 26.7422 236.375 27.0859C236.729 27.4297 236.906 27.9141 236.906 28.5391C236.906 29.2943 236.581 29.9115 235.93 30.3906C235.279 30.8646 234.44 31.1016 233.414 31.1016C232.43 31.1016 231.622 30.8672 230.992 30.3984C230.367 29.9349 230.023 29.3177 229.961 28.5469H231.633C231.768 29.3854 232.391 29.8047 233.5 29.8047C234.026 29.8047 234.445 29.7031 234.758 29.5C235.065 29.2969 235.219 29.0234 235.219 28.6797C235.219 28.4089 235.125 28.1953 234.938 28.0391C234.755 27.8828 234.44 27.7474 233.992 27.6328L232.477 27.2578C230.951 26.8828 230.188 26.1068 230.188 24.9297ZM238.141 24.9297C238.141 24.1849 238.445 23.5781 239.055 23.1094C239.664 22.6458 240.456 22.4141 241.43 22.4141C242.357 22.4141 243.125 22.651 243.734 23.125C244.339 23.5938 244.651 24.1979 244.672 24.9375H243.078C243.042 24.5625 242.872 24.2656 242.57 24.0469C242.268 23.8281 241.875 23.7188 241.391 23.7188C240.911 23.7188 240.523 23.8203 240.227 24.0234C239.935 24.2318 239.789 24.5026 239.789 24.8359C239.789 25.3464 240.229 25.7083 241.109 25.9219L242.516 26.2578C243.37 26.4661 243.974 26.7422 244.328 27.0859C244.682 27.4297 244.859 27.9141 244.859 28.5391C244.859 29.2943 244.534 29.9115 243.883 30.3906C243.232 30.8646 242.393 31.1016 241.367 31.1016C240.383 31.1016 239.576 30.8672 238.945 30.3984C238.32 29.9349 237.977 29.3177 237.914 28.5469H239.586C239.721 29.3854 240.344 29.8047 241.453 29.8047C241.979 29.8047 242.398 29.7031 242.711 29.5C243.018 29.2969 243.172 29.0234 243.172 28.6797C243.172 28.4089 243.078 28.1953 242.891 28.0391C242.708 27.8828 242.393 27.7474 241.945 27.6328L240.43 27.2578C238.904 26.8828 238.141 26.1068 238.141 24.9297ZM246.297 22.5156H247.992V31H246.297V22.5156ZM247.148 21.3047C246.872 21.3047 246.638 21.2083 246.445 21.0156C246.253 20.8281 246.156 20.599 246.156 20.3281C246.156 20.0521 246.253 19.8203 246.445 19.6328C246.638 19.4453 246.872 19.3516 247.148 19.3516C247.424 19.3516 247.659 19.4453 247.852 19.6328C248.044 19.8203 248.141 20.0521 248.141 20.3281C248.141 20.599 248.044 20.8281 247.852 21.0156C247.659 21.2083 247.424 21.3047 247.148 21.3047ZM253.43 31.1016C252.201 31.1016 251.224 30.7109 250.5 29.9297C249.776 29.1484 249.414 28.0911 249.414 26.7578C249.414 25.4297 249.779 24.3724 250.508 23.5859C251.232 22.7995 252.206 22.4062 253.43 22.4062C254.654 22.4062 255.628 22.7969 256.352 23.5781C257.076 24.3646 257.438 25.4245 257.438 26.7578C257.438 28.0911 257.076 29.1484 256.352 29.9297C255.633 30.7109 254.659 31.1016 253.43 31.1016ZM253.43 29.6953C254.148 29.6953 254.711 29.4375 255.117 28.9219C255.518 28.4062 255.719 27.6849 255.719 26.7578C255.719 25.8307 255.518 25.1094 255.117 24.5938C254.711 24.0729 254.148 23.8125 253.43 23.8125C252.711 23.8125 252.148 24.0729 251.742 24.5938C251.336 25.1146 251.133 25.8359 251.133 26.7578C251.133 27.6797 251.336 28.401 251.742 28.9219C252.148 29.4375 252.711 29.6953 253.43 29.6953ZM258.797 22.5156H260.414V23.9453H260.445C260.971 22.9297 261.891 22.4219 263.203 22.4219C264.141 22.4219 264.88 22.7005 265.422 23.2578C265.958 23.8203 266.227 24.5885 266.227 25.5625V31H264.531V25.8828C264.531 25.237 264.367 24.7422 264.039 24.3984C263.711 24.0495 263.237 23.875 262.617 23.875C261.977 23.875 261.464 24.0781 261.078 24.4844C260.688 24.8958 260.492 25.4349 260.492 26.1016V31H258.797V22.5156Z" fill="white"/>
<defs>
<linearGradient id="paint0_linear_39_6747" x1="-7.00002" y1="-9.589" x2="403.868" y2="179.773" gradientUnits="userSpaceOnUse">
<stop stop-color="white"/>
<stop offset="1" stop-color="white" stop-opacity="0"/>
</linearGradient>
</defs>
</svg>
