<svg width="288" height="70" viewBox="0 0 288 70" fill="none" xmlns="http://www.w3.org/2000/svg">
<rect width="288" height="70" rx="20" fill="#664AFF"/>
<path d="M95.8857 38.585C95.9574 39.2152 96.2939 39.7272 96.8955 40.1211C97.4899 40.5078 98.2204 40.7012 99.0869 40.7012C99.9463 40.7012 100.648 40.515 101.192 40.1426C101.729 39.7773 101.998 39.3083 101.998 38.7354C101.998 38.234 101.798 37.8294 101.396 37.5215C100.995 37.2135 100.326 36.9557 99.3877 36.748L97.3682 36.3076C94.5251 35.6989 93.1035 34.2559 93.1035 31.9785C93.1035 30.5605 93.6585 29.4111 94.7686 28.5303C95.8714 27.6637 97.293 27.2305 99.0332 27.2305C100.824 27.2305 102.256 27.6566 103.33 28.5088C104.39 29.3538 104.934 30.4818 104.963 31.8926H101.923C101.873 31.2409 101.583 30.7253 101.053 30.3457C100.53 29.9733 99.8604 29.7871 99.0439 29.7871C98.2419 29.7871 97.5973 29.9626 97.1104 30.3135C96.6162 30.6644 96.3691 31.1263 96.3691 31.6992C96.3691 32.1719 96.5697 32.5586 96.9707 32.8594C97.3646 33.1458 98.0091 33.3929 98.9043 33.6006L100.784 33.998C102.338 34.3275 103.47 34.8431 104.179 35.5449C104.888 36.2396 105.242 37.1777 105.242 38.3594C105.242 39.8633 104.676 41.0557 103.545 41.9365C102.413 42.8245 100.884 43.2686 98.958 43.2686C97.0889 43.2686 95.6029 42.8532 94.5 42.0225C93.39 41.1846 92.8099 40.0387 92.7598 38.585H95.8857ZM118.068 43H115.039V40.8623H114.975C114.352 42.402 113.113 43.1719 111.258 43.1719C109.962 43.1719 108.927 42.778 108.153 41.9902C107.358 41.1953 106.961 40.1175 106.961 38.7568V31.1729H110.098V38.1016C110.098 38.8893 110.309 39.498 110.731 39.9277C111.14 40.3503 111.713 40.5615 112.45 40.5615C113.188 40.5615 113.786 40.318 114.244 39.8311C114.702 39.3441 114.932 38.7031 114.932 37.9082V31.1729H118.068V43ZM127.156 43.1396C125.373 43.1396 124.134 42.4199 123.439 40.9805H123.375V43H120.292V26.7578H123.429V33.1924H123.493C124.188 31.7529 125.405 31.0332 127.146 31.0332C128.642 31.0332 129.82 31.5703 130.68 32.6445C131.539 33.7259 131.969 35.2048 131.969 37.0811C131.969 38.9574 131.539 40.4362 130.68 41.5176C129.82 42.599 128.646 43.1396 127.156 43.1396ZM126.093 33.5684C125.291 33.5684 124.643 33.8906 124.148 34.5352C123.661 35.1797 123.414 36.0319 123.407 37.0918C123.414 38.1517 123.661 39.0003 124.148 39.6377C124.643 40.2822 125.291 40.6045 126.093 40.6045C126.902 40.6045 127.55 40.2858 128.037 39.6484C128.517 39.0111 128.757 38.1553 128.757 37.0811C128.757 36.014 128.513 35.1618 128.026 34.5244C127.547 33.887 126.902 33.5684 126.093 33.5684ZM133.451 34.6533C133.451 33.5433 133.902 32.6517 134.805 31.9785C135.707 31.3053 136.907 30.9688 138.403 30.9688C139.864 30.9688 141.042 31.3125 141.938 32C142.833 32.6803 143.291 33.5863 143.312 34.7178H140.412C140.376 34.2523 140.176 33.8799 139.811 33.6006C139.445 33.3285 138.962 33.1924 138.36 33.1924C137.795 33.1924 137.34 33.307 136.996 33.5361C136.652 33.7725 136.48 34.0804 136.48 34.46C136.48 35.04 137.007 35.4518 138.06 35.6953L140.283 36.1787C141.472 36.4508 142.321 36.834 142.829 37.3281C143.345 37.8223 143.603 38.5098 143.603 39.3906C143.603 40.5365 143.123 41.4603 142.163 42.1621C141.203 42.8568 139.947 43.2041 138.393 43.2041C136.853 43.2041 135.61 42.8568 134.665 42.1621C133.741 41.4889 133.24 40.5758 133.161 39.4229H136.223C136.38 40.4613 137.132 40.9805 138.479 40.9805C139.102 40.9805 139.592 40.8659 139.95 40.6367C140.308 40.4147 140.487 40.1104 140.487 39.7236C140.487 39.4157 140.376 39.1722 140.154 38.9932C139.925 38.8141 139.542 38.6602 139.005 38.5312L136.824 38.0371C134.576 37.5286 133.451 36.4007 133.451 34.6533ZM153.002 35.5342C152.916 34.904 152.665 34.4027 152.25 34.0303C151.82 33.6364 151.272 33.4395 150.606 33.4395C149.797 33.4395 149.156 33.7617 148.684 34.4062C148.211 35.0579 147.975 35.9495 147.975 37.0811C147.975 38.2269 148.211 39.1221 148.684 39.7666C149.156 40.404 149.801 40.7227 150.617 40.7227C151.999 40.7227 152.798 40.0495 153.013 38.7031H155.935C155.841 40.0781 155.315 41.1702 154.355 41.9795C153.389 42.7959 152.132 43.2041 150.585 43.2041C148.809 43.2041 147.402 42.6598 146.363 41.5713C145.318 40.4684 144.795 38.9717 144.795 37.0811C144.795 35.2119 145.318 33.7259 146.363 32.623C147.402 31.5202 148.802 30.9688 150.563 30.9688C152.125 30.9688 153.396 31.402 154.377 32.2686C155.329 33.1064 155.845 34.195 155.924 35.5342H153.002ZM157.503 31.1729H160.532V33.2891H160.597C161.005 31.7852 161.943 31.0332 163.411 31.0332C163.762 31.0332 164.056 31.0726 164.292 31.1514V33.9336C164.013 33.8047 163.637 33.7402 163.164 33.7402C162.369 33.7402 161.75 33.973 161.306 34.4385C160.862 34.904 160.64 35.5521 160.64 36.3828V43H157.503V31.1729ZM165.721 31.1729H168.857V43H165.721V31.1729ZM167.289 29.8838C166.824 29.8838 166.426 29.7262 166.097 29.4111C165.767 29.096 165.603 28.7057 165.603 28.2402C165.603 27.7747 165.767 27.3844 166.097 27.0693C166.426 26.7614 166.824 26.6074 167.289 26.6074C167.762 26.6074 168.163 26.7614 168.492 27.0693C168.822 27.3844 168.986 27.7747 168.986 28.2402C168.986 28.7057 168.822 29.096 168.492 29.4111C168.163 29.7262 167.762 29.8838 167.289 29.8838ZM177.988 43.1396C176.205 43.1396 174.966 42.4199 174.271 40.9805H174.207V43H171.124V26.7578H174.261V33.1924H174.325C175.02 31.7529 176.237 31.0332 177.978 31.0332C179.474 31.0332 180.652 31.5703 181.512 32.6445C182.371 33.7259 182.801 35.2048 182.801 37.0811C182.801 38.9574 182.371 40.4362 181.512 41.5176C180.652 42.599 179.478 43.1396 177.988 43.1396ZM176.925 33.5684C176.123 33.5684 175.475 33.8906 174.98 34.5352C174.493 35.1797 174.246 36.0319 174.239 37.0918C174.246 38.1517 174.493 39.0003 174.98 39.6377C175.475 40.2822 176.123 40.6045 176.925 40.6045C177.734 40.6045 178.382 40.2858 178.869 39.6484C179.349 39.0111 179.589 38.1553 179.589 37.0811C179.589 36.014 179.345 35.1618 178.858 34.5244C178.379 33.887 177.734 33.5684 176.925 33.5684ZM189.762 33.3105C189.046 33.3105 188.448 33.5469 187.968 34.0195C187.495 34.4922 187.23 35.1081 187.173 35.8672H192.275C192.247 35.0938 192.003 34.4743 191.545 34.0088C191.087 33.5433 190.492 33.3105 189.762 33.3105ZM195.208 39.3906C195.036 40.5365 194.46 41.4567 193.479 42.1514C192.497 42.8532 191.287 43.2041 189.848 43.2041C188.05 43.2041 186.632 42.6634 185.594 41.582C184.562 40.5007 184.047 39.0182 184.047 37.1348C184.047 35.2513 184.559 33.7546 185.583 32.6445C186.614 31.5273 187.996 30.9688 189.729 30.9688C191.434 30.9688 192.787 31.4987 193.79 32.5586C194.8 33.6185 195.305 35.0472 195.305 36.8447V37.8115H187.141V38.0049C187.141 38.8571 187.395 39.5482 187.903 40.0781C188.412 40.6009 189.078 40.8623 189.901 40.8623C190.496 40.8623 191.008 40.7298 191.438 40.4648C191.874 40.207 192.168 39.849 192.318 39.3906H195.208Z" fill="white"/>
<rect x="0.5" y="0.5" width="287" height="69" rx="19.5" stroke="url(#paint0_linear_26_524)" stroke-opacity="0.15"/>
<defs>
<linearGradient id="paint0_linear_26_524" x1="-5.84349" y1="-13.4246" x2="380.796" y2="92.8288" gradientUnits="userSpaceOnUse">
<stop stop-color="white"/>
<stop offset="1" stop-color="white" stop-opacity="0"/>
</linearGradient>
</defs>
</svg>
