<svg width="20" height="20" viewBox="0 0 20 20" fill="none" xmlns="http://www.w3.org/2000/svg">
<g opacity="0.5">
<g clip-path="url(#clip0_26_1462)">
<path d="M19.2148 6.5625C19.7187 6.05859 20 5.38672 20 4.67188C20 3.95703 19.7226 3.28516 19.2148 2.78125L17.2226 0.789062C16.7148 0.277344 16.0429 0 15.3281 0C14.6133 0 13.9414 0.277344 13.4375 0.785156L1.01169 13.2109C0.316378 13.9062 -0.0508097 14.8633 0.0038778 15.8438L-2.84474e-05 19.0234C-2.84474e-05 19.2812 0.101534 19.5312 0.285128 19.7148C0.468722 19.8984 0.714815 20 0.976534 20L4.15622 19.9961C5.13669 20.0508 6.09372 19.6836 6.78903 18.9883C7.17185 18.6055 7.17185 17.9883 6.78903 17.6055C6.40622 17.2227 5.78903 17.2227 5.40622 17.6055C5.10153 17.9102 4.67575 18.0703 4.24607 18.043C4.22653 18.043 4.2031 18.0391 4.18357 18.0391L1.9531 18.0469L1.957 15.8164C1.957 15.7969 1.957 15.7734 1.9531 15.7539C1.92575 15.3242 2.08591 14.8984 2.3906 14.5938L12.7461 4.23828L15.7617 7.25391L7.98044 15.0352C7.59763 15.418 7.59763 16.0352 7.98044 16.418C8.36325 16.8008 8.98044 16.8008 9.36325 16.418L19.2148 6.5625ZM14.1289 2.85547L14.8203 2.16406C14.957 2.02734 15.1367 1.95312 15.332 1.95312C15.5234 1.95312 15.707 2.02734 15.8437 2.16406L17.8359 4.15625C18.1172 4.4375 18.1172 4.89844 17.8359 5.17969L17.1445 5.87109L14.1289 2.85547Z" fill="white"/>
<path d="M19.0234 18.0469H10.2148C9.67578 18.0469 9.23828 18.4844 9.23828 19.0234C9.23828 19.5625 9.67578 20 10.2148 20H19.0234C19.5625 20 20 19.5625 20 19.0234C20 18.4844 19.5625 18.0469 19.0234 18.0469Z" fill="white"/>
</g>
</g>
<defs>
<clipPath id="clip0_26_1462">
<rect width="20" height="20" fill="white"/>
</clipPath>
</defs>
</svg>
