<svg width="20" height="20" viewBox="0 0 20 20" fill="none" xmlns="http://www.w3.org/2000/svg">
<path d="M8.96166 12.619C9.48764 12.619 9.91404 12.1926 9.91404 11.6666C9.91404 11.1406 9.48764 10.7142 8.96166 10.7142C8.43567 10.7142 8.00928 11.1406 8.00928 11.6666C8.00928 12.1926 8.43567 12.619 8.96166 12.619Z" fill="white"/>
<path d="M8.96179 13.5715C8.83549 13.5715 8.71437 13.5213 8.62507 13.432C8.53577 13.3427 8.4856 13.2216 8.4856 13.0953V12.1429C8.4856 12.0166 8.53577 11.8955 8.62507 11.8062C8.71437 11.7169 8.83549 11.6667 8.96179 11.6667C9.08808 11.6667 9.2092 11.7169 9.2985 11.8062C9.38781 11.8955 9.43798 12.0166 9.43798 12.1429V13.0953C9.43798 13.2216 9.38781 13.3427 9.2985 13.432C9.2092 13.5213 9.08808 13.5715 8.96179 13.5715Z" fill="white"/>
<rect x="5.15" y="8.65" width="7.7" height="6.7" rx="1.35" stroke="white" stroke-width="1.3"/>
<path d="M6.5 8.5C6.5 7.5 6.59989 5 8.99989 5" stroke="white" stroke-width="1.3"/>
<path d="M11.3 8.5C11.3 7.5 11.2002 5 8.80016 5" stroke="white" stroke-width="1.3"/>
<path fill-rule="evenodd" clip-rule="evenodd" d="M4.55625 0H15.3375C16.4375 0 17.3375 0.9 17.3375 2V18C17.3375 18.525 17.1187 19.0375 16.75 19.4125C16.3812 19.7875 15.8625 20 15.3375 20H2C1.46875 20 0.9625 19.7875 0.5875 19.4125C0.2125 19.0438 0 18.525 0 18V4.55C0 4.01875 0.2125 3.5125 0.5875 3.1375L3.14375 0.5875C3.51875 0.20625 4.025 0 4.55625 0ZM15.8062 18.4688C15.9312 18.35 16 18.175 16 18H16.0062V2C16.0062 1.63125 15.7062 1.33125 15.3375 1.33125H9.3375L8 1.3375H4.55C4.375 1.3375 4.20625 1.40625 4.08125 1.53125L1.53125 4.08125C1.40625 4.2 1.3375 4.375 1.3375 4.55V18C1.3375 18.175 1.40625 18.3438 1.53125 18.4688C1.65 18.5938 1.825 18.6625 2 18.6625H6.18125H11.1625H15.3375C15.5125 18.6625 15.6812 18.5938 15.8062 18.4688Z" fill="white"/>
</svg>
