<svg width="345" height="50" viewBox="0 0 345 50" fill="none" xmlns="http://www.w3.org/2000/svg">
<rect width="345" height="50" rx="20" fill="#33333F"/>
<rect x="0.35" y="0.35" width="344.3" height="49.3" rx="19.65" stroke="url(#paint0_linear_28_1575)" stroke-opacity="0.15" stroke-width="0.7"/>
<g opacity="0.35">
<path fill-rule="evenodd" clip-rule="evenodd" d="M21.8333 17.2917C21.115 17.2917 20.4262 17.577 19.9183 18.0849C19.4104 18.5928 19.125 19.2817 19.125 20V30C19.125 30.7183 19.4104 31.4071 19.9183 31.915C20.4262 32.423 21.1151 32.7083 21.8333 32.7083H26.8917C27.2368 32.7083 27.5167 32.9882 27.5167 33.3333C27.5167 33.6785 27.2368 33.9583 26.8917 33.9583H21.8333C20.7835 33.9583 19.7767 33.5413 19.0344 32.7989C18.2921 32.0566 17.875 31.0498 17.875 30V20C17.875 18.9502 18.2921 17.9433 19.0344 17.201C19.7768 16.4586 20.7835 16.0417 21.8333 16.0417H30.1667C31.2164 16.0417 32.2233 16.4586 32.9657 17.201C33.708 17.9433 34.125 18.9502 34.125 20V25.4417C34.125 25.7868 33.8452 26.0667 33.5 26.0667C33.1548 26.0667 32.875 25.7868 32.875 25.4417V20C32.875 19.2817 32.5897 18.5928 32.0817 18.0849C31.5738 17.577 30.885 17.2917 30.1667 17.2917H21.8333Z" fill="white"/>
<path fill-rule="evenodd" clip-rule="evenodd" d="M17.875 25.8333C17.875 25.4882 18.1548 25.2083 18.5 25.2083H19.4592C20.0391 25.2092 20.6074 25.3713 21.1005 25.6767C21.5935 25.982 21.9918 26.4185 22.2509 26.9374L22.534 27.5038C22.6895 27.8152 22.9287 28.0775 23.2245 28.2607C23.5201 28.4438 23.861 28.5411 24.2088 28.5417H26.1417C26.4869 28.5417 26.7667 28.8215 26.7667 29.1667C26.7667 29.5118 26.4869 29.7917 26.1417 29.7917H24.2075C23.6276 29.7908 23.0593 29.6288 22.5662 29.3233C22.0733 29.018 21.675 28.5815 21.416 28.0628L21.1327 27.4961C20.9773 27.1848 20.7381 26.9226 20.4423 26.7393C20.1466 26.5562 19.8057 26.4589 19.4579 26.4583H18.5C18.1548 26.4583 17.875 26.1785 17.875 25.8333Z" fill="white"/>
<path fill-rule="evenodd" clip-rule="evenodd" d="M31.3667 28.125C30.1287 28.125 29.125 29.1287 29.125 30.3667C29.125 31.6047 30.1287 32.6083 31.3667 32.6083C32.6048 32.6083 33.6083 31.6047 33.6083 30.3667C33.6083 29.1287 32.6047 28.125 31.3667 28.125ZM27.875 30.3667C27.875 28.4383 29.4383 26.875 31.3667 26.875C33.2951 26.875 34.8583 28.4383 34.8583 30.3667C34.8583 32.2951 33.2951 33.8583 31.3667 33.8583C29.4383 33.8583 27.875 32.2951 27.875 30.3667Z" fill="white"/>
<path fill-rule="evenodd" clip-rule="evenodd" d="M32.9588 31.9581C33.2028 31.714 33.5986 31.714 33.8427 31.9581L35.6093 33.7248C35.8534 33.9688 35.8534 34.3645 35.6093 34.6086C35.3653 34.8527 34.9695 34.8527 34.7254 34.6086L32.9588 32.8419C32.7147 32.5978 32.7147 32.2022 32.9588 31.9581Z" fill="white"/>
</g>
<path d="M59.3438 27.9531H55.0469L54.0156 31H52.1953L56.2656 19.7266H58.1562L62.2266 31H60.375L59.3438 27.9531ZM55.4922 26.5469H58.8984L57.2188 21.6016H57.1719L55.4922 26.5469ZM66.2734 31.0859C65.2057 31.0859 64.3438 30.6901 63.6875 29.8984C63.026 29.1068 62.6953 28.0573 62.6953 26.75C62.6953 25.4531 63.026 24.4062 63.6875 23.6094C64.3438 22.8229 65.2005 22.4297 66.2578 22.4297C67.5234 22.4297 68.4141 22.9271 68.9297 23.9219H68.9688V19.2188H70.6562V31H69.0156V29.5625H68.9844C68.4583 30.5781 67.5547 31.0859 66.2734 31.0859ZM66.7031 23.8672C66.0208 23.8672 65.4714 24.1302 65.0547 24.6562C64.638 25.1823 64.4297 25.8828 64.4297 26.7578C64.4297 27.638 64.638 28.3385 65.0547 28.8594C65.4661 29.3854 66.0156 29.6484 66.7031 29.6484C67.3854 29.6484 67.9349 29.3828 68.3516 28.8516C68.7682 28.3203 68.9766 27.6224 68.9766 26.7578C68.9766 25.8932 68.7682 25.1953 68.3516 24.6641C67.9297 24.1328 67.3802 23.8672 66.7031 23.8672ZM75.6484 31.0859C74.5807 31.0859 73.7188 30.6901 73.0625 29.8984C72.401 29.1068 72.0703 28.0573 72.0703 26.75C72.0703 25.4531 72.401 24.4062 73.0625 23.6094C73.7188 22.8229 74.5755 22.4297 75.6328 22.4297C76.8984 22.4297 77.7891 22.9271 78.3047 23.9219H78.3438V19.2188H80.0312V31H78.3906V29.5625H78.3594C77.8333 30.5781 76.9297 31.0859 75.6484 31.0859ZM76.0781 23.8672C75.3958 23.8672 74.8464 24.1302 74.4297 24.6562C74.013 25.1823 73.8047 25.8828 73.8047 26.7578C73.8047 27.638 74.013 28.3385 74.4297 28.8594C74.8411 29.3854 75.3906 29.6484 76.0781 29.6484C76.7604 29.6484 77.3099 29.3828 77.7266 28.8516C78.1432 28.3203 78.3516 27.6224 78.3516 26.7578C78.3516 25.8932 78.1432 25.1953 77.7266 24.6641C77.3047 24.1328 76.7552 23.8672 76.0781 23.8672ZM86.0234 23.8516H84.8516V22.5156H86.0234V21.7344C86.0234 20.9375 86.2161 20.3594 86.6016 20C86.987 19.6354 87.6068 19.4531 88.4609 19.4531C88.7318 19.4531 89.0182 19.4792 89.3203 19.5312V20.8203C89.138 20.7786 88.9271 20.7578 88.6875 20.7578C88.3385 20.7578 88.0885 20.8385 87.9375 21C87.7812 21.1615 87.7005 21.4245 87.6953 21.7891V22.5156H89.3281V23.8516H87.7109V31H86.0234V23.8516ZM90.7344 22.5156H92.3516V23.9453H92.3828C92.513 23.4714 92.763 23.1016 93.1328 22.8359C93.4974 22.5651 93.9297 22.4297 94.4297 22.4297C94.6641 22.4297 94.8516 22.4505 94.9922 22.4922V24.0781C94.8047 24.0052 94.5573 23.9688 94.25 23.9688C93.6927 23.9688 93.25 24.1484 92.9219 24.5078C92.5938 24.862 92.4297 25.3385 92.4297 25.9375V31H90.7344V22.5156ZM99.3828 31.1016C98.1536 31.1016 97.1771 30.7109 96.4531 29.9297C95.7292 29.1484 95.3672 28.0911 95.3672 26.7578C95.3672 25.4297 95.7318 24.3724 96.4609 23.5859C97.1849 22.7995 98.1589 22.4062 99.3828 22.4062C100.607 22.4062 101.581 22.7969 102.305 23.5781C103.029 24.3646 103.391 25.4245 103.391 26.7578C103.391 28.0911 103.029 29.1484 102.305 29.9297C101.586 30.7109 100.612 31.1016 99.3828 31.1016ZM99.3828 29.6953C100.102 29.6953 100.664 29.4375 101.07 28.9219C101.471 28.4062 101.672 27.6849 101.672 26.7578C101.672 25.8307 101.471 25.1094 101.07 24.5938C100.664 24.0729 100.102 23.8125 99.3828 23.8125C98.6641 23.8125 98.1016 24.0729 97.6953 24.5938C97.2891 25.1146 97.0859 25.8359 97.0859 26.7578C97.0859 27.6797 97.2891 28.401 97.6953 28.9219C98.1016 29.4375 98.6641 29.6953 99.3828 29.6953ZM104.75 22.5156H106.367V23.9531H106.398C106.591 23.4792 106.904 23.1042 107.336 22.8281C107.763 22.5573 108.255 22.4219 108.812 22.4219C110.036 22.4219 110.828 22.9714 111.188 24.0703H111.227C111.451 23.5599 111.797 23.1562 112.266 22.8594C112.74 22.5677 113.279 22.4219 113.883 22.4219C114.721 22.4219 115.391 22.6771 115.891 23.1875C116.396 23.6927 116.648 24.3698 116.648 25.2188V31H114.961V25.625C114.961 25.0677 114.818 24.638 114.531 24.3359C114.24 24.0286 113.831 23.875 113.305 23.875C112.784 23.875 112.359 24.0495 112.031 24.3984C111.698 24.7474 111.531 25.1927 111.531 25.7344V31H109.867V25.4844C109.867 24.9948 109.721 24.6042 109.43 24.3125C109.133 24.0208 108.737 23.875 108.242 23.875C107.721 23.875 107.292 24.0573 106.953 24.4219C106.615 24.7812 106.445 25.2396 106.445 25.7969V31H104.75V22.5156ZM126.617 19.7266C127.711 19.7266 128.604 20.0703 129.297 20.7578C129.99 21.4453 130.336 22.3359 130.336 23.4297C130.336 24.5286 129.984 25.4245 129.281 26.1172C128.578 26.8047 127.672 27.1484 126.562 27.1484H123.953V31H122.203V19.7266H126.617ZM123.953 25.6797H126.156C126.917 25.6797 127.505 25.4844 127.922 25.0938C128.339 24.6979 128.547 24.1458 128.547 23.4375C128.547 22.724 128.339 22.1745 127.922 21.7891C127.505 21.3984 126.917 21.2031 126.156 21.2031H123.953V25.6797ZM131.773 19.2188H133.453V23.9453H133.492C134.008 22.9297 134.927 22.4219 136.25 22.4219C137.182 22.4219 137.932 22.7083 138.5 23.2812C139.062 23.8542 139.344 24.6198 139.344 25.5781V31H137.656V25.9062C137.656 25.2708 137.479 24.7734 137.125 24.4141C136.771 24.0547 136.284 23.875 135.664 23.875C135.008 23.875 134.479 24.0833 134.078 24.5C133.672 24.9167 133.469 25.4635 133.469 26.1406V31H131.773V19.2188ZM144.68 31.1016C143.451 31.1016 142.474 30.7109 141.75 29.9297C141.026 29.1484 140.664 28.0911 140.664 26.7578C140.664 25.4297 141.029 24.3724 141.758 23.5859C142.482 22.7995 143.456 22.4062 144.68 22.4062C145.904 22.4062 146.878 22.7969 147.602 23.5781C148.326 24.3646 148.688 25.4245 148.688 26.7578C148.688 28.0911 148.326 29.1484 147.602 29.9297C146.883 30.7109 145.909 31.1016 144.68 31.1016ZM144.68 29.6953C145.398 29.6953 145.961 29.4375 146.367 28.9219C146.768 28.4062 146.969 27.6849 146.969 26.7578C146.969 25.8307 146.768 25.1094 146.367 24.5938C145.961 24.0729 145.398 23.8125 144.68 23.8125C143.961 23.8125 143.398 24.0729 142.992 24.5938C142.586 25.1146 142.383 25.8359 142.383 26.7578C142.383 27.6797 142.586 28.401 142.992 28.9219C143.398 29.4375 143.961 29.6953 144.68 29.6953ZM152.242 20.6094V22.5156H153.867V23.8516H152.242V28.5938C152.242 29.3125 152.589 29.6719 153.281 29.6719C153.484 29.6719 153.677 29.6589 153.859 29.6328V30.9688C153.63 31.026 153.312 31.0547 152.906 31.0547C152.057 31.0547 151.453 30.8776 151.094 30.5234C150.734 30.1745 150.555 29.5885 150.555 28.7656V23.8516H149.383V22.5156H150.555V20.6094H152.242ZM158.727 31.1016C157.497 31.1016 156.521 30.7109 155.797 29.9297C155.073 29.1484 154.711 28.0911 154.711 26.7578C154.711 25.4297 155.076 24.3724 155.805 23.5859C156.529 22.7995 157.503 22.4062 158.727 22.4062C159.951 22.4062 160.924 22.7969 161.648 23.5781C162.372 24.3646 162.734 25.4245 162.734 26.7578C162.734 28.0911 162.372 29.1484 161.648 29.9297C160.93 30.7109 159.956 31.1016 158.727 31.1016ZM158.727 29.6953C159.445 29.6953 160.008 29.4375 160.414 28.9219C160.815 28.4062 161.016 27.6849 161.016 26.7578C161.016 25.8307 160.815 25.1094 160.414 24.5938C160.008 24.0729 159.445 23.8125 158.727 23.8125C158.008 23.8125 157.445 24.0729 157.039 24.5938C156.633 25.1146 156.43 25.8359 156.43 26.7578C156.43 27.6797 156.633 28.401 157.039 28.9219C157.445 29.4375 158.008 29.6953 158.727 29.6953ZM163.953 24.9297C163.953 24.1849 164.258 23.5781 164.867 23.1094C165.477 22.6458 166.268 22.4141 167.242 22.4141C168.169 22.4141 168.938 22.651 169.547 23.125C170.151 23.5938 170.464 24.1979 170.484 24.9375H168.891C168.854 24.5625 168.685 24.2656 168.383 24.0469C168.081 23.8281 167.688 23.7188 167.203 23.7188C166.724 23.7188 166.336 23.8203 166.039 24.0234C165.747 24.2318 165.602 24.5026 165.602 24.8359C165.602 25.3464 166.042 25.7083 166.922 25.9219L168.328 26.2578C169.182 26.4661 169.786 26.7422 170.141 27.0859C170.495 27.4297 170.672 27.9141 170.672 28.5391C170.672 29.2943 170.346 29.9115 169.695 30.3906C169.044 30.8646 168.206 31.1016 167.18 31.1016C166.195 31.1016 165.388 30.8672 164.758 30.3984C164.133 29.9349 163.789 29.3177 163.727 28.5469H165.398C165.534 29.3854 166.156 29.8047 167.266 29.8047C167.792 29.8047 168.211 29.7031 168.523 29.5C168.831 29.2969 168.984 29.0234 168.984 28.6797C168.984 28.4089 168.891 28.1953 168.703 28.0391C168.521 27.8828 168.206 27.7474 167.758 27.6328L166.242 27.2578C164.716 26.8828 163.953 26.1068 163.953 24.9297Z" fill="white"/>
<defs>
<linearGradient id="paint0_linear_28_1575" x1="-7.00002" y1="-9.589" x2="403.868" y2="179.773" gradientUnits="userSpaceOnUse">
<stop stop-color="white"/>
<stop offset="1" stop-color="white" stop-opacity="0"/>
</linearGradient>
</defs>
</svg>
