<svg width="18" height="20" viewBox="0 0 18 20" fill="none" xmlns="http://www.w3.org/2000/svg">
<path d="M15.3375 2.67029e-05H4.55625C4.025 2.67029e-05 3.51875 0.206277 3.14375 0.587527L0.5875 3.13753C0.2125 3.51253 0 4.01878 0 4.55003V18C0 18.525 0.2125 19.0438 0.5875 19.4125C0.9625 19.7875 1.46875 20 2 20H15.3375C15.8625 20 16.3812 19.7875 16.75 19.4125C17.1187 19.0375 17.3375 18.525 17.3375 18V2.00003C17.3375 0.900027 16.4375 2.67029e-05 15.3375 2.67029e-05ZM7 17C7 16.175 7.8875 14.75 8.66875 13.725C9.45 14.75 10.3375 16.175 10.3375 17C10.3375 17.9188 9.5875 18.6688 8.66875 18.6688C7.75 18.6688 7 17.9188 7 17ZM16 18C16 18.175 15.9312 18.35 15.8062 18.4688C15.6812 18.5938 15.5125 18.6625 15.3375 18.6625H11.1625C11.4812 18.1875 11.6687 17.6125 11.6687 16.9938C11.6687 15.15 9.425 12.5188 9.175 12.225C8.91875 11.9313 8.41875 11.9313 8.16875 12.225C7.9125 12.5188 5.675 15.15 5.675 16.9938C5.675 17.6125 5.8625 18.1813 6.18125 18.6625H2C1.825 18.6625 1.65 18.5938 1.53125 18.4688C1.40625 18.3438 1.3375 18.175 1.3375 18V4.55003C1.3375 4.37503 1.40625 4.20003 1.53125 4.08128L4.08125 1.53128C4.20625 1.40628 4.375 1.33753 4.55 1.33753H8V5.33753H6.66875C6.3 5.33753 6 5.63753 6 6.00628C6 6.37503 6.3 6.67503 6.66875 6.67503H8V10.0063C8 10.375 8.3 10.675 8.66875 10.675C9.0375 10.675 9.3375 10.375 9.3375 10.0063V9.33753H10.6687C11.0375 9.33753 11.3375 9.03753 11.3375 8.66878C11.3375 8.30003 11.0375 8.00003 10.6687 8.00003H9.3375V4.00003H10.6687C11.0375 4.00003 11.3375 3.70003 11.3375 3.33128C11.3375 2.96253 11.0375 2.66253 10.6687 2.66253H9.3375V1.33128H15.3375C15.7062 1.33128 16.0062 1.63128 16.0062 2.00003V18H16Z" fill="white"/>
</svg>
