<svg width="345" height="50" viewBox="0 0 345 50" fill="none" xmlns="http://www.w3.org/2000/svg">
<rect width="345" height="50" rx="20" fill="#33333F"/>
<rect x="0.35" y="0.35" width="344.3" height="49.3" rx="19.65" stroke="url(#paint0_linear_26_827)" stroke-opacity="0.15" stroke-width="0.7"/>
<g opacity="0.35">
<g clip-path="url(#clip0_26_827)">
<path d="M27.6762 26.4671L31.0311 24.7331C31.3185 24.585 31.641 24.5066 31.9635 24.4978V17.5879C31.9635 16.1676 30.8045 14.9999 29.3753 14.9999H21.6988C21.0191 14.9999 20.3481 15.2788 19.8688 15.758L16.758 18.8688C16.2702 19.3568 16 20.0103 16 20.6987V31.0854C16 32.5057 17.1588 33.6733 18.5879 33.6733H28.234C27.2897 32.1699 26.747 30.2692 26.5347 28.6629C26.4128 27.7742 26.8659 26.8854 27.6762 26.4671ZM22.1606 18.4854H25.8116C26.2909 18.4854 26.683 18.8775 26.683 19.3568C26.683 19.8361 26.2909 20.2281 25.8116 20.2281H22.1606C21.6813 20.2281 21.2892 19.8361 21.2892 19.3568C21.2892 18.8775 21.6813 18.4854 22.1606 18.4854ZM22.6397 27.9833H20.3568C19.8775 27.9833 19.4855 27.5912 19.4855 27.1119C19.4855 26.624 19.8775 26.2406 20.3568 26.2406H22.6397C23.119 26.2406 23.5111 26.624 23.5111 27.1119C23.5111 27.5912 23.119 27.9833 22.6397 27.9833ZM20.3568 24.1057C19.8775 24.1057 19.4855 23.7136 19.4855 23.2344C19.4855 22.7551 19.8775 22.363 20.3568 22.363H27.6152C28.0945 22.363 28.4865 22.7551 28.4865 23.2344C28.4865 23.7136 28.0945 24.1057 27.6152 24.1057H20.3568Z" fill="white"/>
<path d="M35.9978 28.4364C36.0153 28.2621 35.9281 28.0966 35.7713 28.0181L32.1986 26.2754C32.1203 26.2406 32.0418 26.2318 31.9635 26.2493C31.9199 26.2493 31.8763 26.258 31.8327 26.2841L28.4781 28.0181C28.3211 28.0966 28.2341 28.2534 28.2602 28.4277C28.6271 30.9496 29.6345 33.7348 31.9548 34.8148C32.0593 34.8671 32.1899 34.8671 32.3033 34.8148C34.6188 33.7553 35.6295 30.9594 35.9978 28.4364Z" fill="white"/>
</g>
</g>
<path d="M57.4453 19.7266C58.5391 19.7266 59.4323 20.0703 60.125 20.7578C60.8177 21.4453 61.1641 22.3359 61.1641 23.4297C61.1641 24.5286 60.8125 25.4245 60.1094 26.1172C59.4062 26.8047 58.5 27.1484 57.3906 27.1484H54.7812V31H53.0312V19.7266H57.4453ZM54.7812 25.6797H56.9844C57.7448 25.6797 58.3333 25.4844 58.75 25.0938C59.1667 24.6979 59.375 24.1458 59.375 23.4375C59.375 22.724 59.1667 22.1745 58.75 21.7891C58.3333 21.3984 57.7448 21.2031 56.9844 21.2031H54.7812V25.6797ZM62.5312 22.5156H64.1484V23.9453H64.1797C64.3099 23.4714 64.5599 23.1016 64.9297 22.8359C65.2943 22.5651 65.7266 22.4297 66.2266 22.4297C66.4609 22.4297 66.6484 22.4505 66.7891 22.4922V24.0781C66.6016 24.0052 66.3542 23.9688 66.0469 23.9688C65.4896 23.9688 65.0469 24.1484 64.7188 24.5078C64.3906 24.862 64.2266 25.3385 64.2266 25.9375V31H62.5312V22.5156ZM67.9688 22.5156H69.6641V31H67.9688V22.5156ZM68.8203 21.3047C68.5443 21.3047 68.3099 21.2083 68.1172 21.0156C67.9245 20.8281 67.8281 20.599 67.8281 20.3281C67.8281 20.0521 67.9245 19.8203 68.1172 19.6328C68.3099 19.4453 68.5443 19.3516 68.8203 19.3516C69.0964 19.3516 69.3307 19.4453 69.5234 19.6328C69.7161 19.8203 69.8125 20.0521 69.8125 20.3281C69.8125 20.599 69.7161 20.8281 69.5234 21.0156C69.3307 21.2083 69.0964 21.3047 68.8203 21.3047ZM75.6172 31H73.8125L70.75 22.5156H72.5391L74.7031 29.3281H74.7422L76.9141 22.5156H78.6719L75.6172 31ZM82.4609 29.7344C83.0911 29.7344 83.6172 29.5547 84.0391 29.1953C84.4609 28.8307 84.6719 28.3698 84.6719 27.8125V27.1484L82.6094 27.2891C81.4375 27.362 80.8516 27.7786 80.8516 28.5391C80.8516 28.9036 80.9974 29.1927 81.2891 29.4062C81.5807 29.625 81.9714 29.7344 82.4609 29.7344ZM82.0078 31.0859C81.1589 31.0859 80.4688 30.8568 79.9375 30.3984C79.4062 29.9349 79.1406 29.3255 79.1406 28.5703C79.1406 27.8307 79.4193 27.25 79.9766 26.8281C80.5286 26.4062 81.3307 26.1615 82.3828 26.0938L84.6719 25.9609V25.3047C84.6719 24.8203 84.5156 24.4479 84.2031 24.1875C83.8958 23.9323 83.4583 23.8047 82.8906 23.8047C82.4323 23.8047 82.0443 23.9141 81.7266 24.1328C81.4141 24.3516 81.2214 24.6458 81.1484 25.0156H79.5625C79.5885 24.2656 79.9193 23.6432 80.5547 23.1484C81.1901 22.6536 81.9844 22.4062 82.9375 22.4062C83.974 22.4062 84.7995 22.6589 85.4141 23.1641C86.0339 23.6693 86.3438 24.3411 86.3438 25.1797V31H84.7266V29.5859H84.6875C84.4531 30.0443 84.0938 30.4089 83.6094 30.6797C83.125 30.9505 82.5911 31.0859 82.0078 31.0859ZM93.6797 25.4141C93.5964 24.9453 93.3854 24.5703 93.0469 24.2891C92.6823 23.987 92.2188 23.8359 91.6562 23.8359C90.9688 23.8359 90.4193 24.099 90.0078 24.625C89.5911 25.1615 89.3828 25.8724 89.3828 26.7578C89.3828 27.6641 89.5938 28.3802 90.0156 28.9062C90.4271 29.4219 90.9766 29.6797 91.6641 29.6797C92.8099 29.6797 93.487 29.1693 93.6953 28.1484H95.3125C95.2135 29.0391 94.8359 29.7526 94.1797 30.2891C93.513 30.8307 92.6719 31.1016 91.6562 31.1016C90.4479 31.1016 89.4818 30.7135 88.7578 29.9375C88.0286 29.151 87.6641 28.0911 87.6641 26.7578C87.6641 25.4401 88.026 24.3854 88.75 23.5938C89.474 22.8021 90.4375 22.4062 91.6406 22.4062C92.6875 22.4062 93.5495 22.7031 94.2266 23.2969C94.862 23.8542 95.2188 24.5599 95.2969 25.4141H93.6797ZM97.4141 34.0859C97.1328 34.0859 96.9036 34.0703 96.7266 34.0391V32.6641C96.8307 32.6901 97.0104 32.7031 97.2656 32.7031C97.6719 32.7031 97.9922 32.6094 98.2266 32.4219C98.4661 32.2292 98.6589 31.9089 98.8047 31.4609L98.9375 31.0234L95.8594 22.5156H97.6797L99.8594 29.4531H99.8984L102.078 22.5156H103.859L100.68 31.3906C100.315 32.4062 99.8958 33.1094 99.4219 33.5C98.9531 33.8906 98.2839 34.0859 97.4141 34.0859ZM112.953 22.4297C114.036 22.4297 114.904 22.8229 115.555 23.6094C116.211 24.3958 116.539 25.4453 116.539 26.7578C116.539 28.0651 116.214 29.1146 115.562 29.9062C114.917 30.6927 114.06 31.0859 112.992 31.0859C111.732 31.0859 110.836 30.5938 110.305 29.6094H110.273V33.7734H108.578V22.5156H110.211V23.9219H110.25C110.49 23.4635 110.852 23.1016 111.336 22.8359C111.826 22.5651 112.365 22.4297 112.953 22.4297ZM112.523 29.6484C113.211 29.6484 113.763 29.3854 114.18 28.8594C114.596 28.3333 114.805 27.6328 114.805 26.7578C114.805 25.8828 114.596 25.1823 114.18 24.6562C113.763 24.1302 113.211 23.8672 112.523 23.8672C111.852 23.8672 111.307 24.1328 110.891 24.6641C110.474 25.1953 110.263 25.8932 110.258 26.7578C110.263 27.6224 110.474 28.3203 110.891 28.8516C111.302 29.3828 111.846 29.6484 112.523 29.6484ZM121.523 31.1016C120.294 31.1016 119.318 30.7109 118.594 29.9297C117.87 29.1484 117.508 28.0911 117.508 26.7578C117.508 25.4297 117.872 24.3724 118.602 23.5859C119.326 22.7995 120.299 22.4062 121.523 22.4062C122.747 22.4062 123.721 22.7969 124.445 23.5781C125.169 24.3646 125.531 25.4245 125.531 26.7578C125.531 28.0911 125.169 29.1484 124.445 29.9297C123.727 30.7109 122.753 31.1016 121.523 31.1016ZM121.523 29.6953C122.242 29.6953 122.805 29.4375 123.211 28.9219C123.612 28.4062 123.812 27.6849 123.812 26.7578C123.812 25.8307 123.612 25.1094 123.211 24.5938C122.805 24.0729 122.242 23.8125 121.523 23.8125C120.805 23.8125 120.242 24.0729 119.836 24.5938C119.43 25.1146 119.227 25.8359 119.227 26.7578C119.227 27.6797 119.43 28.401 119.836 28.9219C120.242 29.4375 120.805 29.6953 121.523 29.6953ZM126.961 19.2188H128.656V31H126.961V19.2188ZM130.531 22.5156H132.227V31H130.531V22.5156ZM131.383 21.3047C131.107 21.3047 130.872 21.2083 130.68 21.0156C130.487 20.8281 130.391 20.599 130.391 20.3281C130.391 20.0521 130.487 19.8203 130.68 19.6328C130.872 19.4453 131.107 19.3516 131.383 19.3516C131.659 19.3516 131.893 19.4453 132.086 19.6328C132.279 19.8203 132.375 20.0521 132.375 20.3281C132.375 20.599 132.279 20.8281 132.086 21.0156C131.893 21.2083 131.659 21.3047 131.383 21.3047ZM139.664 25.4141C139.581 24.9453 139.37 24.5703 139.031 24.2891C138.667 23.987 138.203 23.8359 137.641 23.8359C136.953 23.8359 136.404 24.099 135.992 24.625C135.576 25.1615 135.367 25.8724 135.367 26.7578C135.367 27.6641 135.578 28.3802 136 28.9062C136.411 29.4219 136.961 29.6797 137.648 29.6797C138.794 29.6797 139.471 29.1693 139.68 28.1484H141.297C141.198 29.0391 140.82 29.7526 140.164 30.2891C139.497 30.8307 138.656 31.1016 137.641 31.1016C136.432 31.1016 135.466 30.7135 134.742 29.9375C134.013 29.151 133.648 28.0911 133.648 26.7578C133.648 25.4401 134.01 24.3854 134.734 23.5938C135.458 22.8021 136.422 22.4062 137.625 22.4062C138.672 22.4062 139.534 22.7031 140.211 23.2969C140.846 23.8542 141.203 24.5599 141.281 25.4141H139.664ZM143.398 34.0859C143.117 34.0859 142.888 34.0703 142.711 34.0391V32.6641C142.815 32.6901 142.995 32.7031 143.25 32.7031C143.656 32.7031 143.977 32.6094 144.211 32.4219C144.451 32.2292 144.643 31.9089 144.789 31.4609L144.922 31.0234L141.844 22.5156H143.664L145.844 29.4531H145.883L148.062 22.5156H149.844L146.664 31.3906C146.299 32.4062 145.88 33.1094 145.406 33.5C144.938 33.8906 144.268 34.0859 143.398 34.0859Z" fill="white"/>
<defs>
<linearGradient id="paint0_linear_26_827" x1="-7.00002" y1="-9.589" x2="403.868" y2="179.773" gradientUnits="userSpaceOnUse">
<stop stop-color="white"/>
<stop offset="1" stop-color="white" stop-opacity="0"/>
</linearGradient>
<clipPath id="clip0_26_827">
<rect width="20" height="20" fill="white" transform="translate(16 15)"/>
</clipPath>
</defs>
</svg>
