<svg width="345" height="50" viewBox="0 0 345 50" fill="none" xmlns="http://www.w3.org/2000/svg">
<rect width="345" height="50" rx="20" fill="#33333F"/>
<rect x="0.35" y="0.35" width="344.3" height="49.3" rx="19.65" stroke="url(#paint0_linear_26_832)" stroke-opacity="0.15" stroke-width="0.7"/>
<g opacity="0.35">
<g clip-path="url(#clip0_26_832)">
<path fill-rule="evenodd" clip-rule="evenodd" d="M21.0209 16.2744C24.2939 15.9085 27.677 15.9085 30.9499 16.2744C32.886 16.4907 34.4495 18.0158 34.6773 19.9631C35.0687 23.3096 35.0687 26.6903 34.6773 30.0369C34.4495 31.9842 32.886 33.5093 30.9499 33.7256C27.677 34.0915 24.2939 34.0915 21.0209 33.7256C19.0848 33.5093 17.5213 31.9842 17.2936 30.0369C16.9021 26.6903 16.9021 23.3096 17.2936 19.9631C17.5213 18.0158 19.0848 16.4907 21.0209 16.2744ZM27.0455 20.7597C27.0455 21.3452 26.5709 21.8198 25.9854 21.8198C25.4 21.8198 24.9254 21.3452 24.9254 20.7597C24.9254 20.1743 25.4 19.6997 25.9854 19.6997C26.5709 19.6997 27.0455 20.1743 27.0455 20.7597ZM25.9854 23.6749C26.4245 23.6749 26.7805 24.0308 26.7805 24.4699V29.7702C26.7805 30.2094 26.4245 30.5653 25.9854 30.5653C25.5464 30.5653 25.1904 30.2094 25.1904 29.7702V24.4699C25.1904 24.0308 25.5464 23.6749 25.9854 23.6749Z" fill="white"/>
</g>
</g>
<path d="M59.3438 27.9531H55.0469L54.0156 31H52.1953L56.2656 19.7266H58.1562L62.2266 31H60.375L59.3438 27.9531ZM55.4922 26.5469H58.8984L57.2188 21.6016H57.1719L55.4922 26.5469ZM67.7656 31.0859C66.4948 31.0859 65.5859 30.5781 65.0391 29.5625H65V31H63.3672V19.2188H65.0625V23.9219H65.0938C65.6302 22.9271 66.526 22.4297 67.7812 22.4297C68.8542 22.4297 69.7135 22.8229 70.3594 23.6094C71.0052 24.3958 71.3281 25.4453 71.3281 26.7578C71.3281 28.0703 71.0052 29.1198 70.3594 29.9062C69.7083 30.6927 68.8438 31.0859 67.7656 31.0859ZM67.3359 23.8672C66.6536 23.8672 66.1016 24.1328 65.6797 24.6641C65.263 25.2005 65.0547 25.8984 65.0547 26.7578C65.0547 27.6224 65.263 28.3203 65.6797 28.8516C66.1016 29.3828 66.6536 29.6484 67.3359 29.6484C68.0182 29.6484 68.5651 29.3854 68.9766 28.8594C69.388 28.3385 69.5938 27.638 69.5938 26.7578C69.5938 25.8776 69.388 25.1771 68.9766 24.6562C68.5651 24.1302 68.0182 23.8672 67.3359 23.8672ZM76.3203 31.1016C75.0911 31.1016 74.1146 30.7109 73.3906 29.9297C72.6667 29.1484 72.3047 28.0911 72.3047 26.7578C72.3047 25.4297 72.6693 24.3724 73.3984 23.5859C74.1224 22.7995 75.0964 22.4062 76.3203 22.4062C77.5443 22.4062 78.5182 22.7969 79.2422 23.5781C79.9661 24.3646 80.3281 25.4245 80.3281 26.7578C80.3281 28.0911 79.9661 29.1484 79.2422 29.9297C78.5234 30.7109 77.5495 31.1016 76.3203 31.1016ZM76.3203 29.6953C77.0391 29.6953 77.6016 29.4375 78.0078 28.9219C78.4089 28.4062 78.6094 27.6849 78.6094 26.7578C78.6094 25.8307 78.4089 25.1094 78.0078 24.5938C77.6016 24.0729 77.0391 23.8125 76.3203 23.8125C75.6016 23.8125 75.0391 24.0729 74.6328 24.5938C74.2266 25.1146 74.0234 25.8359 74.0234 26.7578C74.0234 27.6797 74.2266 28.401 74.6328 28.9219C75.0391 29.4375 75.6016 29.6953 76.3203 29.6953ZM89.0781 31H87.4609V29.5469H87.4297C86.9245 30.5781 86.0104 31.0938 84.6875 31.0938C83.7604 31.0938 83.0234 30.8125 82.4766 30.25C81.9245 29.6875 81.6484 28.9219 81.6484 27.9531V22.5156H83.3438V27.6328C83.3438 28.2839 83.5104 28.7812 83.8438 29.125C84.1771 29.4635 84.651 29.6328 85.2656 29.6328C85.901 29.6328 86.4115 29.4297 86.7969 29.0234C87.1875 28.6172 87.3828 28.0781 87.3828 27.4062V22.5156H89.0781V31ZM93.0078 20.6094V22.5156H94.6328V23.8516H93.0078V28.5938C93.0078 29.3125 93.3542 29.6719 94.0469 29.6719C94.25 29.6719 94.4427 29.6589 94.625 29.6328V30.9688C94.3958 31.026 94.0781 31.0547 93.6719 31.0547C92.8229 31.0547 92.2188 30.8776 91.8594 30.5234C91.5 30.1745 91.3203 29.5885 91.3203 28.7656V23.8516H90.1484V22.5156H91.3203V20.6094H93.0078ZM107.141 31H105.523V29.5469H105.492C104.987 30.5781 104.073 31.0938 102.75 31.0938C101.823 31.0938 101.086 30.8125 100.539 30.25C99.987 29.6875 99.7109 28.9219 99.7109 27.9531V22.5156H101.406V27.6328C101.406 28.2839 101.573 28.7812 101.906 29.125C102.24 29.4635 102.714 29.6328 103.328 29.6328C103.964 29.6328 104.474 29.4297 104.859 29.0234C105.25 28.6172 105.445 28.0781 105.445 27.4062V22.5156H107.141V31ZM108.734 24.9297C108.734 24.1849 109.039 23.5781 109.648 23.1094C110.258 22.6458 111.049 22.4141 112.023 22.4141C112.951 22.4141 113.719 22.651 114.328 23.125C114.932 23.5938 115.245 24.1979 115.266 24.9375H113.672C113.635 24.5625 113.466 24.2656 113.164 24.0469C112.862 23.8281 112.469 23.7188 111.984 23.7188C111.505 23.7188 111.117 23.8203 110.82 24.0234C110.529 24.2318 110.383 24.5026 110.383 24.8359C110.383 25.3464 110.823 25.7083 111.703 25.9219L113.109 26.2578C113.964 26.4661 114.568 26.7422 114.922 27.0859C115.276 27.4297 115.453 27.9141 115.453 28.5391C115.453 29.2943 115.128 29.9115 114.477 30.3906C113.826 30.8646 112.987 31.1016 111.961 31.1016C110.977 31.1016 110.169 30.8672 109.539 30.3984C108.914 29.9349 108.57 29.3177 108.508 28.5469H110.18C110.315 29.3854 110.938 29.8047 112.047 29.8047C112.573 29.8047 112.992 29.7031 113.305 29.5C113.612 29.2969 113.766 29.0234 113.766 28.6797C113.766 28.4089 113.672 28.1953 113.484 28.0391C113.302 27.8828 112.987 27.7474 112.539 27.6328L111.023 27.2578C109.497 26.8828 108.734 26.1068 108.734 24.9297Z" fill="white"/>
<defs>
<linearGradient id="paint0_linear_26_832" x1="-7.00002" y1="-9.589" x2="403.868" y2="179.773" gradientUnits="userSpaceOnUse">
<stop stop-color="white"/>
<stop offset="1" stop-color="white" stop-opacity="0"/>
</linearGradient>
<clipPath id="clip0_26_832">
<rect width="18" height="18" fill="white" transform="translate(17 16)"/>
</clipPath>
</defs>
</svg>
