<svg width="212" height="213" viewBox="0 0 212 213" fill="none" xmlns="http://www.w3.org/2000/svg">
<g filter="url(#filter0_b_5_15)">
<path d="M0 14.4065C0 6.45001 6.45001 0 14.4065 0H47.6543C55.6108 0 62.0608 6.45237 62.0608 14.4089C62.0608 22.2459 68.3255 28.6477 76.1608 28.8144L126.795 29.8917C134.63 30.0584 140.895 36.4579 140.895 44.295V106.36C140.895 114.317 134.445 120.767 126.488 120.767H14.4065C6.45002 120.767 0 114.317 0 106.36V14.4065Z" fill="url(#paint0_linear_5_15)"/>
<path d="M37.2732 58.5557C37.2732 50.5992 43.7232 44.1492 51.6797 44.1492H84.9275C92.884 44.1492 99.334 50.6015 99.334 58.558C99.334 66.3951 105.599 72.7969 113.434 72.9636L164.068 74.0409C171.903 74.2076 178.168 80.6071 178.168 88.4441V150.51C178.168 158.466 171.718 164.916 163.761 164.916H51.6797C43.7232 164.916 37.2732 158.466 37.2732 150.51V58.5557Z" fill="url(#paint1_linear_5_15)"/>
<path d="M70.3919 106.026C70.3919 98.0694 76.8419 91.6194 84.7984 91.6194H118.046C126.003 91.6194 132.453 98.0718 132.453 106.028C132.453 113.865 138.717 120.267 146.553 120.434L197.187 121.511C205.022 121.678 211.287 128.077 211.287 135.914V197.98C211.287 205.936 204.837 212.386 196.88 212.386H84.7984C76.8419 212.386 70.3919 205.936 70.3919 197.98V106.026Z" fill="url(#paint2_linear_5_15)"/>
<path d="M0.363609 14.4065C0.363609 6.65083 6.65082 0.363609 14.4065 0.363609H47.6543C55.4099 0.363609 61.6972 6.65311 61.6972 14.4089C61.6972 22.4436 68.12 29.007 76.1531 29.1779L126.787 30.2553C134.424 30.4178 140.531 36.6557 140.531 44.295V73.1764L113.442 72.6001C105.804 72.4375 99.6976 66.1974 99.6976 58.558C99.6976 50.4008 93.0849 43.7856 84.9275 43.7856H51.6797C43.5224 43.7856 36.9096 50.3984 36.9096 58.5557V120.403H14.4065C6.65084 120.403 0.363609 114.116 0.363609 106.36V14.4065ZM113.426 73.3271L140.531 73.9038V106.36C140.531 110.024 139.128 113.359 136.831 115.86C134.346 113.324 132.816 109.851 132.816 106.028C132.816 97.871 126.204 91.2558 118.046 91.2558H84.7984C76.6411 91.2558 70.0283 97.8686 70.0283 106.026V120.403H37.6368V58.5557C37.6368 50.8 43.924 44.5128 51.6797 44.5128H84.9275C92.6831 44.5128 98.9704 50.8023 98.9704 58.558C98.9704 66.5928 105.393 73.1562 113.426 73.3271ZM137.353 116.366C139.778 113.735 141.258 110.22 141.258 106.36V73.9193L164.06 74.4044C171.698 74.5669 177.804 80.8049 177.804 88.4441V120.735L146.56 120.07C143.006 119.995 139.783 118.603 137.353 116.366ZM132.089 106.028C132.089 110.056 133.703 113.714 136.325 116.382C133.791 118.869 130.319 120.403 126.488 120.403H70.7555V106.026C70.7555 98.2702 77.0427 91.983 84.7984 91.983H118.046C125.802 91.983 132.089 98.2725 132.089 106.028ZM70.7555 121.131H126.488C130.524 121.131 134.181 119.512 136.847 116.889C139.405 119.249 142.8 120.718 146.545 120.797L177.804 121.462V150.51C177.804 158.265 171.517 164.552 163.761 164.552H70.7555V121.131ZM37.6368 121.131H70.0283V164.552H51.6797C43.924 164.552 37.6368 158.265 37.6368 150.51V121.131ZM178.532 150.51V121.478L197.179 121.875C204.816 122.037 210.923 128.275 210.923 135.914V197.98C210.923 205.735 204.636 212.023 196.88 212.023H84.7984C77.0427 212.023 70.7555 205.735 70.7555 197.98V165.28H163.761C171.919 165.28 178.532 158.667 178.532 150.51Z" stroke="url(#paint3_linear_5_15)" stroke-opacity="0.15" stroke-width="0.727219"/>
</g>
<defs>
<filter id="filter0_b_5_15" x="-25.9317" y="-25.9317" width="263.15" height="264.25" filterUnits="userSpaceOnUse" color-interpolation-filters="sRGB">
<feFlood flood-opacity="0" result="BackgroundImageFix"/>
<feGaussianBlur in="BackgroundImageFix" stdDeviation="12.9658"/>
<feComposite in2="SourceAlpha" operator="in" result="effect1_backgroundBlur_5_15"/>
<feBlend mode="normal" in="SourceGraphic" in2="effect1_backgroundBlur_5_15" result="shape"/>
</filter>
<linearGradient id="paint0_linear_5_15" x1="71.3237" y1="80.1995" x2="217.669" y2="248.108" gradientUnits="userSpaceOnUse">
<stop stop-color="#664AFF"/>
<stop offset="0.593749" stop-color="#8A79E8" stop-opacity="0.375782"/>
<stop offset="1" stop-color="#664AFF" stop-opacity="0.15"/>
</linearGradient>
<linearGradient id="paint1_linear_5_15" x1="71.3237" y1="80.1995" x2="217.669" y2="248.108" gradientUnits="userSpaceOnUse">
<stop stop-color="#664AFF"/>
<stop offset="0.593749" stop-color="#8A79E8" stop-opacity="0.375782"/>
<stop offset="1" stop-color="#664AFF" stop-opacity="0.15"/>
</linearGradient>
<linearGradient id="paint2_linear_5_15" x1="71.3237" y1="80.1995" x2="217.669" y2="248.108" gradientUnits="userSpaceOnUse">
<stop stop-color="#664AFF"/>
<stop offset="0.593749" stop-color="#8A79E8" stop-opacity="0.375782"/>
<stop offset="1" stop-color="#664AFF" stop-opacity="0.15"/>
</linearGradient>
<linearGradient id="paint3_linear_5_15" x1="67.5332" y1="68.4588" x2="269.741" y2="84.2163" gradientUnits="userSpaceOnUse">
<stop stop-color="white"/>
<stop offset="0.612498" stop-color="white" stop-opacity="0"/>
</linearGradient>
</defs>
</svg>
