<svg width="345" height="50" viewBox="0 0 345 50" fill="none" xmlns="http://www.w3.org/2000/svg">
<rect width="345" height="50" rx="20" fill="#33333F"/>
<rect x="0.35" y="0.35" width="344.3" height="49.3" rx="19.65" stroke="url(#paint0_linear_26_817)" stroke-opacity="0.15" stroke-width="0.7"/>
<g opacity="0.35">
<g clip-path="url(#clip0_26_817)">
<path d="M26 15C20.4858 15 16 19.4858 16 25C16 30.5142 20.4858 35 26 35C31.5142 35 36 30.5142 36 25C36 19.4858 31.5142 15 26 15ZM26 30.8333C25.5399 30.8333 25.1667 30.4601 25.1667 30C25.1667 29.5399 25.5399 29.1667 26 29.1667C26.4601 29.1667 26.8333 29.5399 26.8333 30C26.8333 30.4601 26.4601 30.8333 26 30.8333ZM27.3191 25.535C27.0242 25.6708 26.8333 25.9683 26.8333 26.2926V26.6667C26.8333 27.1266 26.4608 27.5 26 27.5C25.5392 27.5 25.1667 27.1266 25.1667 26.6667V26.2926C25.1667 25.32 25.7383 24.4284 26.6209 24.0208C27.47 23.6301 28.0833 22.5925 28.0833 22.0833C28.0833 20.9351 27.1491 20 26 20C24.8509 20 23.9167 20.9351 23.9167 22.0833C23.9167 22.5433 23.5441 22.9167 23.0833 22.9167C22.6225 22.9167 22.25 22.5433 22.25 22.0833C22.25 20.0159 23.9324 18.3333 26 18.3333C28.0676 18.3333 29.75 20.0159 29.75 22.0833C29.75 23.2092 28.7733 24.8642 27.3191 25.535Z" fill="white"/>
</g>
</g>
<path d="M60.5703 31V26.0078H54.7812V31H53.0312V19.7266H54.7812V24.4922H60.5703V19.7266H62.3203V31H60.5703ZM67.75 23.7891C67.1406 23.7891 66.6354 23.9922 66.2344 24.3984C65.8281 24.8047 65.6016 25.3333 65.5547 25.9844H69.8594C69.8385 25.3229 69.6354 24.7917 69.25 24.3906C68.8646 23.9896 68.3646 23.7891 67.75 23.7891ZM71.4688 28.5156C71.349 29.276 70.9505 29.8984 70.2734 30.3828C69.5964 30.862 68.7812 31.1016 67.8281 31.1016C66.599 31.1016 65.625 30.7135 64.9062 29.9375C64.1927 29.1667 63.8359 28.1172 63.8359 26.7891C63.8359 25.4609 64.1927 24.3984 64.9062 23.6016C65.6198 22.8047 66.5703 22.4062 67.7578 22.4062C68.9245 22.4062 69.849 22.7839 70.5312 23.5391C71.2135 24.2891 71.5547 25.3073 71.5547 26.5938V27.1875H65.5469V27.2891C65.5469 28.0234 65.7578 28.612 66.1797 29.0547C66.6016 29.5026 67.1615 29.7266 67.8594 29.7266C68.3542 29.7266 68.7812 29.6172 69.1406 29.3984C69.5 29.1797 69.737 28.8854 69.8516 28.5156H71.4688ZM72.9922 19.2188H74.6875V31H72.9922V19.2188ZM80.875 22.4297C81.9583 22.4297 82.8255 22.8229 83.4766 23.6094C84.1328 24.3958 84.4609 25.4453 84.4609 26.7578C84.4609 28.0651 84.1354 29.1146 83.4844 29.9062C82.8385 30.6927 81.9818 31.0859 80.9141 31.0859C79.6536 31.0859 78.7578 30.5938 78.2266 29.6094H78.1953V33.7734H76.5V22.5156H78.1328V23.9219H78.1719C78.4115 23.4635 78.7734 23.1016 79.2578 22.8359C79.7474 22.5651 80.2865 22.4297 80.875 22.4297ZM80.4453 29.6484C81.1328 29.6484 81.6849 29.3854 82.1016 28.8594C82.5182 28.3333 82.7266 27.6328 82.7266 26.7578C82.7266 25.8828 82.5182 25.1823 82.1016 24.6562C81.6849 24.1302 81.1328 23.8672 80.4453 23.8672C79.7734 23.8672 79.2292 24.1328 78.8125 24.6641C78.3958 25.1953 78.1849 25.8932 78.1797 26.7578C78.1849 27.6224 78.3958 28.3203 78.8125 28.8516C79.224 29.3828 79.7682 29.6484 80.4453 29.6484Z" fill="white"/>
<defs>
<linearGradient id="paint0_linear_26_817" x1="-7.00002" y1="-9.589" x2="403.868" y2="179.773" gradientUnits="userSpaceOnUse">
<stop stop-color="white"/>
<stop offset="1" stop-color="white" stop-opacity="0"/>
</linearGradient>
<clipPath id="clip0_26_817">
<rect width="20" height="20" fill="white" transform="translate(16 15)"/>
</clipPath>
</defs>
</svg>
