<svg width="345" height="50" viewBox="0 0 345 50" fill="none" xmlns="http://www.w3.org/2000/svg">
<rect width="345" height="50" rx="20" fill="#33333F"/>
<rect x="0.35" y="0.35" width="344.3" height="49.3" rx="19.65" stroke="url(#paint0_linear_39_6696)" stroke-opacity="0.15" stroke-width="0.7"/>
<path d="M58.5 21.2422V21.2031H52.5547V19.7266H60.2266V21.2422L55.3281 31H53.4922L58.5 21.2422ZM61.4688 29.8984L66.0312 23.8906V23.8672H61.4922V22.5156H67.9609V23.6797L63.5078 29.6172V29.6484H68.0078V31H61.4688V29.8984ZM78.8984 25.4141C78.8151 24.9453 78.6042 24.5703 78.2656 24.2891C77.901 23.987 77.4375 23.8359 76.875 23.8359C76.1875 23.8359 75.638 24.099 75.2266 24.625C74.8099 25.1615 74.6016 25.8724 74.6016 26.7578C74.6016 27.6641 74.8125 28.3802 75.2344 28.9062C75.6458 29.4219 76.1953 29.6797 76.8828 29.6797C78.0286 29.6797 78.7057 29.1693 78.9141 28.1484H80.5312C80.4323 29.0391 80.0547 29.7526 79.3984 30.2891C78.7318 30.8307 77.8906 31.1016 76.875 31.1016C75.6667 31.1016 74.7005 30.7135 73.9766 29.9375C73.2474 29.151 72.8828 28.0911 72.8828 26.7578C72.8828 25.4401 73.2448 24.3854 73.9688 23.5938C74.6927 22.8021 75.6562 22.4062 76.8594 22.4062C77.9062 22.4062 78.7682 22.7031 79.4453 23.2969C80.0807 23.8542 80.4375 24.5599 80.5156 25.4141H78.8984ZM85.4141 31.1016C84.1849 31.1016 83.2083 30.7109 82.4844 29.9297C81.7604 29.1484 81.3984 28.0911 81.3984 26.7578C81.3984 25.4297 81.763 24.3724 82.4922 23.5859C83.2161 22.7995 84.1901 22.4062 85.4141 22.4062C86.638 22.4062 87.612 22.7969 88.3359 23.5781C89.0599 24.3646 89.4219 25.4245 89.4219 26.7578C89.4219 28.0911 89.0599 29.1484 88.3359 29.9297C87.6172 30.7109 86.6432 31.1016 85.4141 31.1016ZM85.4141 29.6953C86.1328 29.6953 86.6953 29.4375 87.1016 28.9219C87.5026 28.4062 87.7031 27.6849 87.7031 26.7578C87.7031 25.8307 87.5026 25.1094 87.1016 24.5938C86.6953 24.0729 86.1328 23.8125 85.4141 23.8125C84.6953 23.8125 84.1328 24.0729 83.7266 24.5938C83.3203 25.1146 83.1172 25.8359 83.1172 26.7578C83.1172 27.6797 83.3203 28.401 83.7266 28.9219C84.1328 29.4375 84.6953 29.6953 85.4141 29.6953ZM90.7812 22.5156H92.3984V23.9531H92.4297C92.6224 23.4792 92.9349 23.1042 93.3672 22.8281C93.7943 22.5573 94.2865 22.4219 94.8438 22.4219C96.0677 22.4219 96.8594 22.9714 97.2188 24.0703H97.2578C97.4818 23.5599 97.8281 23.1562 98.2969 22.8594C98.7708 22.5677 99.3099 22.4219 99.9141 22.4219C100.753 22.4219 101.422 22.6771 101.922 23.1875C102.427 23.6927 102.68 24.3698 102.68 25.2188V31H100.992V25.625C100.992 25.0677 100.849 24.638 100.562 24.3359C100.271 24.0286 99.862 23.875 99.3359 23.875C98.8151 23.875 98.3906 24.0495 98.0625 24.3984C97.7292 24.7474 97.5625 25.1927 97.5625 25.7344V31H95.8984V25.4844C95.8984 24.9948 95.7526 24.6042 95.4609 24.3125C95.1641 24.0208 94.7682 23.875 94.2734 23.875C93.7526 23.875 93.3229 24.0573 92.9844 24.4219C92.6458 24.7812 92.4766 25.2396 92.4766 25.7969V31H90.7812V22.5156ZM108.75 22.4297C109.833 22.4297 110.701 22.8229 111.352 23.6094C112.008 24.3958 112.336 25.4453 112.336 26.7578C112.336 28.0651 112.01 29.1146 111.359 29.9062C110.714 30.6927 109.857 31.0859 108.789 31.0859C107.529 31.0859 106.633 30.5938 106.102 29.6094H106.07V33.7734H104.375V22.5156H106.008V23.9219H106.047C106.286 23.4635 106.648 23.1016 107.133 22.8359C107.622 22.5651 108.161 22.4297 108.75 22.4297ZM108.32 29.6484C109.008 29.6484 109.56 29.3854 109.977 28.8594C110.393 28.3333 110.602 27.6328 110.602 26.7578C110.602 25.8828 110.393 25.1823 109.977 24.6562C109.56 24.1302 109.008 23.8672 108.32 23.8672C107.648 23.8672 107.104 24.1328 106.688 24.6641C106.271 25.1953 106.06 25.8932 106.055 26.7578C106.06 27.6224 106.271 28.3203 106.688 28.8516C107.099 29.3828 107.643 29.6484 108.32 29.6484ZM113.688 22.5156H115.305V23.9453H115.336C115.466 23.4714 115.716 23.1016 116.086 22.8359C116.451 22.5651 116.883 22.4297 117.383 22.4297C117.617 22.4297 117.805 22.4505 117.945 22.4922V24.0781C117.758 24.0052 117.51 23.9688 117.203 23.9688C116.646 23.9688 116.203 24.1484 115.875 24.5078C115.547 24.862 115.383 25.3385 115.383 25.9375V31H113.688V22.5156ZM122.234 23.7891C121.625 23.7891 121.12 23.9922 120.719 24.3984C120.312 24.8047 120.086 25.3333 120.039 25.9844H124.344C124.323 25.3229 124.12 24.7917 123.734 24.3906C123.349 23.9896 122.849 23.7891 122.234 23.7891ZM125.953 28.5156C125.833 29.276 125.435 29.8984 124.758 30.3828C124.081 30.862 123.266 31.1016 122.312 31.1016C121.083 31.1016 120.109 30.7135 119.391 29.9375C118.677 29.1667 118.32 28.1172 118.32 26.7891C118.32 25.4609 118.677 24.3984 119.391 23.6016C120.104 22.8047 121.055 22.4062 122.242 22.4062C123.409 22.4062 124.333 22.7839 125.016 23.5391C125.698 24.2891 126.039 25.3073 126.039 26.5938V27.1875H120.031V27.2891C120.031 28.0234 120.242 28.612 120.664 29.0547C121.086 29.5026 121.646 29.7266 122.344 29.7266C122.839 29.7266 123.266 29.6172 123.625 29.3984C123.984 29.1797 124.221 28.8854 124.336 28.5156H125.953ZM127.266 24.9297C127.266 24.1849 127.57 23.5781 128.18 23.1094C128.789 22.6458 129.581 22.4141 130.555 22.4141C131.482 22.4141 132.25 22.651 132.859 23.125C133.464 23.5938 133.776 24.1979 133.797 24.9375H132.203C132.167 24.5625 131.997 24.2656 131.695 24.0469C131.393 23.8281 131 23.7188 130.516 23.7188C130.036 23.7188 129.648 23.8203 129.352 24.0234C129.06 24.2318 128.914 24.5026 128.914 24.8359C128.914 25.3464 129.354 25.7083 130.234 25.9219L131.641 26.2578C132.495 26.4661 133.099 26.7422 133.453 27.0859C133.807 27.4297 133.984 27.9141 133.984 28.5391C133.984 29.2943 133.659 29.9115 133.008 30.3906C132.357 30.8646 131.518 31.1016 130.492 31.1016C129.508 31.1016 128.701 30.8672 128.07 30.3984C127.445 29.9349 127.102 29.3177 127.039 28.5469H128.711C128.846 29.3854 129.469 29.8047 130.578 29.8047C131.104 29.8047 131.523 29.7031 131.836 29.5C132.143 29.2969 132.297 29.0234 132.297 28.6797C132.297 28.4089 132.203 28.1953 132.016 28.0391C131.833 27.8828 131.518 27.7474 131.07 27.6328L129.555 27.2578C128.029 26.8828 127.266 26.1068 127.266 24.9297ZM135.219 24.9297C135.219 24.1849 135.523 23.5781 136.133 23.1094C136.742 22.6458 137.534 22.4141 138.508 22.4141C139.435 22.4141 140.203 22.651 140.812 23.125C141.417 23.5938 141.729 24.1979 141.75 24.9375H140.156C140.12 24.5625 139.951 24.2656 139.648 24.0469C139.346 23.8281 138.953 23.7188 138.469 23.7188C137.99 23.7188 137.602 23.8203 137.305 24.0234C137.013 24.2318 136.867 24.5026 136.867 24.8359C136.867 25.3464 137.307 25.7083 138.188 25.9219L139.594 26.2578C140.448 26.4661 141.052 26.7422 141.406 27.0859C141.76 27.4297 141.938 27.9141 141.938 28.5391C141.938 29.2943 141.612 29.9115 140.961 30.3906C140.31 30.8646 139.471 31.1016 138.445 31.1016C137.461 31.1016 136.654 30.8672 136.023 30.3984C135.398 29.9349 135.055 29.3177 134.992 28.5469H136.664C136.799 29.3854 137.422 29.8047 138.531 29.8047C139.057 29.8047 139.477 29.7031 139.789 29.5C140.096 29.2969 140.25 29.0234 140.25 28.6797C140.25 28.4089 140.156 28.1953 139.969 28.0391C139.786 27.8828 139.471 27.7474 139.023 27.6328L137.508 27.2578C135.982 26.8828 135.219 26.1068 135.219 24.9297ZM143.375 22.5156H145.07V31H143.375V22.5156ZM144.227 21.3047C143.951 21.3047 143.716 21.2083 143.523 21.0156C143.331 20.8281 143.234 20.599 143.234 20.3281C143.234 20.0521 143.331 19.8203 143.523 19.6328C143.716 19.4453 143.951 19.3516 144.227 19.3516C144.503 19.3516 144.737 19.4453 144.93 19.6328C145.122 19.8203 145.219 20.0521 145.219 20.3281C145.219 20.599 145.122 20.8281 144.93 21.0156C144.737 21.2083 144.503 21.3047 144.227 21.3047ZM150.508 31.1016C149.279 31.1016 148.302 30.7109 147.578 29.9297C146.854 29.1484 146.492 28.0911 146.492 26.7578C146.492 25.4297 146.857 24.3724 147.586 23.5859C148.31 22.7995 149.284 22.4062 150.508 22.4062C151.732 22.4062 152.706 22.7969 153.43 23.5781C154.154 24.3646 154.516 25.4245 154.516 26.7578C154.516 28.0911 154.154 29.1484 153.43 29.9297C152.711 30.7109 151.737 31.1016 150.508 31.1016ZM150.508 29.6953C151.227 29.6953 151.789 29.4375 152.195 28.9219C152.596 28.4062 152.797 27.6849 152.797 26.7578C152.797 25.8307 152.596 25.1094 152.195 24.5938C151.789 24.0729 151.227 23.8125 150.508 23.8125C149.789 23.8125 149.227 24.0729 148.82 24.5938C148.414 25.1146 148.211 25.8359 148.211 26.7578C148.211 27.6797 148.414 28.401 148.82 28.9219C149.227 29.4375 149.789 29.6953 150.508 29.6953ZM155.875 22.5156H157.492V23.9453H157.523C158.049 22.9297 158.969 22.4219 160.281 22.4219C161.219 22.4219 161.958 22.7005 162.5 23.2578C163.036 23.8203 163.305 24.5885 163.305 25.5625V31H161.609V25.8828C161.609 25.237 161.445 24.7422 161.117 24.3984C160.789 24.0495 160.315 23.875 159.695 23.875C159.055 23.875 158.542 24.0781 158.156 24.4844C157.766 24.8958 157.57 25.4349 157.57 26.1016V31H155.875V22.5156Z" fill="white"/>
<defs>
<linearGradient id="paint0_linear_39_6696" x1="-7.00002" y1="-9.589" x2="403.868" y2="179.773" gradientUnits="userSpaceOnUse">
<stop stop-color="white"/>
<stop offset="1" stop-color="white" stop-opacity="0"/>
</linearGradient>
</defs>
</svg>
