<svg width="345" height="50" viewBox="0 0 345 50" fill="none" xmlns="http://www.w3.org/2000/svg">
<rect width="345" height="50" rx="20" fill="#33333F"/>
<rect x="0.35" y="0.35" width="344.3" height="49.3" rx="19.65" stroke="url(#paint0_linear_26_822)" stroke-opacity="0.15" stroke-width="0.7"/>
<g opacity="0.35">
<g clip-path="url(#clip0_26_822)">
<path d="M26.9438 31.0187C26.9438 29.6633 27.4715 28.3887 28.4301 27.4301C29.3887 26.4715 30.6629 25.9438 32.0187 25.9438C33.1316 25.9438 34.1898 26.3 35.0637 26.9578C35.1121 26.25 35.1422 25.4582 35.1434 24.5719C35.141 22.3426 34.9539 20.7102 34.7543 19.5105C34.4051 17.534 32.6098 15.7387 30.6332 15.3895C29.4336 15.1895 27.8012 15.0023 25.5715 15C23.3422 15.0023 21.7094 15.1895 20.5098 15.3891C18.5336 15.7383 16.7383 17.5336 16.3891 19.5102C16.1895 20.7098 16.0027 22.3422 16 24.5715C16.0027 26.8008 16.1895 28.4336 16.3891 29.6332C16.7383 31.6098 18.5336 33.4051 20.5102 33.7543C21.7098 33.9539 23.3422 34.1406 25.5719 34.1434C26.4582 34.1422 27.25 34.1121 27.9578 34.0637C27.3 33.1898 26.9438 32.132 26.9438 31.0187ZM20.8422 19.6258H30.3012C30.9129 19.6258 31.409 20.1219 31.409 20.7336C31.409 21.3453 30.9129 21.8414 30.3012 21.8414H20.8422C20.2305 21.8414 19.7344 21.3453 19.7344 20.7336C19.7344 20.1219 20.2305 19.6258 20.8422 19.6258ZM20.8422 26.4676C20.2305 26.4676 19.7344 25.9715 19.7344 25.3598C19.7344 24.748 20.2305 24.252 20.8422 24.252H26.3949C27.0066 24.252 27.5027 24.748 27.5027 25.3598C27.5027 25.9715 27.0066 26.4676 26.3949 26.4676H20.8422Z" fill="white"/>
<path d="M32.0187 27.0375C29.8199 27.0375 28.0375 28.8199 28.0375 31.0188C28.0375 33.2176 29.8199 35 32.0187 35C34.2176 35 36 33.2176 36 31.0188C36 28.8199 34.2176 27.0375 32.0187 27.0375ZM32.7609 32.9941C32.7609 33.4039 32.4285 33.7363 32.0187 33.7363C31.609 33.7363 31.2765 33.4039 31.2765 32.9941V31.0359C31.2765 30.6262 31.609 30.2938 32.0187 30.2938C32.4285 30.2938 32.7609 30.6262 32.7609 31.0359V32.9941ZM32.7304 29.4473C32.7031 29.602 32.5625 29.7426 32.4078 29.7699C32.314 29.7856 32.1859 29.8 32.0113 29.8004C31.8367 29.8004 31.709 29.7856 31.6148 29.7699C31.4601 29.7426 31.3195 29.602 31.2922 29.4473C31.2765 29.3535 31.2621 29.2254 31.2617 29.0508C31.2617 28.8762 31.2765 28.7484 31.2922 28.6543C31.3195 28.4996 31.4601 28.359 31.6148 28.3316C31.7086 28.316 31.8367 28.3016 32.0113 28.3012C32.1859 28.3012 32.3136 28.316 32.4078 28.3316C32.5625 28.359 32.7031 28.4996 32.7304 28.6543C32.7461 28.7481 32.7605 28.8762 32.7609 29.0508C32.7609 29.2254 32.7461 29.3531 32.7304 29.4473Z" fill="white"/>
</g>
</g>
<path d="M55.8906 31V21.2344H52.375V19.7266H61.1484V21.2344H57.6406V31H55.8906ZM64.3281 23.7891C63.7188 23.7891 63.2135 23.9922 62.8125 24.3984C62.4062 24.8047 62.1797 25.3333 62.1328 25.9844H66.4375C66.4167 25.3229 66.2135 24.7917 65.8281 24.3906C65.4427 23.9896 64.9427 23.7891 64.3281 23.7891ZM68.0469 28.5156C67.9271 29.276 67.5286 29.8984 66.8516 30.3828C66.1745 30.862 65.3594 31.1016 64.4062 31.1016C63.1771 31.1016 62.2031 30.7135 61.4844 29.9375C60.7708 29.1667 60.4141 28.1172 60.4141 26.7891C60.4141 25.4609 60.7708 24.3984 61.4844 23.6016C62.1979 22.8047 63.1484 22.4062 64.3359 22.4062C65.5026 22.4062 66.4271 22.7839 67.1094 23.5391C67.7917 24.2891 68.1328 25.3073 68.1328 26.5938V27.1875H62.125V27.2891C62.125 28.0234 62.3359 28.612 62.7578 29.0547C63.1797 29.5026 63.7396 29.7266 64.4375 29.7266C64.9323 29.7266 65.3594 29.6172 65.7188 29.3984C66.0781 29.1797 66.3151 28.8854 66.4297 28.5156H68.0469ZM69.5 22.5156H71.1172V23.9453H71.1484C71.2786 23.4714 71.5286 23.1016 71.8984 22.8359C72.263 22.5651 72.6953 22.4297 73.1953 22.4297C73.4297 22.4297 73.6172 22.4505 73.7578 22.4922V24.0781C73.5703 24.0052 73.3229 23.9688 73.0156 23.9688C72.4583 23.9688 72.0156 24.1484 71.6875 24.5078C71.3594 24.862 71.1953 25.3385 71.1953 25.9375V31H69.5V22.5156ZM74.875 22.5156H76.4922V23.9531H76.5234C76.7161 23.4792 77.0286 23.1042 77.4609 22.8281C77.888 22.5573 78.3802 22.4219 78.9375 22.4219C80.1615 22.4219 80.9531 22.9714 81.3125 24.0703H81.3516C81.5755 23.5599 81.9219 23.1562 82.3906 22.8594C82.8646 22.5677 83.4036 22.4219 84.0078 22.4219C84.8464 22.4219 85.5156 22.6771 86.0156 23.1875C86.5208 23.6927 86.7734 24.3698 86.7734 25.2188V31H85.0859V25.625C85.0859 25.0677 84.9427 24.638 84.6562 24.3359C84.3646 24.0286 83.9557 23.875 83.4297 23.875C82.9089 23.875 82.4844 24.0495 82.1562 24.3984C81.8229 24.7474 81.6562 25.1927 81.6562 25.7344V31H79.9922V25.4844C79.9922 24.9948 79.8464 24.6042 79.5547 24.3125C79.2578 24.0208 78.862 23.875 78.3672 23.875C77.8464 23.875 77.4167 24.0573 77.0781 24.4219C76.7396 24.7812 76.5703 25.2396 76.5703 25.7969V31H74.875V22.5156ZM88.3281 24.9297C88.3281 24.1849 88.6328 23.5781 89.2422 23.1094C89.8516 22.6458 90.6432 22.4141 91.6172 22.4141C92.5443 22.4141 93.3125 22.651 93.9219 23.125C94.526 23.5938 94.8385 24.1979 94.8594 24.9375H93.2656C93.2292 24.5625 93.0599 24.2656 92.7578 24.0469C92.4557 23.8281 92.0625 23.7188 91.5781 23.7188C91.099 23.7188 90.7109 23.8203 90.4141 24.0234C90.1224 24.2318 89.9766 24.5026 89.9766 24.8359C89.9766 25.3464 90.4167 25.7083 91.2969 25.9219L92.7031 26.2578C93.5573 26.4661 94.1615 26.7422 94.5156 27.0859C94.8698 27.4297 95.0469 27.9141 95.0469 28.5391C95.0469 29.2943 94.7214 29.9115 94.0703 30.3906C93.4193 30.8646 92.5807 31.1016 91.5547 31.1016C90.5703 31.1016 89.763 30.8672 89.1328 30.3984C88.5078 29.9349 88.1641 29.3177 88.1016 28.5469H89.7734C89.9089 29.3854 90.5312 29.8047 91.6406 29.8047C92.1667 29.8047 92.5859 29.7031 92.8984 29.5C93.2057 29.2969 93.3594 29.0234 93.3594 28.6797C93.3594 28.4089 93.2656 28.1953 93.0781 28.0391C92.8958 27.8828 92.5807 27.7474 92.1328 27.6328L90.6172 27.2578C89.0911 26.8828 88.3281 26.1068 88.3281 24.9297ZM103.742 31.1016C102.513 31.1016 101.536 30.7109 100.812 29.9297C100.089 29.1484 99.7266 28.0911 99.7266 26.7578C99.7266 25.4297 100.091 24.3724 100.82 23.5859C101.544 22.7995 102.518 22.4062 103.742 22.4062C104.966 22.4062 105.94 22.7969 106.664 23.5781C107.388 24.3646 107.75 25.4245 107.75 26.7578C107.75 28.0911 107.388 29.1484 106.664 29.9297C105.945 30.7109 104.971 31.1016 103.742 31.1016ZM103.742 29.6953C104.461 29.6953 105.023 29.4375 105.43 28.9219C105.831 28.4062 106.031 27.6849 106.031 26.7578C106.031 25.8307 105.831 25.1094 105.43 24.5938C105.023 24.0729 104.461 23.8125 103.742 23.8125C103.023 23.8125 102.461 24.0729 102.055 24.5938C101.648 25.1146 101.445 25.8359 101.445 26.7578C101.445 27.6797 101.648 28.401 102.055 28.9219C102.461 29.4375 103.023 29.6953 103.742 29.6953ZM109.617 23.8516H108.445V22.5156H109.617V21.7344C109.617 20.9375 109.81 20.3594 110.195 20C110.581 19.6354 111.201 19.4531 112.055 19.4531C112.326 19.4531 112.612 19.4792 112.914 19.5312V20.8203C112.732 20.7786 112.521 20.7578 112.281 20.7578C111.932 20.7578 111.682 20.8385 111.531 21C111.375 21.1615 111.294 21.4245 111.289 21.7891V22.5156H112.922V23.8516H111.305V31H109.617V23.8516ZM125.406 31H123.789V29.5469H123.758C123.253 30.5781 122.339 31.0938 121.016 31.0938C120.089 31.0938 119.352 30.8125 118.805 30.25C118.253 29.6875 117.977 28.9219 117.977 27.9531V22.5156H119.672V27.6328C119.672 28.2839 119.839 28.7812 120.172 29.125C120.505 29.4635 120.979 29.6328 121.594 29.6328C122.229 29.6328 122.74 29.4297 123.125 29.0234C123.516 28.6172 123.711 28.0781 123.711 27.4062V22.5156H125.406V31ZM127 24.9297C127 24.1849 127.305 23.5781 127.914 23.1094C128.523 22.6458 129.315 22.4141 130.289 22.4141C131.216 22.4141 131.984 22.651 132.594 23.125C133.198 23.5938 133.51 24.1979 133.531 24.9375H131.938C131.901 24.5625 131.732 24.2656 131.43 24.0469C131.128 23.8281 130.734 23.7188 130.25 23.7188C129.771 23.7188 129.383 23.8203 129.086 24.0234C128.794 24.2318 128.648 24.5026 128.648 24.8359C128.648 25.3464 129.089 25.7083 129.969 25.9219L131.375 26.2578C132.229 26.4661 132.833 26.7422 133.188 27.0859C133.542 27.4297 133.719 27.9141 133.719 28.5391C133.719 29.2943 133.393 29.9115 132.742 30.3906C132.091 30.8646 131.253 31.1016 130.227 31.1016C129.242 31.1016 128.435 30.8672 127.805 30.3984C127.18 29.9349 126.836 29.3177 126.773 28.5469H128.445C128.581 29.3854 129.203 29.8047 130.312 29.8047C130.839 29.8047 131.258 29.7031 131.57 29.5C131.878 29.2969 132.031 29.0234 132.031 28.6797C132.031 28.4089 131.938 28.1953 131.75 28.0391C131.568 27.8828 131.253 27.7474 130.805 27.6328L129.289 27.2578C127.763 26.8828 127 26.1068 127 24.9297ZM138.625 23.7891C138.016 23.7891 137.51 23.9922 137.109 24.3984C136.703 24.8047 136.477 25.3333 136.43 25.9844H140.734C140.714 25.3229 140.51 24.7917 140.125 24.3906C139.74 23.9896 139.24 23.7891 138.625 23.7891ZM142.344 28.5156C142.224 29.276 141.826 29.8984 141.148 30.3828C140.471 30.862 139.656 31.1016 138.703 31.1016C137.474 31.1016 136.5 30.7135 135.781 29.9375C135.068 29.1667 134.711 28.1172 134.711 26.7891C134.711 25.4609 135.068 24.3984 135.781 23.6016C136.495 22.8047 137.445 22.4062 138.633 22.4062C139.799 22.4062 140.724 22.7839 141.406 23.5391C142.089 24.2891 142.43 25.3073 142.43 26.5938V27.1875H136.422V27.2891C136.422 28.0234 136.633 28.612 137.055 29.0547C137.477 29.5026 138.036 29.7266 138.734 29.7266C139.229 29.7266 139.656 29.6172 140.016 29.3984C140.375 29.1797 140.612 28.8854 140.727 28.5156H142.344Z" fill="white"/>
<defs>
<linearGradient id="paint0_linear_26_822" x1="-7.00002" y1="-9.589" x2="403.868" y2="179.773" gradientUnits="userSpaceOnUse">
<stop stop-color="white"/>
<stop offset="1" stop-color="white" stop-opacity="0"/>
</linearGradient>
<clipPath id="clip0_26_822">
<rect width="20" height="20" fill="white" transform="translate(16 15)"/>
</clipPath>
</defs>
</svg>
